<svg width="259" height="148" viewBox="0 0 259 148" fill="none" xmlns="http://www.w3.org/2000/svg">
<g opacity="0.1">
<path opacity="0.1" d="M29.5766 87.2488L21 82.3041V92.1935L29.5766 97.1382L38.0964 92.1935V82.3041L29.5766 87.2488Z" fill="#42E8E0"/>
<path opacity="0.1" d="M29.5766 97.1382L21 92.1935V82.3041L29.5766 87.2488V97.1382Z" fill="#42E8E0"/>
<path opacity="0.1" d="M38.0965 92.1935L29.5767 97.1382V87.2488L38.0965 82.3041V92.1935Z" fill="#2FD3C7"/>
<path opacity="0.1" d="M29.5766 87.2488L21 82.3041L29.5766 77.3594L38.0964 82.3041L29.5766 87.2488Z" fill="#42E8E0"/>
<path opacity="0.1" d="M29.5766 87.2488L21 82.3041V82.7588L29.5766 87.7035L38.0964 82.7588V82.3041L29.5766 87.2488Z" fill="white"/>
</g>
<path opacity="0.4" d="M29.5766 81.2811L21 76.3364L29.5766 71.3917L38.0964 76.3364L29.5766 81.2811Z" fill="#D8D8D8"/>
<path d="M29.5766 63.8894L21 58.9447V68.8341L29.5766 73.7788L38.0964 68.8341V58.9447L29.5766 63.8894Z" fill="#42E8E0"/>
<path d="M29.5766 73.7788L21 68.8341V58.9447L29.5766 63.8894V73.7788Z" fill="#42E8E0"/>
<path d="M38.0965 68.8341L29.5767 73.7788V63.8894L38.0965 58.9447V68.8341Z" fill="#2FD3C7"/>
<path d="M29.5766 63.8894L21 58.9447L29.5766 54L38.0964 58.9447L29.5766 63.8894Z" fill="#42E8E0"/>
<path d="M29.5766 63.8894L21 58.9447V59.3994L29.5766 64.3441L38.0964 59.3994V58.9447L29.5766 63.8894Z" fill="white"/>
<g opacity="0.1">
<g opacity="0.1">
<g opacity="0.1">
<g opacity="0.1">
<path opacity="0.1" d="M84.5439 126.516C84.5439 126.743 84.5439 126.971 84.5439 127.198L93.9725 135.098L109.251 140.782L119.986 138.395L130.267 135.439L140.718 127.369L141.002 127.141C141.059 126.516 141.002 125.834 140.888 125.209C142.763 122.765 144.58 120.264 146.454 117.82C147.306 118.9 147.988 119.98 148.499 121.117L149.749 120.151V126.459C149.749 126.516 149.749 126.63 149.749 126.687V126.914C149.578 132.257 146 137.599 138.957 141.691C124.53 150.046 101.129 150.103 86.7023 141.805C79.5457 137.656 75.9106 132.257 75.8538 126.857V126.8C75.8538 126.743 75.8538 126.687 75.8538 126.63V119.923L77.1601 121.003C77.4441 120.321 77.8417 119.696 78.2393 119.071C79.8865 121.912 81.5336 125.379 84.5439 126.516Z" fill="url(#paint0_linear_1991_17822)"/>
<path opacity="0.1" d="M138.276 111.171C138.446 111.284 138.673 111.398 138.844 111.512C142.138 113.387 144.637 115.547 146.398 117.877C144.523 120.321 142.706 122.822 140.831 125.266C140.264 121.571 137.594 117.934 132.653 115.149C121.634 108.783 103.742 108.84 92.7231 115.206C87.2704 118.332 84.5441 122.481 84.4873 126.573C81.4769 125.379 79.8298 121.912 78.1826 119.128C79.5458 117.081 81.4201 115.149 83.8625 113.387L82.6129 113.671C82.6129 113.671 91.3031 106.112 91.6439 106.055C91.9847 105.998 109.365 101.395 109.365 101.395L128.961 103.1L138.276 111.171Z" fill="url(#paint1_linear_1991_17822)"/>
<path opacity="0.5" d="M132.198 110.659C143.217 117.025 143.274 127.369 132.255 133.734C121.236 140.157 103.344 140.157 92.3254 133.791C81.3064 127.426 81.2496 117.081 92.2686 110.716C103.288 104.35 121.179 104.293 132.198 110.659Z" fill="url(#paint2_linear_1991_17822)"/>
<path opacity="0.48" d="M132.141 112.648C143.16 119.014 143.217 129.358 132.198 135.724C121.179 142.146 103.287 142.146 92.2685 135.78C81.2496 129.415 81.1928 119.071 92.2117 112.705C103.231 106.339 121.122 106.283 132.141 112.648Z" fill="url(#paint3_linear_1991_17822)"/>
<path opacity="0.1" d="M138.9 104.862C124.473 96.5638 101.016 96.6206 86.6455 104.975C72.2187 113.33 72.2755 126.857 86.7023 135.155C101.129 143.453 124.587 143.396 138.957 135.041C153.384 126.687 153.327 113.16 138.9 104.862ZM132.709 108.442C143.728 114.808 143.785 125.152 132.766 131.518C121.747 137.94 103.856 137.94 92.8366 131.575C81.8177 125.209 81.7609 114.865 92.7798 108.499C103.799 102.134 121.69 102.077 132.709 108.442Z" fill="#BCBEFF"/>
<path opacity="0.1" d="M138.9 104.862C124.473 96.5638 101.016 96.6206 86.6455 104.975C72.2187 113.33 72.2755 126.857 86.7023 135.155C101.129 143.453 124.587 143.396 138.957 135.041C153.384 126.687 153.327 113.16 138.9 104.862ZM132.709 108.442C143.728 114.808 143.785 125.152 132.766 131.518C121.747 137.94 103.856 137.94 92.8366 131.575C81.8177 125.209 81.7609 114.865 92.7798 108.499C103.799 102.134 121.69 102.077 132.709 108.442Z" fill="#BCBEFF"/>
<g opacity="0.1">
<path opacity="0.1" d="M86.4752 134.587C100.902 142.885 124.36 142.828 138.73 134.473C147.591 129.301 150.998 122.197 148.954 115.604C151.396 122.424 148.045 129.756 138.957 135.041C124.53 143.396 101.129 143.453 86.7024 135.155C81.1362 131.972 77.7282 127.994 76.4219 123.845C77.8418 127.823 81.193 131.574 86.4752 134.587Z" fill="white"/>
<path opacity="0.1" d="M92.6094 107.931C103.628 101.508 121.52 101.508 132.539 107.874C136.799 110.318 139.411 113.387 140.377 116.57C139.298 113.558 136.742 110.716 132.709 108.442C121.69 102.077 103.799 102.134 92.7798 108.499C86.0208 112.421 83.4081 117.82 84.9416 122.879C83.0673 117.65 85.5664 112.023 92.6094 107.931Z" fill="white"/>
</g>
</g>
</g>
</g>
</g>
<path opacity="0.48" d="M175.251 131.323C149.975 145.929 109.023 145.929 83.748 131.323C58.4727 116.716 58.4727 93.0723 83.748 78.4656C109.023 63.8588 149.975 63.8588 175.251 78.4656C200.526 93.0723 200.526 116.716 175.251 131.323Z" fill="url(#paint4_radial_1991_17822)"/>
<path opacity="0.48" d="M167.072 64.2567C146.34 76.249 112.659 76.249 91.927 64.2567C71.1955 52.2643 71.1955 32.8266 91.927 20.8342C112.659 8.84192 146.34 8.84192 167.072 20.8342C187.803 32.8266 187.803 52.2643 167.072 64.2567Z" fill="url(#paint5_radial_1991_17822)"/>
<path d="M101.81 99.2106C101.81 99.4379 101.81 99.6652 101.81 99.8926L111.238 107.793L126.517 113.476L137.252 111.089L147.533 108.134L157.984 100.063L158.268 99.8358C158.324 99.2106 158.268 98.5285 158.154 97.9033C160.028 95.4594 161.846 92.9586 163.72 90.5147C164.572 91.5946 165.254 92.6745 165.765 93.8112L167.015 92.845V99.1537C167.015 99.2106 167.015 99.3242 167.015 99.3811V99.6084C166.844 104.951 163.266 110.294 156.223 114.386C141.796 122.741 118.395 122.797 103.968 114.499C96.8115 110.35 93.1764 104.951 93.1196 99.5516V99.4947C93.1196 99.4379 93.1196 99.3811 93.1196 99.3242V92.6176L94.426 93.6975C94.71 93.0155 95.1076 92.3903 95.5052 91.7651C97.1523 94.55 98.7995 98.017 101.81 99.2106Z" fill="url(#paint6_linear_1991_17822)"/>
<path d="M155.541 83.8649C155.712 83.9786 155.939 84.0923 156.109 84.2059C159.404 86.0815 161.903 88.2413 163.664 90.5715C161.789 93.0155 159.972 95.5162 158.097 97.9602C157.529 94.2659 154.86 90.6284 149.918 87.8434C138.899 81.4778 121.008 81.5347 109.989 87.9003C104.536 91.0262 101.81 95.1752 101.753 99.2674C98.7428 98.0738 97.0956 94.6069 95.4485 91.8219C96.8117 89.7758 98.686 87.8434 101.128 86.0815L99.8788 86.3657C99.8788 86.3657 108.569 78.8066 108.91 78.7497C109.251 78.6929 126.631 74.0892 126.631 74.0892L146.226 75.7943L155.541 83.8649Z" fill="url(#paint7_linear_1991_17822)"/>
<path opacity="0.5" d="M149.464 83.3534C160.483 89.719 160.54 100.063 149.521 106.429C138.502 112.851 120.61 112.851 109.591 106.486C98.5723 100.12 98.5155 89.7758 109.534 83.4103C120.553 76.9878 138.445 76.9878 149.464 83.3534Z" fill="url(#paint8_linear_1991_17822)"/>
<path opacity="0.48" d="M149.407 85.2858C160.426 91.6514 160.483 101.996 149.464 108.361C138.445 114.784 120.553 114.784 109.534 108.418C98.5154 102.052 98.4586 91.7083 109.478 85.3427C120.496 78.9771 138.388 78.9771 149.407 85.2858Z" fill="url(#paint9_linear_1991_17822)"/>
<path d="M156.166 77.5562C141.739 69.2582 118.281 69.315 103.911 77.6699C89.4846 86.0247 89.5414 99.5516 103.968 107.85C118.395 116.148 141.853 116.091 156.223 107.736C170.65 99.3811 170.593 85.8542 156.166 77.5562ZM149.975 81.08C160.994 87.4456 161.051 97.7897 150.032 104.155C139.013 110.578 121.121 110.578 110.102 104.212C99.0835 97.8465 99.0267 87.5024 110.046 81.1368C121.065 74.7712 138.956 74.7712 149.975 81.08Z" fill="#BCBEFF"/>
<path d="M156.166 77.5562C141.739 69.2582 118.281 69.315 103.911 77.6699C89.4846 86.0247 89.5414 99.5516 103.968 107.85C118.395 116.148 141.853 116.091 156.223 107.736C170.65 99.3811 170.593 85.8542 156.166 77.5562ZM149.975 81.08C160.994 87.4456 161.051 97.7897 150.032 104.155C139.013 110.578 121.121 110.578 110.102 104.212C99.0835 97.8465 99.0267 87.5024 110.046 81.1368C121.065 74.7712 138.956 74.7712 149.975 81.08Z" fill="#BCBEFF"/>
<path d="M103.741 107.281C118.168 115.579 141.626 115.522 155.996 107.168C164.856 101.996 168.264 94.8911 166.22 88.2981C168.662 95.1184 165.311 102.45 156.223 107.736C141.796 116.091 118.395 116.148 103.968 107.85C98.402 104.667 94.9941 100.688 93.6877 96.5393C95.1077 100.461 98.4588 104.212 103.741 107.281Z" fill="white"/>
<path d="M109.875 80.6253C120.894 74.2029 138.786 74.2029 149.805 80.5685C154.065 83.0124 156.677 86.0815 157.643 89.2643C156.564 86.252 154.008 83.4103 149.975 81.1368C138.956 74.7712 121.065 74.8281 110.046 81.1937C103.287 85.1153 100.674 90.5147 102.207 95.5731C100.333 90.3442 102.832 84.6606 109.875 80.6253Z" fill="white"/>
<path opacity="0.5" d="M156.337 59.4825C141.853 51.1276 118.395 51.1845 103.912 59.5961C89.4279 68.0078 89.4847 81.5347 103.968 89.8895C118.452 98.2444 141.91 98.1875 156.393 89.7759C170.82 81.3642 170.82 67.8373 156.337 59.4825Z" fill="#1BC9BC"/>
<path d="M129.755 68.2352L122.257 63.9156V72.6115L129.755 76.931L137.252 72.6115V63.9156L129.755 68.2352Z" fill="#42E8E0"/>
<path d="M129.755 76.931L122.257 72.6115V63.9156L129.755 68.2352V76.931Z" fill="#42E8E0"/>
<path d="M137.252 72.6115L129.755 76.931V68.2352L137.252 63.9156V72.6115Z" fill="#2FD3C7"/>
<path d="M129.755 68.2351L122.257 63.9156L129.755 59.5961L137.252 63.9156L129.755 68.2351Z" fill="#42E8E0"/>
<path d="M129.755 68.2352L122.598 64.0862L122.257 64.3135L129.755 68.633L137.252 64.3135L136.911 64.0862L129.755 68.2352Z" fill="white"/>
<path d="M139.524 73.805L132.027 69.4855V78.1245L139.524 82.5009L147.021 78.1245V69.4855L139.524 73.805Z" fill="#42E8E0"/>
<path d="M139.524 82.5009L132.027 78.1245V69.4855L139.524 73.805V82.5009Z" fill="#42E8E0"/>
<path d="M147.021 78.1245L139.524 82.5009V73.805L147.021 69.4855V78.1245Z" fill="#2FD3C7"/>
<path d="M139.524 73.805L132.027 69.4855L139.524 65.166L147.021 69.4855L139.524 73.805Z" fill="#42E8E0"/>
<path d="M139.524 73.805L132.311 69.656L132.027 69.8834L139.524 74.2029L147.021 69.8834L146.681 69.656L139.524 73.805Z" fill="white"/>
<path d="M149.237 79.3749L141.739 75.0554V83.6944L149.237 88.0708L156.734 83.6944V75.0554L149.237 79.3749Z" fill="#42E8E0"/>
<path d="M149.237 88.0708L141.739 83.6944V75.0554L149.237 79.3749V88.0708Z" fill="#42E8E0"/>
<path d="M156.734 83.6944L149.237 88.0708V79.3749L156.734 75.0554V83.6944Z" fill="#2FD3C7"/>
<path d="M149.237 79.3749L141.739 75.0554L149.237 70.7359L156.734 75.0554L149.237 79.3749Z" fill="#42E8E0"/>
<path d="M149.237 79.3749L142.08 75.2259L141.739 75.3964L149.237 79.7728L156.734 75.3964V75.0554L149.237 79.3749Z" fill="white"/>
<path d="M120.042 74.2029L112.545 69.8834V78.5224L120.042 82.8419L127.54 78.5224V69.8834L120.042 74.2029Z" fill="#42E8E0"/>
<path d="M120.042 82.8419L112.545 78.5224V69.8834L120.042 74.2029V82.8419Z" fill="#42E8E0"/>
<path d="M127.539 78.5224L120.042 82.8419V74.2029L127.539 69.8834V78.5224Z" fill="#2FD3C7"/>
<path d="M120.042 74.2029L112.545 69.8834L120.042 65.507L127.54 69.8834L120.042 74.2029Z" fill="#42E8E0"/>
<path d="M120.042 74.2029L112.829 70.0539L112.545 70.2244L120.042 74.5439L127.54 70.2244L127.199 70.0539L120.042 74.2029Z" fill="white"/>
<path d="M129.755 79.7728L122.257 75.3964V84.0923L129.755 88.4118L137.252 84.0923V75.3964L129.755 79.7728Z" fill="#42E8E0"/>
<path d="M129.755 88.4118L122.257 84.0923V75.3964L129.755 79.7728V88.4118Z" fill="#42E8E0"/>
<path d="M137.252 84.0923L129.755 88.4118V79.7728L137.252 75.3964V84.0923Z" fill="#2FD3C7"/>
<path d="M129.755 79.7728L122.257 75.3964L129.755 71.0769L137.252 75.3964L129.755 79.7728Z" fill="#42E8E0"/>
<path d="M129.755 79.7728L122.598 75.6238L122.257 75.7943L129.755 80.1138L137.252 75.7943L136.911 75.6238L129.755 79.7728Z" fill="white"/>
<path d="M139.524 85.3426L132.027 80.9663V89.6622L139.524 93.9817L147.021 89.6622V80.9663L139.524 85.3426Z" fill="#42E8E0"/>
<path d="M139.524 93.9817L132.027 89.6622V80.9663L139.524 85.3426V93.9817Z" fill="#42E8E0"/>
<path d="M147.021 89.6622L139.524 93.9817V85.3426L147.021 80.9663V89.6622Z" fill="#2FD3C7"/>
<path d="M139.524 85.3427L132.027 80.9663L139.524 76.6468L147.021 80.9663L139.524 85.3427Z" fill="#42E8E0"/>
<path d="M139.524 85.3426L132.311 81.1937L132.027 81.3642L139.524 85.6837L147.021 81.3642V80.9663L139.524 85.3426Z" fill="white"/>
<path d="M110.273 80.1138L102.775 75.7943V84.4902L110.273 88.8097L117.77 84.4902V75.7943L110.273 80.1138Z" fill="#42E8E0"/>
<path d="M110.273 88.8097L102.775 84.4902V75.7943L110.273 80.1138V88.8097Z" fill="#42E8E0"/>
<path d="M117.77 84.4902L110.273 88.8097V80.1138L117.77 75.7943V84.4902Z" fill="#2FD3C7"/>
<path d="M110.273 80.1138L102.775 75.7943L110.273 71.4748L117.77 75.7943L110.273 80.1138Z" fill="#42E8E0"/>
<path d="M110.273 80.1138L102.775 75.7943V76.1922L110.273 80.5117L117.77 76.1922L117.429 75.9648L110.273 80.1138Z" fill="white"/>
<path d="M120.042 85.6837L112.545 81.3642V90.0032L120.042 94.3796L127.54 90.0032V81.3642L120.042 85.6837Z" fill="#42E8E0"/>
<path d="M120.042 94.3796L112.545 90.0032V81.3642L120.042 85.6837V94.3796Z" fill="#42E8E0"/>
<path d="M127.539 90.0032L120.042 94.3796V85.6837L127.539 81.3642V90.0032Z" fill="#2FD3C7"/>
<path d="M120.042 85.6837L112.545 81.3642L120.042 77.0447L127.54 81.3642L120.042 85.6837Z" fill="#42E8E0"/>
<path d="M120.042 85.6837L112.545 81.3642V81.7621L120.042 86.0816L127.54 81.7621L127.199 81.5347L120.042 85.6837Z" fill="white"/>
<path d="M129.755 91.2536L122.257 86.9341V95.5731L129.755 99.8926L137.252 95.5731V86.9341L129.755 91.2536Z" fill="#42E8E0"/>
<path d="M129.755 99.8926L122.257 95.5731V86.9341L129.755 91.2536V99.8926Z" fill="#42E8E0"/>
<path d="M137.252 95.5731L129.755 99.8926V91.2536L137.252 86.9341V95.5731Z" fill="#2FD3C7"/>
<path d="M129.755 91.2536L122.257 86.9341L129.755 82.6146L137.252 86.9341L129.755 91.2536Z" fill="#42E8E0"/>
<path d="M129.755 91.2536L122.257 86.9341V87.2751L129.755 91.6515L137.252 87.2751V86.9341L129.755 91.2536Z" fill="white"/>
<path d="M129.755 56.7543L122.257 52.4348V61.0738L129.755 65.3933L137.252 61.0738V52.4348L129.755 56.7543Z" fill="#42E8E0"/>
<path d="M129.755 65.3933L122.257 61.0738V52.4348L129.755 56.7543V65.3933Z" fill="#42E8E0"/>
<path d="M137.252 61.0738L129.755 65.3933V56.7543L137.252 52.4348V61.0738Z" fill="#2FD3C7"/>
<path d="M129.755 56.7543L122.257 52.4348L129.755 48.1153L137.252 52.4348L129.755 56.7543Z" fill="#42E8E0"/>
<path d="M129.755 56.7543L122.598 52.6053L122.257 52.7759L129.755 57.1522L137.252 52.7759L136.911 52.6053L129.755 56.7543Z" fill="white"/>
<path opacity="0.7" d="M129.755 89.8327L124.643 86.8772L129.755 83.9218L134.867 86.8772L129.755 89.8327Z" fill="#18B2A3"/>
<path opacity="0.7" d="M120.042 84.2628L114.93 81.3073L120.042 78.3519L125.154 81.3073L120.042 84.2628Z" fill="#18B2A3"/>
<path opacity="0.7" d="M139.524 83.9218L134.412 80.9663L139.524 78.0109L144.636 80.9663L139.524 83.9218Z" fill="#18B2A3"/>
<path opacity="0.7" d="M149.293 78.0109L144.125 75.0554L149.293 72.1L154.405 75.0554L149.293 78.0109Z" fill="#18B2A3"/>
<path opacity="0.7" d="M110.273 78.6929L105.161 75.7374L110.273 72.782L115.385 75.7374L110.273 78.6929Z" fill="#18B2A3"/>
<path d="M139.524 62.3242L132.027 58.0047V66.6437L139.524 70.9633L147.021 66.6437V58.0047L139.524 62.3242Z" fill="#42E8E0"/>
<path d="M139.524 70.9633L132.027 66.6437V58.0047L139.524 62.3242V70.9633Z" fill="#42E8E0"/>
<path d="M147.021 66.6437L139.524 70.9633V62.3242L147.021 58.0047V66.6437Z" fill="#2FD3C7"/>
<path d="M139.524 62.3242L132.027 58.0047L139.524 53.6284L147.021 58.0047L139.524 62.3242Z" fill="#42E8E0"/>
<path d="M139.524 62.3242L132.311 58.1752L132.027 58.3457L139.524 62.7221L147.021 58.3457L146.681 58.1752L139.524 62.3242Z" fill="white"/>
<path d="M149.237 67.8942L141.739 63.5746V72.2137L149.237 76.5332L156.734 72.2137V63.5746L149.237 67.8942Z" fill="#42E8E0"/>
<path d="M149.237 76.5332L141.739 72.2137V63.5746L149.237 67.8942V76.5332Z" fill="#42E8E0"/>
<path d="M156.734 72.2137L149.237 76.5332V67.8942L156.734 63.5746V72.2137Z" fill="#2FD3C7"/>
<path d="M149.237 67.8941L141.739 63.5746L149.237 59.1983L156.734 63.5746L149.237 67.8941Z" fill="#42E8E0"/>
<path d="M149.237 67.8941L142.08 63.7452L141.739 63.9157L149.237 68.2352L156.734 63.9157V63.5746L149.237 67.8941Z" fill="white"/>
<path d="M120.042 62.7221L112.545 58.3458V67.0416L120.042 71.3611L127.54 67.0416V58.3458L120.042 62.7221Z" fill="#42E8E0"/>
<path d="M120.042 71.3611L112.545 67.0416V58.3458L120.042 62.7221V71.3611Z" fill="#42E8E0"/>
<path d="M127.539 67.0416L120.042 71.3611V62.7221L127.539 58.3458V67.0416Z" fill="#2FD3C7"/>
<path d="M120.042 62.7221L112.545 58.3458L120.042 54.0262L127.54 58.3458L120.042 62.7221Z" fill="#42E8E0"/>
<path d="M120.042 62.7221L112.829 58.5731L112.545 58.7436L120.042 63.0631L127.54 58.7436L127.199 58.5731L120.042 62.7221Z" fill="white"/>
<path d="M129.755 68.2352L122.257 63.9156V72.6115L129.755 76.931L137.252 72.6115V63.9156L129.755 68.2352Z" fill="#42E8E0"/>
<path d="M129.755 76.931L122.257 72.6115V63.9156L129.755 68.2352V76.931Z" fill="#42E8E0"/>
<path d="M137.252 72.6115L129.755 76.931V68.2352L137.252 63.9156V72.6115Z" fill="#2FD3C7"/>
<path d="M129.755 68.2351L122.257 63.9156L129.755 59.5961L137.252 63.9156L129.755 68.2351Z" fill="#42E8E0"/>
<path d="M129.755 68.2352L122.598 64.0862L122.257 64.3135L129.755 68.633L137.252 64.3135L136.911 64.0862L129.755 68.2352Z" fill="white"/>
<path d="M139.524 73.805L132.027 69.4855V78.1245L139.524 82.5009L147.021 78.1245V69.4855L139.524 73.805Z" fill="#42E8E0"/>
<path d="M139.524 82.5009L132.027 78.1245V69.4855L139.524 73.805V82.5009Z" fill="#42E8E0"/>
<path d="M147.021 78.1245L139.524 82.5009V73.805L147.021 69.4855V78.1245Z" fill="#2FD3C7"/>
<path d="M139.524 73.805L132.027 69.4855L139.524 65.166L147.021 69.4855L139.524 73.805Z" fill="#42E8E0"/>
<path d="M139.524 73.805L132.311 69.656L132.027 69.8834L139.524 74.2029L147.021 69.8834V69.4855L139.524 73.805Z" fill="white"/>
<path d="M110.273 68.633L102.775 64.3135V72.9525L110.273 77.272L117.77 72.9525V64.3135L110.273 68.633Z" fill="#42E8E0"/>
<path d="M110.273 77.272L102.775 72.9525V64.3135L110.273 68.633V77.272Z" fill="#42E8E0"/>
<path d="M117.77 72.9525L110.273 77.272V68.633L117.77 64.3135V72.9525Z" fill="#2FD3C7"/>
<path d="M110.273 68.633L102.775 64.3135L110.273 59.994L117.77 64.3135L110.273 68.633Z" fill="#42E8E0"/>
<path d="M110.273 68.633L103.116 64.484L102.775 64.6545L110.273 69.0309L117.77 64.6545L117.429 64.484L110.273 68.633Z" fill="white"/>
<path d="M120.042 74.2029L112.545 69.8834V78.5224L120.042 82.8419L127.54 78.5224V69.8834L120.042 74.2029Z" fill="#42E8E0"/>
<path d="M120.042 82.8419L112.545 78.5224V69.8834L120.042 74.2029V82.8419Z" fill="#42E8E0"/>
<path d="M127.539 78.5224L120.042 82.8419V74.2029L127.539 69.8834V78.5224Z" fill="#2FD3C7"/>
<path d="M120.042 74.2029L112.545 69.8834L120.042 65.507L127.54 69.8834L120.042 74.2029Z" fill="#42E8E0"/>
<path d="M120.042 74.2029L112.545 69.8834V70.2244L120.042 74.5439L127.54 70.2244L127.199 70.0539L120.042 74.2029Z" fill="white"/>
<path d="M129.755 79.7728L122.257 75.3964V84.0923L129.755 88.4118L137.252 84.0923V75.3964L129.755 79.7728Z" fill="#42E8E0"/>
<path d="M129.755 88.4118L122.257 84.0923V75.3964L129.755 79.7728V88.4118Z" fill="#42E8E0"/>
<path d="M137.252 84.0923L129.755 88.4118V79.7728L137.252 75.3964V84.0923Z" fill="#2FD3C7"/>
<path d="M129.755 79.7728L122.257 75.3964L129.755 71.0769L137.252 75.3964L129.755 79.7728Z" fill="#42E8E0"/>
<path d="M129.755 79.7728L122.257 75.3964V75.7943L129.755 80.1138L137.252 75.7943V75.3964L129.755 79.7728Z" fill="white"/>
<path opacity="0.7" d="M149.293 66.5869L144.125 63.6314L149.293 60.676L154.405 63.6314L149.293 66.5869Z" fill="#18B2A3"/>
<path opacity="0.7" d="M110.273 67.2689L105.161 64.3135L110.273 61.358L115.385 64.3135L110.273 67.2689Z" fill="#18B2A3"/>
<path d="M129.755 45.2736L122.257 40.8972V49.5931L129.755 53.9126L137.252 49.5931V40.8972L129.755 45.2736Z" fill="#42E8E0"/>
<path d="M129.755 53.9126L122.257 49.5931V40.8972L129.755 45.2736V53.9126Z" fill="#42E8E0"/>
<path d="M137.252 49.5931L129.755 53.9126V45.2736L137.252 40.8972V49.5931Z" fill="#2FD3C7"/>
<path d="M129.755 45.2735L122.257 40.8972L129.755 36.5777L137.252 40.8972L129.755 45.2735Z" fill="#42E8E0"/>
<path d="M129.755 45.2736L122.257 40.8972V41.2951L129.755 45.6146L137.252 41.2951V40.8972L129.755 45.2736Z" fill="white"/>
<path d="M139.524 50.8434L132.027 46.4671V55.163L139.524 59.4825L147.021 55.163V46.4671L139.524 50.8434Z" fill="#42E8E0"/>
<path d="M139.524 59.4825L132.027 55.163V46.4671L139.524 50.8434V59.4825Z" fill="#42E8E0"/>
<path d="M147.021 55.163L139.524 59.4825V50.8434L147.021 46.4671V55.163Z" fill="#2FD3C7"/>
<path d="M139.524 50.8434L132.027 46.4671L139.524 42.1476L147.021 46.4671L139.524 50.8434Z" fill="#42E8E0"/>
<path d="M139.524 50.8435L132.027 46.4671V46.865L139.524 51.1845L147.021 46.865V46.4671L139.524 50.8435Z" fill="white"/>
<path d="M149.237 56.3565L141.739 52.037V60.7328L149.237 65.0523L156.734 60.7328V52.037L149.237 56.3565Z" fill="#42E8E0"/>
<path d="M149.237 65.0523L141.739 60.7328V52.037L149.237 56.3565V65.0523Z" fill="#42E8E0"/>
<path d="M156.734 60.7328L149.237 65.0523V56.3565L156.734 52.037V60.7328Z" fill="#2FD3C7"/>
<path d="M149.237 56.3565L141.739 52.037L149.237 47.7175L156.734 52.037L149.237 56.3565Z" fill="#42E8E0"/>
<path d="M149.237 56.3565L141.739 52.037V52.4348L149.237 56.7543L156.734 52.4348V52.037L149.237 56.3565Z" fill="white"/>
<path d="M120.042 51.1845L112.545 46.865V55.504L120.042 59.8803L127.54 55.504V46.865L120.042 51.1845Z" fill="#42E8E0"/>
<path d="M120.042 59.8803L112.545 55.504V46.865L120.042 51.1845V59.8803Z" fill="#42E8E0"/>
<path d="M127.539 55.504L120.042 59.8803V51.1845L127.539 46.865V55.504Z" fill="#2FD3C7"/>
<path d="M120.042 51.1845L112.545 46.8649L120.042 42.5454L127.54 46.8649L120.042 51.1845Z" fill="#42E8E0"/>
<path d="M120.042 51.1845L112.545 46.865V47.2628L120.042 51.5823L127.54 47.2628V46.865L120.042 51.1845Z" fill="white"/>
<path d="M110.273 57.1522L102.775 52.7759V61.4717L110.273 65.7912L117.77 61.4717V52.7759L110.273 57.1522Z" fill="#42E8E0"/>
<path d="M110.273 65.7912L102.775 61.4717V52.7759L110.273 57.1522V65.7912Z" fill="#42E8E0"/>
<path d="M117.77 61.4717L110.273 65.7912V57.1522L117.77 52.7759V61.4717Z" fill="#2FD3C7"/>
<path d="M110.273 57.1522L102.775 52.7759L110.273 48.4564L117.77 52.7759L110.273 57.1522Z" fill="#42E8E0"/>
<path d="M110.273 57.1522L102.775 52.7759V53.1737L110.273 57.4932L117.77 53.1737V52.7759L110.273 57.1522Z" fill="white"/>
<path opacity="0.48" d="M167.015 47.3764L148.839 56.7543L126.063 65.0523L103.911 55.845L93.0629 46.4671V92.5608C93.0061 98.0738 96.6412 103.587 103.911 107.793C118.338 116.091 141.796 116.034 156.166 107.679C163.38 103.473 166.958 98.017 166.958 92.5608V47.3764H167.015Z" fill="url(#paint10_linear_1991_17822)"/>
<path opacity="0.48" d="M93.063 47.3765L111.239 56.7543L134.015 65.0523L156.109 55.845L166.958 46.5239V92.6176C167.015 98.1307 163.38 103.644 156.109 107.85C141.683 116.148 118.225 116.091 103.855 107.736C96.6413 103.53 93.063 98.0739 93.063 92.6176V47.3765Z" fill="url(#paint11_linear_1991_17822)"/>
<path opacity="0.5" d="M156.166 89.8895C141.739 98.1875 118.281 98.1307 103.911 89.7758C96.6979 85.57 93.1196 80.1138 93.1196 74.6576V92.6176C93.1196 98.0738 96.6979 103.587 103.911 107.736C118.338 116.091 141.739 116.148 156.166 107.85C163.436 103.644 167.071 98.1307 167.015 92.6176V74.6576C167.071 80.1706 163.436 85.6837 156.166 89.8895Z" fill="#42E8E0"/>
<path d="M101.81 47.206C101.81 47.4333 101.81 47.6606 101.81 47.888L111.239 55.7881L126.517 61.4717L137.252 59.0846L147.533 56.1292L157.984 48.0585L158.268 47.8311C158.325 47.206 158.268 46.5239 158.154 45.8987C160.029 43.4548 161.846 40.954 163.721 38.5101C164.573 39.59 165.254 40.6699 165.765 41.8066L167.015 40.8404V47.1491C167.015 47.206 167.015 47.3196 167.015 47.3765V47.6038C166.844 52.9464 163.266 58.2889 156.223 62.3811C141.796 70.7359 118.395 70.7927 103.968 62.4947C96.8118 58.3457 93.1767 52.9464 93.1199 47.547V47.4901C93.1199 47.4333 93.1199 47.3765 93.1199 47.3196V40.613L94.4262 41.6929C94.7102 41.0109 95.1078 40.3857 95.5054 39.7605C97.1526 42.5454 98.7997 46.0124 101.81 47.206Z" fill="url(#paint12_linear_1991_17822)"/>
<path d="M155.541 31.8603C155.712 31.974 155.939 32.0877 156.109 32.2014C159.404 34.0769 161.903 36.2367 163.664 38.5669C161.789 41.0109 159.972 43.5117 158.097 45.9556C157.529 42.2613 154.86 38.6238 149.918 35.8388C138.899 29.4733 121.008 29.5301 109.989 35.8957C104.536 39.0216 101.81 43.1706 101.753 47.2628C98.7428 46.0693 97.0956 42.6023 95.4485 39.8173C96.8117 37.7713 98.686 35.8388 101.128 34.0769L99.9356 34.2474C99.9356 34.2474 108.626 26.6883 108.967 26.6315C109.307 26.5746 126.688 21.9709 126.688 21.9709L146.283 23.676L155.541 31.8603Z" fill="url(#paint13_linear_1991_17822)"/>
<path opacity="0.5" d="M149.464 31.3488C160.483 37.7144 160.54 48.0585 149.521 54.4241C138.502 60.8465 120.61 60.8465 109.592 54.4809C98.5158 48.1153 98.5158 37.7712 109.535 31.4056C120.554 24.9832 138.445 24.9832 149.464 31.3488Z" fill="url(#paint14_linear_1991_17822)"/>
<path opacity="0.48" d="M149.407 33.2812C160.426 39.6468 160.483 49.9909 149.464 56.3565C138.445 62.7789 120.554 62.7789 109.535 56.4133C98.5157 50.0477 98.4589 39.7036 109.478 33.3381C120.497 26.9725 138.388 26.9725 149.407 33.2812Z" fill="url(#paint15_linear_1991_17822)"/>
<path d="M156.166 25.5516C141.739 17.2536 118.282 17.3104 103.912 25.6652C89.4279 34.0201 89.4847 47.4901 103.912 55.845C118.338 64.143 141.796 64.0861 156.166 55.7313C170.65 47.3765 170.593 33.8496 156.166 25.5516ZM149.975 29.0754C160.994 35.441 161.051 45.7851 150.032 52.1507C139.013 58.5731 121.121 58.5731 110.103 52.2075C99.0836 45.8419 99.0268 35.4978 110.046 29.1322C121.065 22.7666 138.956 22.7666 149.975 29.0754Z" fill="#BCBEFF"/>
<path d="M156.166 25.5516C141.739 17.2536 118.282 17.3104 103.912 25.6652C89.4279 34.0201 89.4847 47.4901 103.912 55.845C118.338 64.143 141.796 64.0861 156.166 55.7313C170.65 47.3765 170.593 33.8496 156.166 25.5516ZM149.975 29.0754C160.994 35.441 161.051 45.7851 150.032 52.1507C139.013 58.5731 121.121 58.5731 110.103 52.2075C99.0836 45.8419 99.0268 35.4978 110.046 29.1322C121.065 22.7666 138.956 22.7666 149.975 29.0754Z" fill="#BCBEFF"/>
<path d="M103.741 55.2766C118.168 63.5746 141.626 63.5178 155.996 55.1629C164.856 49.9909 168.264 42.8865 166.22 36.2935C168.662 43.1138 165.311 50.4456 156.223 55.7313C141.796 64.0861 118.395 64.143 103.968 55.845C98.3452 52.6053 94.9373 48.6837 93.6877 44.5347C95.1077 48.4563 98.4588 52.2075 103.741 55.2766Z" fill="white"/>
<path d="M109.875 28.6207C120.894 22.1983 138.786 22.1983 149.805 28.5639C154.065 31.0078 156.677 34.0769 157.643 37.2597C156.564 34.2474 154.008 31.4056 149.975 29.0754C138.956 22.7098 121.065 22.7666 110.046 29.1322C103.287 33.1107 100.674 38.5101 102.207 43.5116C100.333 38.3396 102.832 32.656 109.875 28.6207Z" fill="white"/>
<path opacity="0.5" d="M156.393 88.8665C141.91 97.2781 118.452 97.2781 103.968 88.9801C96.9252 84.9448 93.29 79.6023 93.1196 74.2597C92.8924 79.8864 96.5276 85.57 103.968 89.8327C118.452 98.1875 141.91 98.1307 156.393 89.719C163.834 85.3995 167.412 79.7728 167.185 74.1461C167.015 79.4886 163.38 84.8312 156.393 88.8665Z" fill="#99FFF7"/>
<path opacity="0.8" d="M162.913 114.232C164.556 114.232 165.888 112.934 165.888 111.333C165.888 109.732 164.556 108.435 162.913 108.435C161.27 108.435 159.938 109.732 159.938 111.333C159.938 112.934 161.27 114.232 162.913 114.232Z" fill="#42E8E0"/>
<path opacity="0.8" d="M164.955 105.479C166.179 105.479 167.172 104.512 167.172 103.32C167.172 102.127 166.179 101.16 164.955 101.16C163.731 101.16 162.739 102.127 162.739 103.32C162.739 104.512 163.731 105.479 164.955 105.479Z" fill="#42E8E0"/>
<path opacity="0.8" d="M171.255 103.774C172.028 103.774 172.655 103.163 172.655 102.41C172.655 101.657 172.028 101.046 171.255 101.046C170.482 101.046 169.855 101.657 169.855 102.41C169.855 103.163 170.482 103.774 171.255 103.774Z" fill="#42E8E0"/>
<path opacity="0.8" d="M178.457 100.783C178.743 100.365 178.627 99.8 178.198 99.5214C177.769 99.2428 177.19 99.3557 176.904 99.7736C176.618 100.192 176.734 100.756 177.163 101.035C177.592 101.313 178.171 101.2 178.457 100.783Z" fill="#42E8E0"/>
<path opacity="0.8" d="M181.288 97.2451C181.681 96.6705 181.522 95.8942 180.932 95.5111C180.342 95.128 179.545 95.2833 179.152 95.858C178.759 96.4326 178.919 97.2089 179.508 97.592C180.098 97.9751 180.895 97.8198 181.288 97.2451Z" fill="#42E8E0"/>
<path opacity="0.8" d="M178.817 94.7942C179.299 94.089 179.103 93.1362 178.38 92.6661C177.656 92.196 176.678 92.3866 176.195 93.0918C175.713 93.797 175.909 94.7498 176.632 95.2199C177.356 95.6901 178.334 95.4995 178.817 94.7942Z" fill="#42E8E0"/>
<path opacity="0.8" d="M46.8143 45.7972C48.4573 45.7972 49.7893 44.4995 49.7893 42.8986C49.7893 41.2978 48.4573 40 46.8143 40C45.1713 40 43.8394 41.2978 43.8394 42.8986C43.8394 44.4995 45.1713 45.7972 46.8143 45.7972Z" fill="#42E8E0"/>
<path opacity="0.8" d="M74.7729 36.3103C75.8682 36.3103 76.7562 35.4451 76.7562 34.3779C76.7562 33.3106 75.8682 32.4455 74.7729 32.4455C73.6775 32.4455 72.7896 33.3106 72.7896 34.3779C72.7896 35.4451 73.6775 36.3103 74.7729 36.3103Z" fill="#42E8E0"/>
<path opacity="0.8" d="M37.7729 45.4562C38.8682 45.4562 39.7562 44.5911 39.7562 43.5238C39.7562 42.4566 38.8682 41.5914 37.7729 41.5914C36.6775 41.5914 35.7896 42.4566 35.7896 43.5238C35.7896 44.5911 36.6775 45.4562 37.7729 45.4562Z" fill="#42E8E0"/>
<path opacity="0.8" d="M39.1145 51.083C40.1132 51.083 40.9228 50.2941 40.9228 49.321C40.9228 48.348 40.1132 47.5591 39.1145 47.5591C38.1158 47.5591 37.3062 48.348 37.3062 49.321C37.3062 50.2941 38.1158 51.083 39.1145 51.083Z" fill="#42E8E0"/>
<path opacity="0.8" d="M74.5395 45.404C75.1838 45.404 75.7061 44.8951 75.7061 44.2673C75.7061 43.6395 75.1838 43.1306 74.5395 43.1306C73.8951 43.1306 73.3728 43.6395 73.3728 44.2673C73.3728 44.8951 73.8951 45.404 74.5395 45.404Z" fill="#42E8E0"/>
<path opacity="0.8" d="M37.5395 54.5499C38.1838 54.5499 38.7061 54.041 38.7061 53.4132C38.7061 52.7854 38.1838 52.2765 37.5395 52.2765C36.8951 52.2765 36.3728 52.7854 36.3728 53.4132C36.3728 54.041 36.8951 54.5499 37.5395 54.5499Z" fill="#42E8E0"/>
<path opacity="0.8" d="M69.9212 45.3573C70.0517 44.904 69.7804 44.4334 69.3151 44.3063C68.8498 44.1791 68.3669 44.4435 68.2363 44.8968C68.1058 45.3501 68.3772 45.8207 68.8424 45.9479C69.3077 46.0751 69.7907 45.8107 69.9212 45.3573Z" fill="#42E8E0"/>
<path opacity="0.8" d="M32.9212 54.5033C33.0517 54.0499 32.7804 53.5794 32.3151 53.4522C31.8498 53.325 31.3669 53.5894 31.2363 54.0427C31.1058 54.4961 31.3772 54.9667 31.8424 55.0938C32.3077 55.221 32.7907 54.9566 32.9212 54.5033Z" fill="#42E8E0"/>
<path opacity="0.8" d="M162.913 41.596C164.556 41.596 165.888 40.2982 165.888 38.6974C165.888 37.0965 164.556 35.7988 162.913 35.7988C161.27 35.7988 159.938 37.0965 159.938 38.6974C159.938 40.2982 161.27 41.596 162.913 41.596Z" fill="#42E8E0"/>
<path opacity="0.8" d="M165.83 32.957C167.022 32.957 167.988 32.0155 167.988 30.8541C167.988 29.6927 167.022 28.7512 165.83 28.7512C164.638 28.7512 163.672 29.6927 163.672 30.8541C163.672 32.0155 164.638 32.957 165.83 32.957Z" fill="#42E8E0"/>
<path opacity="0.8" d="M171.897 29.7742C172.734 29.7742 173.413 29.1126 173.413 28.2965C173.413 27.4803 172.734 26.8187 171.897 26.8187C171.059 26.8187 170.38 27.4803 170.38 28.2965C170.38 29.1126 171.059 29.7742 171.897 29.7742Z" fill="#42E8E0"/>
<path opacity="0.8" d="M176.797 29.831C177.409 29.831 177.905 29.3475 177.905 28.7511C177.905 28.1547 177.409 27.6713 176.797 27.6713C176.184 27.6713 175.688 28.1547 175.688 28.7511C175.688 29.3475 176.184 29.831 176.797 29.831Z" fill="#42E8E0"/>
<path opacity="0.8" d="M179.305 26.1367C179.627 26.1367 179.888 25.8823 179.888 25.5684C179.888 25.2545 179.627 25 179.305 25C178.983 25 178.722 25.2545 178.722 25.5684C178.722 25.8823 178.983 26.1367 179.305 26.1367Z" fill="#42E8E0"/>
<g style="mix-blend-mode:color-burn" opacity="0.4">
<path d="M132.198 108.84C133.202 108.84 134.015 108.026 134.015 107.021C134.015 106.017 133.202 105.203 132.198 105.203C131.194 105.203 130.38 106.017 130.38 107.021C130.38 108.026 131.194 108.84 132.198 108.84Z" fill="#42E8E0"/>
</g>
<g style="mix-blend-mode:color-burn" opacity="0.4">
<path d="M100.618 26.0876C101.622 26.0876 102.435 25.2733 102.435 24.2688C102.435 23.2644 101.622 22.4501 100.618 22.4501C99.614 22.4501 98.8003 23.2644 98.8003 24.2688C98.8003 25.2733 99.614 26.0876 100.618 26.0876Z" fill="#42E8E0"/>
</g>
<g style="mix-blend-mode:color-burn" opacity="0.4">
<path d="M103.287 88.7773C104.762 88.7773 105.957 87.5813 105.957 86.106C105.957 84.6307 104.762 83.4347 103.287 83.4347C101.813 83.4347 100.618 84.6307 100.618 86.106C100.618 87.5813 101.813 88.7773 103.287 88.7773Z" fill="#42E8E0"/>
</g>
<g style="mix-blend-mode:color-burn" opacity="0.8">
<path d="M99.1978 133.564C100.233 133.564 101.072 132.724 101.072 131.688C101.072 130.652 100.233 129.813 99.1978 129.813C98.1627 129.813 97.3235 130.652 97.3235 131.688C97.3235 132.724 98.1627 133.564 99.1978 133.564Z" fill="#42E8E0"/>
</g>
<g style="mix-blend-mode:color-burn" opacity="0.8">
<path d="M85.8967 48.7972C87.4965 48.7972 88.7935 47.4995 88.7935 45.8986C88.7935 44.2978 87.4965 43 85.8967 43C84.2969 43 83 44.2978 83 45.8986C83 47.4995 84.2969 48.7972 85.8967 48.7972Z" fill="#42E8E0"/>
</g>
<g style="mix-blend-mode:color-burn" opacity="0.8">
<path d="M88.9312 54.8648C89.9977 54.8648 90.8623 53.9997 90.8623 52.9324C90.8623 51.8652 89.9977 51 88.9312 51C87.8646 51 87 51.8652 87 52.9324C87 53.9997 87.8646 54.8648 88.9312 54.8648Z" fill="#42E8E0"/>
</g>
<g opacity="0.1">
<path opacity="0.1" d="M220.468 90.2243L227.852 96.7604L229.84 87.0983L222.399 80.5622L213.028 83.6882L211.096 93.3502L220.468 90.2243Z" fill="#42E8E0"/>
<path opacity="0.1" d="M222.399 80.5622L229.84 87.0983L227.852 96.7604L220.468 90.2243L222.399 80.5622Z" fill="#42E8E0"/>
<path opacity="0.1" d="M213.028 83.6882L222.399 80.5622L220.468 90.2243L211.096 93.3503L213.028 83.6882Z" fill="#2FD3C7"/>
<path opacity="0.1" d="M220.468 90.2243L227.852 96.7604L218.48 99.9432L211.096 93.3503L220.468 90.2243Z" fill="#42E8E0"/>
<path opacity="0.1" d="M220.468 90.2243L227.852 96.7604L227.966 96.3625L220.525 89.8264L211.153 92.9524L211.096 93.3502L220.468 90.2243Z" fill="white"/>
</g>
<path opacity="0.4" d="M222.002 86.4731L213.425 81.5284L222.002 76.5837L230.521 81.5284L222.002 86.4731Z" fill="#D8D8D8"/>
<path opacity="0.4" d="M222.002 95.0553C216.379 95.0553 210.699 93.8049 206.439 91.361C202.236 88.9739 199.964 85.7343 199.964 82.3241C199.964 78.914 202.293 75.6744 206.439 73.2873C215.016 68.3426 228.988 68.3426 237.565 73.2873C241.768 75.6744 244.04 78.914 244.04 82.3241C244.04 85.7343 241.711 88.9739 237.565 91.361C233.248 93.8049 227.625 95.0553 222.002 95.0553ZM222.002 69.7066C216.379 69.7066 210.812 70.957 206.496 73.4009C202.349 75.788 200.134 78.914 200.134 82.2673C200.134 85.6206 202.406 88.8034 206.496 91.1905C215.016 96.1352 228.931 96.1352 237.451 91.1905L237.508 91.2473L237.451 91.1905C241.597 88.8034 243.812 85.6774 243.812 82.2673C243.812 78.914 241.54 75.7312 237.451 73.3441C233.191 70.9002 227.568 69.7066 222.002 69.7066Z" fill="#42E8E0"/>
<path opacity="0.2" d="M222.002 98.4655C214.845 98.4655 207.688 96.8741 202.236 93.7481C196.954 90.679 194 86.5868 194 82.2673C194 77.9478 196.897 73.8556 202.236 70.7865C213.141 64.4777 230.862 64.4777 241.768 70.7865C247.05 73.8556 250.003 77.9478 250.003 82.2673C250.003 86.5868 247.107 90.679 241.768 93.7481C236.315 96.8741 229.158 98.4655 222.002 98.4655ZM222.002 66.2396C214.902 66.2396 207.745 67.831 202.349 70.957C197.124 73.9693 194.227 78.0046 194.227 82.2673C194.227 86.53 197.124 90.5653 202.349 93.5776C213.198 99.8295 230.862 99.8295 241.711 93.5776L241.768 93.6344L241.711 93.5776C246.936 90.5653 249.833 86.53 249.833 82.2673C249.833 78.0046 246.936 73.9693 241.711 70.957C236.201 67.831 229.102 66.2396 222.002 66.2396Z" fill="#42E8E0"/>
<path d="M222.002 92.3272C217.571 92.3272 213.084 91.361 209.733 89.3718C206.439 87.4962 204.621 84.9386 204.621 82.2105C204.621 79.4824 206.439 76.9816 209.733 75.0492C216.492 71.1275 227.511 71.1275 234.27 75.0492C237.565 76.9248 239.382 79.4824 239.382 82.2105C239.382 84.9386 237.565 87.4394 234.27 89.3718L234.213 89.3149L234.27 89.3718C230.862 91.361 226.432 92.3272 222.002 92.3272ZM221.945 72.3779C217.515 72.3779 213.141 73.3441 209.733 75.2765C206.496 77.1521 204.735 79.6529 204.735 82.2673C204.735 84.8817 206.496 87.3825 209.733 89.2581C216.435 93.1229 227.398 93.1229 234.1 89.2581C237.337 87.3825 239.098 84.8817 239.098 82.2673C239.098 79.6529 237.337 77.1521 234.1 75.2765C230.806 73.3441 226.375 72.3779 221.945 72.3779Z" fill="#42E8E0"/>
<path d="M220.979 72.8326L220.014 63L212.005 68.7404L212.971 78.573L221.945 82.6651L230.01 76.8679L220.979 72.8326Z" fill="#42E8E0"/>
<path d="M212.971 78.573L212.005 68.7404L220.014 63L220.979 72.8326L212.971 78.573Z" fill="#42E8E0"/>
<path d="M221.945 82.6651L212.971 78.573L220.979 72.8326L230.01 76.8679L221.945 82.6651Z" fill="#2FD3C7"/>
<path d="M220.979 72.8326L220.014 63L228.988 67.0353L230.01 76.8679L220.979 72.8326Z" fill="#42E8E0"/>
<path d="M220.979 72.8326L220.014 63L219.673 63.2273L220.638 73.0599L229.669 77.1521L230.01 76.8679L220.979 72.8326Z" fill="white"/>
<path opacity="0.4" d="M216.89 80.3917H225.126L221.945 82.6651L216.89 80.3917Z" fill="#03002D"/>
<defs>
<linearGradient id="paint0_linear_1991_17822" x1="84.1148" y1="144.274" x2="140.66" y2="111.641" gradientUnits="userSpaceOnUse">
<stop stop-color="#BCBEFF"/>
<stop offset="0.3076" stop-color="#9297EE"/>
<stop offset="0.5949" stop-color="#727AE2"/>
<stop offset="0.8355" stop-color="#5E67DA"/>
<stop offset="1" stop-color="#5761D7"/>
</linearGradient>
<linearGradient id="paint1_linear_1991_17822" x1="140.145" y1="105.031" x2="82.5209" y2="130.547" gradientUnits="userSpaceOnUse">
<stop stop-color="#5761D7"/>
<stop offset="0.1645" stop-color="#5E67DA"/>
<stop offset="0.4051" stop-color="#727AE2"/>
<stop offset="0.6924" stop-color="#9297EE"/>
<stop offset="1" stop-color="#BCBEFF"/>
</linearGradient>
<linearGradient id="paint2_linear_1991_17822" x1="102.307" y1="139.578" x2="122.237" y2="104.931" gradientUnits="userSpaceOnUse">
<stop stop-color="#42E8E0"/>
<stop offset="0.1507" stop-color="#43E3E0"/>
<stop offset="0.3285" stop-color="#45D5DF"/>
<stop offset="0.5199" stop-color="#49BDDD"/>
<stop offset="0.7209" stop-color="#4E9CDB"/>
<stop offset="0.9274" stop-color="#5472D8"/>
<stop offset="1" stop-color="#5761D7"/>
</linearGradient>
<linearGradient id="paint3_linear_1991_17822" x1="102.259" y1="141.556" x2="122.189" y2="106.908" gradientUnits="userSpaceOnUse">
<stop stop-color="#42E8E0"/>
<stop offset="1" stop-color="white" stop-opacity="0"/>
</linearGradient>
<radialGradient id="paint4_radial_1991_17822" cx="0" cy="0" r="1" gradientUnits="userSpaceOnUse" gradientTransform="translate(129.476 105.082) scale(63.9646 35.4091)">
<stop stop-color="#42E8E0"/>
<stop offset="0.541667" stop-color="#8CD7D3" stop-opacity="0.6025"/>
<stop offset="0.828125" stop-color="#C9C9C9" stop-opacity="0.28"/>
<stop offset="1" stop-color="white" stop-opacity="0.28"/>
</radialGradient>
<radialGradient id="paint5_radial_1991_17822" cx="0" cy="0" r="1" gradientUnits="userSpaceOnUse" gradientTransform="translate(129.48 42.6993) scale(52.5108 29.0837)">
<stop stop-color="#42E8E0"/>
<stop offset="0.885417" stop-color="#87F0EB" stop-opacity="0.2"/>
<stop offset="1" stop-color="#87F0EB" stop-opacity="0"/>
</radialGradient>
<linearGradient id="paint6_linear_1991_17822" x1="101.381" y1="116.932" x2="157.926" y2="84.2995" gradientUnits="userSpaceOnUse">
<stop stop-color="#BCBEFF"/>
<stop offset="0.3076" stop-color="#9297EE"/>
<stop offset="0.5949" stop-color="#727AE2"/>
<stop offset="0.8355" stop-color="#5E67DA"/>
<stop offset="1" stop-color="#5761D7"/>
</linearGradient>
<linearGradient id="paint7_linear_1991_17822" x1="157.411" y1="77.6897" x2="99.7868" y2="103.205" gradientUnits="userSpaceOnUse">
<stop stop-color="#5761D7"/>
<stop offset="0.1645" stop-color="#5E67DA"/>
<stop offset="0.4051" stop-color="#727AE2"/>
<stop offset="0.6924" stop-color="#9297EE"/>
<stop offset="1" stop-color="#BCBEFF"/>
</linearGradient>
<linearGradient id="paint8_linear_1991_17822" x1="119.573" y1="112.237" x2="139.503" y2="77.5889" gradientUnits="userSpaceOnUse">
<stop stop-color="#42E8E0"/>
<stop offset="0.1507" stop-color="#43E3E0"/>
<stop offset="0.3285" stop-color="#45D5DF"/>
<stop offset="0.5199" stop-color="#49BDDD"/>
<stop offset="0.7209" stop-color="#4E9CDB"/>
<stop offset="0.9274" stop-color="#5472D8"/>
<stop offset="1" stop-color="#5761D7"/>
</linearGradient>
<linearGradient id="paint9_linear_1991_17822" x1="119.525" y1="114.214" x2="139.455" y2="79.5666" gradientUnits="userSpaceOnUse">
<stop stop-color="#42E8E0"/>
<stop offset="1" stop-color="white" stop-opacity="0"/>
</linearGradient>
<linearGradient id="paint10_linear_1991_17822" x1="93.0744" y1="80.2614" x2="167.011" y2="80.2614" gradientUnits="userSpaceOnUse">
<stop stop-color="#42E8E0"/>
<stop offset="1" stop-color="white" stop-opacity="0"/>
</linearGradient>
<linearGradient id="paint11_linear_1991_17822" x1="179.788" y1="93.98" x2="93.0718" y2="80.2785" gradientUnits="userSpaceOnUse">
<stop stop-color="#C0BFF6"/>
<stop offset="1" stop-color="white" stop-opacity="0"/>
</linearGradient>
<linearGradient id="paint12_linear_1991_17822" x1="101.381" y1="64.9298" x2="157.926" y2="32.2971" gradientUnits="userSpaceOnUse">
<stop stop-color="#BCBEFF"/>
<stop offset="0.3076" stop-color="#9297EE"/>
<stop offset="0.5949" stop-color="#727AE2"/>
<stop offset="0.8355" stop-color="#5E67DA"/>
<stop offset="1" stop-color="#5761D7"/>
</linearGradient>
<linearGradient id="paint13_linear_1991_17822" x1="157.411" y1="25.6873" x2="99.7868" y2="51.203" gradientUnits="userSpaceOnUse">
<stop stop-color="#5761D7"/>
<stop offset="0.1645" stop-color="#5E67DA"/>
<stop offset="0.4051" stop-color="#727AE2"/>
<stop offset="0.6924" stop-color="#9297EE"/>
<stop offset="1" stop-color="#BCBEFF"/>
</linearGradient>
<linearGradient id="paint14_linear_1991_17822" x1="119.573" y1="60.2342" x2="139.504" y2="25.5864" gradientUnits="userSpaceOnUse">
<stop stop-color="#42E8E0"/>
<stop offset="0.1507" stop-color="#43E3E0"/>
<stop offset="0.3285" stop-color="#45D5DF"/>
<stop offset="0.5199" stop-color="#49BDDD"/>
<stop offset="0.7209" stop-color="#4E9CDB"/>
<stop offset="0.9274" stop-color="#5472D8"/>
<stop offset="1" stop-color="#5761D7"/>
</linearGradient>
<linearGradient id="paint15_linear_1991_17822" x1="119.525" y1="62.212" x2="139.455" y2="27.5642" gradientUnits="userSpaceOnUse">
<stop stop-color="#42E8E0"/>
<stop offset="1" stop-color="white" stop-opacity="0"/>
</linearGradient>
</defs>
</svg>
