<svg width="193" height="152" viewBox="0 0 193 152" fill="none" xmlns="http://www.w3.org/2000/svg">
<g filter="url(#filter0_d_833_11884)">
<path d="M150.241 11H46.226C41.4389 11 37.5581 14.8808 37.5581 19.6679V123.683C37.5581 128.47 41.4389 132.351 46.226 132.351H150.241C155.028 132.351 158.909 128.47 158.909 123.683V19.6679C158.909 14.8808 155.028 11 150.241 11Z" fill="#5B7DF3"/>
<g filter="url(#filter1_d_833_11884)">
<path d="M56.6274 57.9069H173.645C174.767 57.9069 175.844 58.353 176.638 59.147C177.432 59.941 177.878 61.0179 177.878 62.1409V83.8107C177.878 84.9336 177.432 86.0105 176.638 86.8046C175.844 87.5986 174.767 88.0447 173.645 88.0447H56.6274C55.5045 88.0447 54.4276 87.5986 53.6336 86.8046C52.8395 86.0105 52.3935 84.9336 52.3935 83.8107V62.1409C52.3935 61.0179 52.8395 59.941 53.6336 59.147C54.4276 58.353 55.5045 57.9069 56.6274 57.9069Z" fill="#2A3143" stroke="#BCC3D6" stroke-width="0.2"/>
<path d="M55.7539 60.9774H80.1695C80.2384 60.9774 80.3314 61.0339 80.436 61.2064C80.5369 61.3728 80.6314 61.6203 80.7121 61.935C80.8731 62.5628 80.9738 63.4356 80.9738 64.4034V82.0331C80.9738 83.0009 80.8731 83.8736 80.7121 84.5014C80.6314 84.8161 80.5369 85.0636 80.436 85.2301C80.3314 85.4025 80.2384 85.459 80.1695 85.459H55.7539C55.685 85.459 55.592 85.4025 55.4874 85.2301C55.3865 85.0636 55.292 84.8161 55.2113 84.5014C55.0503 83.8736 54.9496 83.0009 54.9496 82.0331V64.4034C54.9496 63.4356 55.0503 62.5628 55.2113 61.935C55.292 61.6203 55.3865 61.3728 55.4874 61.2064C55.592 61.0339 55.685 60.9774 55.7539 60.9774Z" fill="white" stroke="#BCC3D6" stroke-width="0.2"/>
</g>
<path d="M98.2337 64.8412H120.77C122.151 64.8412 123.271 65.9607 123.271 67.3416C123.271 68.7225 122.151 69.842 120.77 69.842H98.2337C96.8528 69.842 95.7333 68.7225 95.7333 67.3416C95.7333 65.9607 96.8528 64.8412 98.2337 64.8412Z" fill="white" stroke="#BCC3D6" stroke-width="0.2"/>
<path d="M98.2337 76.1095H136.373C137.754 76.1095 138.873 77.229 138.873 78.6099C138.873 79.9908 137.754 81.1103 136.373 81.1103H98.2337C96.8528 81.1103 95.7333 79.9908 95.7333 78.6099C95.7333 77.229 96.8528 76.1095 98.2337 76.1095Z" fill="white" stroke="#BCC3D6" stroke-width="0.2"/>
<g filter="url(#filter2_d_833_11884)">
<path d="M19.3555 95.1789H19.4555H136.373C137.495 95.1789 138.572 95.6249 139.366 96.419C140.16 97.213 140.607 98.2899 140.607 99.4128V121.083C140.607 122.206 140.16 123.283 139.366 124.077C138.572 124.871 137.495 125.317 136.373 125.317H19.3555C18.2325 125.317 17.1556 124.871 16.3616 124.077C15.5676 123.283 15.1215 122.206 15.1215 121.083V99.4128C15.1215 98.2899 15.5676 97.213 16.3616 96.419C17.1556 95.6249 18.2325 95.1789 19.3555 95.1789Z" fill="#2A3143" stroke="#BCC3D6" stroke-width="0.2"/>
<path d="M18.7319 98.5138H43.1475C43.2164 98.5138 43.3094 98.5703 43.414 98.7428C43.5149 98.9092 43.6094 99.1567 43.6901 99.4714C43.8511 100.099 43.9518 100.972 43.9518 101.94V119.569C43.9518 120.537 43.8511 121.41 43.6901 122.038C43.6094 122.352 43.5149 122.6 43.414 122.766C43.3094 122.939 43.2164 122.995 43.1475 122.995H18.7319C18.663 122.995 18.57 122.939 18.4654 122.766C18.3645 122.6 18.2701 122.352 18.1894 122.038C18.0283 121.41 17.9276 120.537 17.9276 119.569V101.94C17.9276 100.972 18.0283 100.099 18.1894 99.4714C18.2701 99.1567 18.3645 98.9092 18.4654 98.7428C18.57 98.5703 18.663 98.5138 18.7319 98.5138Z" fill="white" stroke="#BCC3D6" stroke-width="0.2"/>
</g>
<path d="M60.9617 102.113H83.4983C84.8793 102.113 85.9987 103.233 85.9987 104.614C85.9987 105.994 84.8793 107.114 83.4983 107.114H60.9617C59.5808 107.114 58.4613 105.994 58.4613 104.614C58.4613 103.233 59.5808 102.113 60.9617 102.113Z" fill="white" stroke="#BCC3D6" stroke-width="0.2"/>
<path d="M60.9617 113.381H99.1006C100.482 113.381 101.601 114.501 101.601 115.882C101.601 117.263 100.482 118.382 99.1006 118.382H60.9617C59.5808 118.382 58.4613 117.263 58.4613 115.882C58.4613 114.501 59.5808 113.381 60.9617 113.381Z" fill="white" stroke="#BCC3D6" stroke-width="0.2"/>
<g filter="url(#filter3_d_833_11884)">
<path d="M19.3555 20.6347H136.373C138.711 20.6347 140.607 22.5303 140.607 24.8686V46.5385C140.607 48.8768 138.711 50.7724 136.373 50.7724H19.3555C17.0171 50.7724 15.1215 48.8768 15.1215 46.5385V24.8686C15.1215 22.5303 17.0171 20.6347 19.3555 20.6347Z" fill="#2A3143" stroke="#BCC3D6" stroke-width="0.2"/>
<path d="M18.7319 23.955H43.1475C43.2164 23.955 43.3094 24.0115 43.414 24.1839C43.5149 24.3504 43.6094 24.5979 43.6901 24.9125C43.8511 25.5404 43.9518 26.4131 43.9518 27.3809V45.0106C43.9518 45.9784 43.8511 46.8512 43.6901 47.479C43.6094 47.7937 43.5149 48.0412 43.414 48.2076C43.3094 48.3801 43.2164 48.4366 43.1475 48.4366H18.7319C18.663 48.4366 18.57 48.3801 18.4654 48.2076C18.3645 48.0412 18.2701 47.7937 18.1894 47.479C18.0283 46.8512 17.9276 45.9784 17.9276 45.0106V27.3809C17.9276 26.4131 18.0283 25.5404 18.1894 24.9125C18.2701 24.5979 18.3645 24.3504 18.4654 24.1839C18.57 24.0115 18.663 23.955 18.7319 23.955Z" fill="white" stroke="#BCC3D6" stroke-width="0.2"/>
</g>
<path d="M59.2278 27.569H81.7644C83.1454 27.569 84.2648 28.6885 84.2648 30.0694C84.2648 31.4503 83.1454 32.5698 81.7644 32.5698H59.2278C57.8469 32.5698 56.7274 31.4503 56.7274 30.0694C56.7274 28.6885 57.8469 27.569 59.2278 27.569Z" fill="white" stroke="#BCC3D6" stroke-width="0.2"/>
<path d="M59.2278 38.8373H97.3667C98.7476 38.8373 99.8671 39.9568 99.8671 41.3377C99.8671 42.7186 98.7476 43.8381 97.3667 43.8381H59.2278C57.8469 43.8381 56.7274 42.7186 56.7274 41.3377C56.7274 39.9568 57.8469 38.8373 59.2278 38.8373Z" fill="white" stroke="#BCC3D6" stroke-width="0.2"/>
</g>
<defs>
<filter id="filter0_d_833_11884" x="0.0214844" y="0" width="192.957" height="151.351" filterUnits="userSpaceOnUse" color-interpolation-filters="sRGB">
<feFlood flood-opacity="0" result="BackgroundImageFix"/>
<feColorMatrix in="SourceAlpha" type="matrix" values="0 0 0 0 0 0 0 0 0 0 0 0 0 0 0 0 0 0 127 0" result="hardAlpha"/>
<feOffset dy="4"/>
<feGaussianBlur stdDeviation="7.5"/>
<feComposite in2="hardAlpha" operator="out"/>
<feColorMatrix type="matrix" values="0 0 0 0 0.09 0 0 0 0 0.0966667 0 0 0 0 0.15 0 0 0 0.6 0"/>
<feBlend mode="normal" in2="BackgroundImageFix" result="effect1_dropShadow_833_11884"/>
<feBlend mode="normal" in="SourceGraphic" in2="effect1_dropShadow_833_11884" result="shape"/>
</filter>
<filter id="filter1_d_833_11884" x="37.2935" y="46.8069" width="155.685" height="60.3376" filterUnits="userSpaceOnUse" color-interpolation-filters="sRGB">
<feFlood flood-opacity="0" result="BackgroundImageFix"/>
<feColorMatrix in="SourceAlpha" type="matrix" values="0 0 0 0 0 0 0 0 0 0 0 0 0 0 0 0 0 0 127 0" result="hardAlpha"/>
<feOffset dy="4"/>
<feGaussianBlur stdDeviation="7.5"/>
<feComposite in2="hardAlpha" operator="out"/>
<feColorMatrix type="matrix" values="0 0 0 0 0.197708 0 0 0 0 0.22471 0 0 0 0 0.325 0 0 0 0.71 0"/>
<feBlend mode="normal" in2="BackgroundImageFix" result="effect1_dropShadow_833_11884"/>
<feBlend mode="normal" in="SourceGraphic" in2="effect1_dropShadow_833_11884" result="shape"/>
</filter>
<filter id="filter2_d_833_11884" x="0.0214844" y="84.0789" width="155.685" height="60.3376" filterUnits="userSpaceOnUse" color-interpolation-filters="sRGB">
<feFlood flood-opacity="0" result="BackgroundImageFix"/>
<feColorMatrix in="SourceAlpha" type="matrix" values="0 0 0 0 0 0 0 0 0 0 0 0 0 0 0 0 0 0 127 0" result="hardAlpha"/>
<feOffset dy="4"/>
<feGaussianBlur stdDeviation="7.5"/>
<feComposite in2="hardAlpha" operator="out"/>
<feColorMatrix type="matrix" values="0 0 0 0 0.197708 0 0 0 0 0.22471 0 0 0 0 0.325 0 0 0 0.71 0"/>
<feBlend mode="normal" in2="BackgroundImageFix" result="effect1_dropShadow_833_11884"/>
<feBlend mode="normal" in="SourceGraphic" in2="effect1_dropShadow_833_11884" result="shape"/>
</filter>
<filter id="filter3_d_833_11884" x="0.0214844" y="9.53467" width="155.685" height="60.3376" filterUnits="userSpaceOnUse" color-interpolation-filters="sRGB">
<feFlood flood-opacity="0" result="BackgroundImageFix"/>
<feColorMatrix in="SourceAlpha" type="matrix" values="0 0 0 0 0 0 0 0 0 0 0 0 0 0 0 0 0 0 127 0" result="hardAlpha"/>
<feOffset dy="4"/>
<feGaussianBlur stdDeviation="7.5"/>
<feComposite in2="hardAlpha" operator="out"/>
<feColorMatrix type="matrix" values="0 0 0 0 0.197708 0 0 0 0 0.22471 0 0 0 0 0.325 0 0 0 0.71 0"/>
<feBlend mode="normal" in2="BackgroundImageFix" result="effect1_dropShadow_833_11884"/>
<feBlend mode="normal" in="SourceGraphic" in2="effect1_dropShadow_833_11884" result="shape"/>
</filter>
</defs>
</svg>
