<svg width="120" height="157" viewBox="0 0 120 157" fill="none" xmlns="http://www.w3.org/2000/svg">
<path fill-rule="evenodd" clip-rule="evenodd" d="M87.2194 61.976L71.8086 70.8532V73.2493L85.3821 65.4309V65.2131L87.2194 64.1543L102.63 55.277V38.5332L87.2194 29.656L71.8086 38.5332V39.7034L87.2194 30.8262V33.2223L71.8086 42.0996V44.4957L87.2194 35.6184V38.0146L71.8086 46.8919V49.288L87.2194 40.4107V42.8069L71.8086 51.6841V54.0802L87.2194 45.203V47.5991L71.8086 56.4764V58.8725L87.2194 49.9953V52.3914L71.8086 61.2687V63.6648L87.2194 54.7876V57.1837L71.8086 66.061V68.4571L87.2194 59.5799V61.976ZM85.3821 86.9961L76.8567 91.9068H81.0162L85.3821 89.3916V86.9961ZM85.3821 82.2032L71.8086 90.0223V91.9068H72.6965L85.3814 84.5994V82.2032H85.3821ZM85.3821 77.4109L71.8086 85.23V87.6262L85.3821 79.8071V77.4109ZM85.3821 72.6186L71.8086 80.4378V82.8339L85.3821 75.0148V72.6186ZM85.3821 67.8264L71.8086 75.6455V78.0416L85.3821 70.2225V67.8264Z" fill="#156A96"/>
<path fill-rule="evenodd" clip-rule="evenodd" d="M33.4016 61.8284L31.3821 62.991L33.4016 64.1549L34.3199 64.6836L35.2389 65.213V66.2667V91.9073H48.8117V38.5331L33.4016 29.6559L17.9907 38.5331V39.5552L33.4016 30.6779V33.0741L17.9907 41.9513V44.3475L33.4016 35.4702V37.867L17.9907 46.7436V49.1397L33.4016 40.2632V42.6593L17.9907 51.5358V53.932L33.4016 45.0547V47.4515L18.9034 55.8025L20.9831 57.0006L33.4016 49.8477V52.2438L23.0629 58.1993L25.1427 59.3974L33.4016 54.64V57.0361L27.2225 60.5948L29.3023 61.7936L33.4016 59.4323V61.8284Z" fill="#156A96"/>
<path fill-rule="evenodd" clip-rule="evenodd" d="M16.1497 86.1428L6.14236 91.9071H10.3019L16.1497 88.5389V91.9071H31.5637V67.3194L16.1497 58.4403L0.742676 67.3156V68.66L16.1497 59.7847V62.1808L0.742676 71.0561V73.4523L16.1497 64.577V66.9731L0.742676 75.8484V78.2446L16.1497 69.3692V71.7653L0.742676 80.6407V83.0368L16.1497 74.1621V76.5583L0.742676 85.4329V87.8291L16.1497 78.9544V81.3499L0.742676 90.2253V91.9071H1.98281L16.1497 83.746V86.1428Z" fill="#156A96"/>
<path fill-rule="evenodd" clip-rule="evenodd" d="M104.35 86.6616L94.343 92.4258H98.5026L104.35 89.0577V92.4258H119.764V67.8382L104.35 58.9591L88.9434 67.8344V69.1788L104.35 60.3035V62.6996L88.9434 71.5749V73.9711L104.35 65.0958V67.4918L88.9434 76.3672V78.7634L104.35 69.888V72.2841L88.9434 81.1594V83.5556L104.35 74.6809V77.0771L88.9434 85.9517V88.3479L104.35 79.4732V81.8687L88.9434 90.7441V92.4258H90.1835L104.35 84.2648V86.6616Z" fill="#156A96"/>
<path d="M33.4932 104.744L60.3115 157L87.1348 104.744H33.4932Z" fill="#0A8DD0"/>
<path d="M81.3039 28.7651L69.4278 35.6823L68.6527 36.1291V37.0184V87.4254H60.1412V87.3805V0L81.3039 12.1887V28.7651Z" fill="#156A96"/>
<mask id="mask0_1268_14063" style="mask-type:alpha" maskUnits="userSpaceOnUse" x="39" y="0" width="22" height="88">
<path d="M39.076 28.7651L50.952 35.6823L51.7272 36.1291V37.0184V87.4254H60.2387V87.3805V0L39.076 12.1887V28.7651Z" fill="#156A96"/>
</mask>
<g mask="url(#mask0_1268_14063)">
<path fill-rule="evenodd" clip-rule="evenodd" d="M-37.8507 40.4148L-38.4565 39.3505L96.6058 -37.1865L97.2117 -36.1222L-37.8507 40.4148ZM-35.4271 44.6723L-36.6389 42.5436L98.4234 -33.9934L99.6352 -31.8647L-35.4271 44.6723ZM-33.0036 48.9297L-34.2154 46.801L100.847 -29.736L102.059 -27.6073L-33.0036 48.9297ZM-30.5801 53.1872L-31.7919 51.0584L103.27 -25.4786L104.482 -23.3498L-30.5801 53.1872ZM-28.1566 57.4446L-29.3683 55.3159L105.694 -21.2211L106.906 -19.0924L-28.1566 57.4446ZM-25.733 61.702L-26.9448 59.5733L108.118 -16.9637L109.329 -14.8349L-25.733 61.702ZM-23.3095 65.9595L-24.5213 63.8308L110.541 -12.7062L111.753 -10.5775L-23.3095 65.9595ZM-20.886 70.2169L-22.0978 68.0882L112.965 -8.44878L114.176 -6.32006L-20.886 70.2169ZM-18.4625 74.4744L-19.6742 72.3457L115.388 -4.19134L116.6 -2.06262L-18.4625 74.4744ZM-16.039 78.7318L-17.2507 76.6031L117.812 0.0661049L119.023 2.19482L-16.039 78.7318ZM-13.6154 82.9893L-14.8272 80.8605L120.235 4.32354L121.447 6.45226L-13.6154 82.9893ZM-11.1919 87.2467L-12.4037 85.118L122.659 8.58099L123.87 10.7097L-11.1919 87.2467ZM-8.76839 91.5042L-9.98015 89.3754L125.082 12.8384L126.294 14.9671L-8.76839 91.5042ZM-6.34487 95.7616L-7.55663 93.6329L127.506 17.0959L128.717 19.2246L-6.34487 95.7616ZM-3.92134 100.019L-5.13311 97.8903L129.929 21.3533L131.141 23.482L-3.92134 100.019ZM-1.49782 104.276L-2.70958 102.148L132.353 25.6108L133.564 27.7395L-1.49782 104.276ZM0.925701 108.534L-0.28606 106.405L134.776 29.8682L135.988 31.9969L0.925701 108.534ZM3.34922 112.791L2.13746 110.663L137.2 34.1256L138.412 36.2544L3.34922 112.791ZM5.77275 117.049L4.56099 114.92L139.623 38.3831L140.835 40.5118L5.77275 117.049ZM7.5904 120.242L6.98451 119.178L142.047 42.6405L142.653 43.7049L7.5904 120.242Z" fill="#156A96"/>
</g>
<path d="M33.4932 104.744L60.3115 91.7312L87.1348 104.744H33.4932Z" fill="#27C5F5"/>
<path d="M33.4932 104.744L60.3116 157L0.747559 91.7312L33.4932 104.744Z" fill="#1F57A4"/>
<path d="M87.135 104.744L60.3179 157L119.883 91.7312L87.135 104.744Z" fill="#2565BC"/>
<path d="M74.1538 82.7599L119.883 91.7312L87.132 104.744L74.1538 82.7599Z" fill="#1F57A4"/>
<path d="M46.4727 82.7599L0.742676 91.7312L33.4932 104.744L46.4727 82.7599Z" fill="#1B165A"/>
<path opacity="0.8" d="M46.4771 82.7601L60.311 26.4587L74.1537 82.7601H46.4771Z" fill="#27C5F5"/>
<path d="M46.4771 82.7598L60.311 91.7311L74.1537 82.7598H46.4771Z" fill="#0A8DD0"/>
<path opacity="0.8" d="M46.4771 82.7601L60.3111 26.4587L0.74707 91.7314L46.4771 82.7601Z" fill="#0A8DD0"/>
<path opacity="0.7" d="M74.1533 82.7601L60.3169 26.4587L119.882 91.7314L74.1533 82.7601Z" fill="#8BDAFF"/>
<path d="M60.3115 91.7311L87.1348 104.744L74.1505 82.7598L60.3115 91.7311Z" fill="#1B165A"/>
<path d="M60.3113 91.7311L33.4893 104.744L46.4773 82.7598L60.3113 91.7311Z" fill="#1F57A4"/>
<path opacity="0.5" d="M119.883 91.7315L74.1504 82.7602L100.429 70.4131L119.883 91.7315Z" fill="#27C5F5"/>
<path opacity="0.5" d="M0.747559 91.7315L46.4813 82.7602L20.2013 70.4131L0.747559 91.7315Z" fill="#1F57A4"/>
</svg>
