<svg width="8" height="9" viewBox="0 0 8 9" fill="none" xmlns="http://www.w3.org/2000/svg">
<path d="M2.29346 4.93884L3.94099 8.1495L5.58986 4.93884H2.29346Z" fill="#0A8DD0"/>
<path d="M2.29346 4.93872L3.94099 4.13953L5.58986 4.93872H2.29346Z" fill="#27C5F5"/>
<path d="M2.29328 4.93872L3.94081 8.14938L0.279785 4.13953L2.29328 4.93872Z" fill="#1F57A4"/>
<path d="M5.58935 4.93872L3.94092 8.14938L7.60216 4.13953L5.58935 4.93872Z" fill="#1B165A"/>
<path d="M4.79199 3.58789L7.60223 4.13963L5.58896 4.93883L4.79199 3.58789Z" fill="#1F57A4"/>
<path d="M3.09097 3.58789L0.280273 4.13963L2.29377 4.93883L3.09097 3.58789Z" fill="#1B165A"/>
<path d="M3.09082 3.58793L3.94116 0.12915L4.79261 3.58793H3.09082Z" fill="#27C5F5"/>
<path d="M3.09082 3.58789L3.94116 4.13963L4.79261 3.58789H3.09082Z" fill="#0A8DD0"/>
<path d="M3.09145 3.58793L3.94179 0.12915L0.280762 4.13968L3.09145 3.58793Z" fill="#0A8DD0"/>
<path d="M4.79291 3.58793L3.94189 0.12915L7.60314 4.13968L4.79291 3.58793Z" fill="#BCE7FB"/>
<path d="M3.94141 4.13963L5.59028 4.93883L4.79241 3.58789L3.94141 4.13963Z" fill="#1B165A"/>
<path d="M3.94158 4.13963L2.29248 4.93883L3.09124 3.58789L3.94158 4.13963Z" fill="#1F57A4"/>
<path d="M7.60268 4.13966L4.79199 3.58792L6.40723 2.82922L7.60268 4.13966Z" fill="#27C5F5"/>
<path d="M0.279785 4.13966L3.09048 3.58792L1.47614 2.82922L0.279785 4.13966Z" fill="#1F57A4"/>
</svg>
