<svg width="34" height="44" viewBox="0 0 34 44" fill="none" xmlns="http://www.w3.org/2000/svg">
<path fill-rule="evenodd" clip-rule="evenodd" d="M24.7355 17.3691L20.4165 19.857V20.5285L24.2205 18.3374V18.2763L24.7355 17.9796L29.0544 15.4917V10.7992L24.7355 8.31128L20.4165 10.7992V11.1271L24.7355 8.63922V9.31076L20.4165 11.7987V12.4702L24.7355 9.98228V10.6538L20.4165 13.1417V13.8132L24.7355 11.3253V11.9969L20.4165 14.4848V15.1563L24.7355 12.6684V13.3399L20.4165 15.8278V16.4993L24.7355 14.0115V14.683L20.4165 17.1709V17.8424L24.7355 15.3545V16.026L20.4165 18.5139V19.1855L24.7355 16.6976V17.3691ZM24.2205 24.3811L21.8313 25.7574H22.997L24.2205 25.0525V24.3811ZM24.2205 23.0379L20.4165 25.2292V25.7574H20.6653L24.2204 23.7094V23.0379H24.2205ZM24.2205 21.6948L20.4165 23.8862V24.5577L24.2205 22.3664V21.6948ZM24.2205 20.3518L20.4165 22.5431V23.2146L24.2205 21.0233V20.3518ZM24.2205 19.0087L20.4165 21.2001V21.8716L24.2205 19.6802V19.0087Z" fill="#156A96"/>
<path fill-rule="evenodd" clip-rule="evenodd" d="M9.65294 17.3278L9.08697 17.6536L9.65294 17.9798L9.91031 18.128L10.1679 18.2763V18.5716V25.7575H13.9717V10.7992L9.65294 8.31128L5.33398 10.7992V11.0856L9.65294 8.59771V9.26925L5.33398 11.7571V12.4287L9.65294 9.94077V10.6125L5.33398 13.1002V13.7717L9.65294 11.284V11.9555L5.33398 14.4432V15.1148L9.65294 12.6269V13.2986L5.58975 15.639L6.17262 15.9748L9.65294 13.9701V14.6417L6.75549 16.3107L7.33837 16.6465L9.65294 15.3132V15.9847L7.92123 16.9821L8.5041 17.318L9.65294 16.6562V17.3278Z" fill="#156A96"/>
<path fill-rule="evenodd" clip-rule="evenodd" d="M4.81789 24.1421L2.01329 25.7575H3.17903L4.81789 24.8136V25.7575H9.13773V18.8667L4.81789 16.3783L0.5 18.8656V19.2424L4.81789 16.7551V17.4266L0.5 19.9139V20.5855L4.81789 18.0981V18.7696L0.5 21.257V21.9285L4.81789 19.4412V20.1127L0.5 22.6V23.2716L4.81789 20.7844V21.4559L0.5 23.9431V24.6146L4.81789 22.1275V22.7988L0.5 25.2862V25.7575H0.847553L4.81789 23.4703V24.1421Z" fill="#156A96"/>
<path fill-rule="evenodd" clip-rule="evenodd" d="M29.5366 24.2874L26.732 25.9029H27.8978L29.5366 24.959V25.9029H33.8565V19.0121L29.5366 16.5237L25.2188 19.011V19.3878L29.5366 16.9004V17.572L25.2188 20.0593V20.7309L29.5366 18.2435V18.915L25.2188 21.4024V22.0739L29.5366 19.5866V20.2581L25.2188 22.7454V23.417L29.5366 20.9298V21.6013L25.2188 24.0885V24.76L29.5366 22.2728V22.9442L25.2188 25.4316V25.9029H25.5663L29.5366 23.6157V24.2874Z" fill="#156A96"/>
<path d="M9.67871 29.355L17.1947 44.0001L24.712 29.355H9.67871Z" fill="#0A8DD0"/>
<path d="M23.0779 8.06157L19.7495 10.0001L19.5323 10.1253V10.3746V24.5014H17.1469V24.4888V0L23.0779 3.41595V8.06157Z" fill="#156A96"/>
<mask id="mask0_710_13319" style="mask-type:alpha" maskUnits="userSpaceOnUse" x="11" y="0" width="7" height="25">
<path d="M11.2429 8.06157L14.5713 10.0001L14.7885 10.1253V10.3746V24.5014H17.1739V24.4888V0L11.2429 3.41595V8.06157Z" fill="#156A96"/>
</mask>
<g mask="url(#mask0_710_13319)">
<path fill-rule="evenodd" clip-rule="evenodd" d="M-10.3156 11.3264L-10.4854 11.0281L27.3665 -10.4218L27.5363 -10.1235L-10.3156 11.3264ZM-9.63635 12.5196L-9.97595 11.923L27.8759 -9.52688L28.2155 -8.93029L-9.63635 12.5196ZM-8.95714 13.7127L-9.29674 13.1162L28.5551 -8.33371L28.8947 -7.73712L-8.95714 13.7127ZM-8.27794 14.9059L-8.61754 14.3093L29.2343 -7.14054L29.5739 -6.54395L-8.27794 14.9059ZM-7.59873 16.0991L-7.93834 15.5025L29.9135 -5.94737L30.2531 -5.35078L-7.59873 16.0991ZM-6.91953 17.2922L-7.25913 16.6957L30.5927 -4.7542L30.9323 -4.15762L-6.91953 17.2922ZM-6.24033 18.4854L-6.57993 17.8888L31.2719 -3.56103L31.6115 -2.96445L-6.24033 18.4854ZM-5.56112 19.6786L-5.90072 19.082L31.9511 -2.36786L32.2907 -1.77128L-5.56112 19.6786ZM-4.88192 20.8717L-5.22152 20.2752L32.6303 -1.17469L32.9699 -0.57811L-4.88192 20.8717ZM-4.20271 22.0649L-4.54232 21.4683L33.3095 0.0184746L33.6492 0.615059L-4.20271 22.0649ZM-3.52351 23.2581L-3.86311 22.6615L33.9888 1.21164L34.3284 1.80823L-3.52351 23.2581ZM-2.84431 24.4513L-3.18391 23.8547L34.668 2.40481L35.0076 3.0014L-2.84431 24.4513ZM-2.1651 25.6444L-2.50471 25.0478L35.3472 3.59798L35.6868 4.19456L-2.1651 25.6444ZM-1.4859 26.8376L-1.8255 26.241L36.0264 4.79115L36.366 5.38773L-1.4859 26.8376ZM-0.806697 28.0308L-1.1463 27.4342L36.7056 5.98432L37.0452 6.5809L-0.806697 28.0308ZM-0.127493 29.2239L-0.467094 28.6273L37.3848 7.17748L37.7244 7.77407L-0.127493 29.2239ZM0.551711 30.4171L0.21211 29.8205L38.064 8.37066L38.4036 8.96724L0.551711 30.4171ZM1.23092 31.6103L0.891314 31.0137L38.7432 9.56382L39.0828 10.1604L1.23092 31.6103ZM1.91012 32.8034L1.57052 32.2069L39.4224 10.757L39.762 11.3536L1.91012 32.8034ZM2.41953 33.6983L2.24972 33.4L40.1016 11.9502L40.2714 12.2485L2.41953 33.6983Z" fill="#156A96"/>
</g>
<path d="M9.67871 29.355L17.1947 25.7081L24.712 29.355H9.67871Z" fill="#27C5F5"/>
<path d="M9.67858 29.355L17.1946 44.0001L0.501465 25.7081L9.67858 29.355Z" fill="#1F57A4"/>
<path d="M24.7119 29.355L17.1963 44.0001L33.8897 25.7081L24.7119 29.355Z" fill="#2565BC"/>
<path d="M21.0742 23.1938L33.8899 25.7081L24.7114 29.3549L21.0742 23.1938Z" fill="#1F57A4"/>
<path d="M13.3161 23.1938L0.5 25.7081L9.6785 29.3549L13.3161 23.1938Z" fill="#1B165A"/>
<path opacity="0.8" d="M13.3174 23.1939L17.1944 7.41516L21.0739 23.1939H13.3174Z" fill="#27C5F5"/>
<path d="M13.3174 23.1938L17.1944 25.7081L21.0739 23.1938H13.3174Z" fill="#0A8DD0"/>
<path opacity="0.8" d="M13.3175 23.1939L17.1946 7.41516L0.501465 25.7081L13.3175 23.1939Z" fill="#0A8DD0"/>
<path opacity="0.7" d="M21.074 23.1939L17.1963 7.41516L33.8897 25.7081L21.074 23.1939Z" fill="#8BDAFF"/>
<path d="M17.1943 25.7081L24.7117 29.3549L21.0728 23.1938L17.1943 25.7081Z" fill="#1B165A"/>
<path d="M17.1947 25.7081L9.67773 29.3549L13.3177 23.1938L17.1947 25.7081Z" fill="#1F57A4"/>
<path opacity="0.5" d="M33.8895 25.7082L21.0728 23.194L28.4375 19.7336L33.8895 25.7082Z" fill="#27C5F5"/>
<path opacity="0.5" d="M0.501465 25.7082L13.3186 23.194L5.95347 19.7336L0.501465 25.7082Z" fill="#1F57A4"/>
</svg>
