<svg width="375" height="264" viewBox="0 0 375 264" fill="none" xmlns="http://www.w3.org/2000/svg">
<g clip-path="url(#clip0_1674_22857)">
<g style="mix-blend-mode:hard-light" opacity="0.4" filter="url(#filter0_f_1674_22857)">
<path d="M118.298 236.597L17.7726 179.167C17.7726 179.167 15.5774 170.317 19.9941 166.617L232.708 57.2053C237.125 53.7695 259.051 59.7095 262.7 62.881L340.455 108.301C344.295 111.208 349.315 117.375 344.898 121.075L143.846 236.597C139.622 240.032 122.139 239.768 118.298 236.597Z" fill="#19254D"/>
</g>
<path opacity="0.6" d="M18.05 44.9866C24.9515 44.9866 30.5463 39.3918 30.5463 32.4903C30.5463 25.5888 24.9515 19.994 18.05 19.994C11.1485 19.994 5.55371 25.5888 5.55371 32.4903C5.55371 39.3918 11.1485 44.9866 18.05 44.9866Z" fill="url(#paint0_radial_1674_22857)"/>
<path d="M18.0498 34.3043C19.0516 34.3043 19.8638 33.4922 19.8638 32.4904C19.8638 31.4885 19.0516 30.6764 18.0498 30.6764C17.048 30.6764 16.2358 31.4885 16.2358 32.4904C16.2358 33.4922 17.048 34.3043 18.0498 34.3043Z" fill="#5CFFF3"/>
<path opacity="0.6" d="M329.069 69.4238C335.971 69.4238 341.565 63.8291 341.565 56.9276C341.565 50.026 335.971 44.4313 329.069 44.4313C322.168 44.4313 316.573 50.026 316.573 56.9276C316.573 63.8291 322.168 69.4238 329.069 69.4238Z" fill="url(#paint1_radial_1674_22857)"/>
<path d="M329.069 58.7416C330.071 58.7416 330.883 57.9295 330.883 56.9276C330.883 55.9258 330.071 55.1136 329.069 55.1136C328.067 55.1136 327.255 55.9258 327.255 56.9276C327.255 57.9295 328.067 58.7416 329.069 58.7416Z" fill="#5CFFF3"/>
<path opacity="0.6" d="M287.97 26.1034C291.191 26.1034 293.802 23.4925 293.802 20.2718C293.802 17.0511 291.191 14.4402 287.97 14.4402C284.75 14.4402 282.139 17.0511 282.139 20.2718C282.139 23.4925 284.75 26.1034 287.97 26.1034Z" fill="url(#paint2_radial_1674_22857)"/>
<path d="M287.97 21.1183C288.438 21.1183 288.817 20.7393 288.817 20.2718C288.817 19.8043 288.438 19.4253 287.97 19.4253C287.503 19.4253 287.124 19.8043 287.124 20.2718C287.124 20.7393 287.503 21.1183 287.97 21.1183Z" fill="#5CFFF3"/>
<g opacity="0.2">
<path opacity="0.2" d="M98.5261 104.08C97.5264 91.7506 87.5294 77.4215 76.3105 72.2008C70.6455 69.535 65.8691 69.646 62.5368 71.9787L59.0934 74.4224H60.2041C58.4269 76.9772 57.6493 80.5317 57.9826 84.9748C59.0934 97.3045 68.9793 111.634 80.1982 116.854C84.086 118.632 87.5294 119.187 90.4174 118.52V119.52L93.9719 117.076L94.083 116.965C97.3043 114.633 99.0815 110.19 98.5261 104.08Z" fill="#9FFFF8"/>
<path opacity="0.2" d="M94.9718 106.524C96.0826 118.854 87.7517 124.63 76.5328 119.298C65.3139 114.077 55.3169 99.7482 54.3172 87.4185C53.2064 75.0888 61.5372 69.3128 72.7561 74.6445C83.975 79.9763 93.9721 94.1943 94.9718 106.524Z" fill="#5CFFF3"/>
<path opacity="0.2" d="M83.3084 118.854C81.1979 118.854 78.7542 118.298 76.3105 117.076C66.3134 112.411 57.4272 99.6371 56.5386 88.6404C56.0942 83.3086 57.5383 79.0876 60.7595 76.8661C63.8697 74.6445 68.3128 74.7556 73.2003 76.9772C83.1973 81.6424 92.0836 94.4164 92.9722 105.413C93.4165 110.745 91.9725 114.966 88.7512 117.187C87.1961 118.298 85.3078 118.854 83.3084 118.854ZM66.0913 75.8664C64.0919 75.8664 62.4257 76.4218 60.9817 77.4215C57.9826 79.5319 56.5385 83.5308 56.9829 88.6404C57.8715 99.4149 66.6467 111.967 76.5326 116.632C81.1979 118.854 85.4189 118.854 88.418 116.854C91.4171 114.744 92.8611 110.745 92.4168 105.635C91.5282 94.8607 82.753 82.3089 72.867 77.6436C70.4233 76.4218 68.2018 75.8664 66.0913 75.8664Z" fill="#18B2A3"/>
</g>
<g style="mix-blend-mode:overlay">
<path d="M130.961 241.373C127.962 241.373 125.074 240.706 122.852 239.485L16.7728 178.28C14.6623 177.059 13.4404 175.392 13.4404 173.504C13.4404 171.283 15.1066 168.95 18.1057 167.284L220.379 50.5405C225.933 47.3193 234.264 46.986 239.04 49.763L345.12 110.967C347.23 112.189 348.452 113.855 348.452 115.743C348.452 117.965 346.786 120.298 343.787 121.964L141.514 238.818C138.514 240.484 134.627 241.373 130.961 241.373ZM230.932 48.319C227.377 48.319 223.6 49.2076 220.601 50.8738L18.3279 167.728C15.5509 169.394 13.8847 171.505 13.8847 173.504C13.8847 175.17 14.9955 176.725 16.9949 177.947L123.075 239.151C127.74 241.817 135.849 241.484 141.291 238.374L343.565 121.631C346.342 119.964 348.008 117.854 348.008 115.855C348.008 114.188 346.897 112.633 344.898 111.411L238.818 50.0962C236.708 48.8744 233.82 48.319 230.932 48.319Z" fill="#5CFFF3"/>
</g>
<path d="M348.119 87.5296L332.902 90.1955L238.929 35.8782C234.264 33.1013 225.933 33.5456 220.49 36.6558L40.6548 140.403L13.7739 145.068V154.621C13.7739 156.398 14.7736 158.064 16.9952 159.286L123.075 220.49C127.74 223.267 136.071 222.823 141.514 219.713L343.676 102.969C346.564 101.303 348.119 99.0817 348.119 97.0823V87.5296Z" fill="url(#paint3_linear_1674_22857)"/>
<path d="M122.964 210.938L16.8842 149.733C12.2189 146.956 12.7743 142.291 18.2171 139.07L220.491 22.2157C225.933 19.1055 234.153 18.7722 238.929 21.4381L345.009 82.6422C349.674 85.4192 349.119 90.0844 343.676 93.3057L141.403 210.16C135.96 213.27 127.629 213.603 122.964 210.938Z" fill="#24126A"/>
<path d="M343.676 93.3058L141.403 210.16C135.96 213.27 127.74 213.603 122.964 210.938L16.884 149.733C14.9957 148.623 13.996 147.179 13.7738 145.735C13.4406 147.734 14.5514 149.622 16.884 150.955L122.964 212.159C127.629 214.936 135.96 214.492 141.403 211.382L343.676 94.6387C346.897 92.7504 348.452 90.3066 348.119 88.0851C347.786 89.8623 346.342 91.8617 343.676 93.3058Z" fill="white"/>
<path opacity="0.51" d="M123.186 208.494L20.8826 149.4C16.3284 146.734 16.8838 142.18 22.2156 139.07L220.712 24.5483C225.933 21.5492 233.931 21.216 238.485 23.7708L340.788 82.8644C345.342 85.5302 344.787 90.0844 339.455 93.1946L140.958 207.827C135.738 210.826 127.74 211.16 123.186 208.494Z" fill="#453C9E"/>
<path opacity="0.5" d="M123.186 205.939L20.8826 146.845C16.3284 144.18 16.8838 139.625 22.2156 136.515L220.712 21.9935C225.933 18.9944 233.931 18.6612 238.485 21.216L340.788 80.3096C345.342 82.9754 344.787 87.5296 339.455 90.6398L140.958 205.161C135.738 208.161 127.74 208.494 123.186 205.939Z" fill="url(#paint4_linear_1674_22857)"/>
<path opacity="0.8" d="M130.85 207.938C127.851 207.938 125.074 207.383 122.964 206.161L20.6607 147.068C18.5502 145.846 17.4395 144.18 17.4395 142.291C17.4395 140.07 19.1056 137.848 21.9937 136.182L220.49 21.6602C225.822 18.5501 233.931 18.2168 238.596 20.8827L340.899 79.9763C343.01 81.1982 344.12 82.8643 344.12 84.7527C344.12 86.9742 342.454 89.1958 339.566 90.862L141.181 205.384C138.181 207.161 134.516 207.938 130.85 207.938ZM123.297 205.606C127.74 208.161 135.627 207.827 140.736 204.828L339.344 90.3066C342.01 88.7515 343.565 86.7521 343.565 84.7527C343.565 83.1976 342.565 81.6425 340.677 80.5317L238.374 21.4381C233.931 18.8833 226.044 19.2165 220.935 22.2156L22.3269 136.848C19.661 138.403 18.1059 140.403 18.1059 142.402C18.1059 143.957 19.1056 145.512 20.994 146.623L123.297 205.606Z" fill="url(#paint5_linear_1674_22857)"/>
<path d="M130.85 207.938C127.962 207.938 125.074 207.383 122.964 206.161L20.6607 147.068C18.5502 145.846 17.4395 144.18 17.4395 142.402C17.4395 140.181 19.1056 138.07 21.8826 136.404L220.602 21.7713C225.933 18.6611 234.042 18.3279 238.596 20.9938L340.899 80.0874C343.01 81.3092 344.12 82.9754 344.12 84.7527C344.12 86.9742 342.454 89.0847 339.677 90.7509L141.069 205.384C138.181 207.05 134.405 207.938 130.85 207.938ZM123.297 205.717C127.74 208.272 135.627 207.938 140.847 204.939L339.344 90.4177C342.01 88.8626 343.565 86.8632 343.565 84.7527C343.565 83.0865 342.565 81.6425 340.566 80.5317L238.263 21.4381C233.82 18.8833 225.933 19.2165 220.713 22.2156L22.3269 136.737C19.661 138.292 18.1059 140.292 18.1059 142.402C18.1059 144.068 19.1056 145.512 21.105 146.623L123.297 205.717Z" fill="#5CFFF3"/>
<g opacity="0.57">
<path d="M170.171 64.7586C169.727 64.7586 169.172 64.6476 168.616 64.3143L158.064 58.205L158.286 57.7607L168.839 63.87C169.616 64.3143 170.283 64.4254 170.838 64.0922C171.393 63.7589 171.616 63.0925 171.616 62.2038V59.649C171.616 58.5383 171.949 57.7607 172.726 57.4275C173.393 56.9832 174.281 57.0942 175.281 57.6496L177.503 58.8715L177.281 59.3158L175.059 58.0939C174.281 57.6496 173.615 57.5386 173.06 57.8718C172.504 58.205 172.282 58.8715 172.282 59.7601V62.2038C172.282 63.3146 171.949 64.0922 171.171 64.5365C170.838 64.6476 170.616 64.7586 170.171 64.7586Z" fill="#5CFFF3"/>
<path d="M166.173 67.0913C165.729 67.0913 165.173 66.9802 164.618 66.647L154.065 60.5377L154.288 60.0933L164.84 66.2027C165.618 66.647 166.284 66.758 166.839 66.4248C167.395 66.0916 167.617 65.4251 167.617 64.5365V61.9817C167.617 60.8709 167.95 60.0934 168.728 59.649C169.394 59.2047 170.283 59.3158 171.283 59.8712L173.504 61.0931L173.282 61.5374L171.06 60.3155C170.283 59.8712 169.616 59.7601 169.061 60.0933C168.506 60.4266 168.283 61.0931 168.283 61.9817V64.5365C168.283 65.6473 167.95 66.4248 167.173 66.8691C166.839 66.9802 166.506 67.0913 166.173 67.0913Z" fill="#5CFFF3"/>
<path d="M162.063 69.4239C161.619 69.4239 161.063 69.3128 160.508 68.9796L149.956 62.8703L150.178 62.426L160.73 68.5353C161.508 68.9796 162.174 69.0907 162.73 68.7574C163.285 68.4242 163.507 67.7577 163.507 66.8691V64.3143C163.507 63.2035 163.84 62.426 164.618 61.9817C165.284 61.5374 166.173 61.6484 167.173 62.2038L169.394 63.4257L169.172 63.87L166.951 62.6482C166.173 62.2038 165.507 62.0928 164.951 62.426C164.396 62.7592 164.174 63.4257 164.174 64.3143V66.8691C164.174 67.9799 163.84 68.7574 163.063 69.0907C162.73 69.3128 162.396 69.4239 162.063 69.4239Z" fill="#5CFFF3"/>
<path d="M157.953 71.7566C157.509 71.7566 156.954 71.6455 156.398 71.3122L145.846 65.2029L146.068 64.7586L156.62 70.8679C157.398 71.3122 158.064 71.4233 158.62 71.0901C159.175 70.7569 159.397 70.0904 159.397 69.2018V66.647C159.397 65.5362 159.73 64.7586 160.508 64.3143C161.174 63.87 162.063 63.9811 163.063 64.5365L165.284 65.7583L165.062 66.2026L162.841 64.9808C162.063 64.5365 161.397 64.4254 160.841 64.7586C160.286 65.0919 160.064 65.7583 160.064 66.647V69.2018C160.064 70.3125 159.73 71.0901 158.953 71.5344C158.62 71.6455 158.286 71.7566 157.953 71.7566Z" fill="#5CFFF3"/>
<path d="M153.843 74.0892C153.399 74.0892 152.843 73.9781 152.288 73.6449L141.735 67.5356L141.958 67.0913L152.51 73.2006C153.287 73.6449 153.954 73.756 154.509 73.4227C155.065 73.0895 155.287 72.423 155.287 71.5344V68.9796C155.287 67.8688 155.62 67.0913 156.398 66.647C157.064 66.2027 157.953 66.3137 158.952 66.8691L161.174 68.091L160.952 68.5353L158.73 67.3134C157.953 66.8691 157.286 66.758 156.731 67.0913C156.176 67.4245 155.953 68.091 155.953 68.9796V71.5344C155.953 72.6452 155.62 73.4227 154.843 73.867C154.509 73.9781 154.176 74.0892 153.843 74.0892Z" fill="#5CFFF3"/>
<path d="M149.733 76.4219C149.289 76.4219 148.734 76.3108 148.178 75.9776L137.737 69.9793L137.959 69.535L148.511 75.6443C149.289 76.0886 149.955 76.1997 150.511 75.8665C151.066 75.5332 151.288 74.8668 151.288 73.9781V71.4233C151.288 70.3126 151.622 69.535 152.399 69.2018C153.066 68.7575 153.954 68.8685 154.954 69.4239L157.175 70.6458L156.953 71.0901L154.732 69.8682C153.954 69.4239 153.288 69.3129 152.732 69.6461C152.177 69.9793 151.955 70.6458 151.955 71.5344V74.0892C151.955 75.2 151.622 75.9776 150.844 76.4219C150.4 76.4219 150.178 76.4219 149.733 76.4219Z" fill="#5CFFF3"/>
<path d="M145.734 78.8656C145.29 78.8656 144.735 78.7545 144.179 78.4213L133.627 72.312L133.849 71.8676L144.402 77.9769C145.179 78.4213 145.846 78.5323 146.401 78.1991C146.956 77.8659 147.178 77.1994 147.178 76.3108V73.756C147.178 72.6452 147.512 71.8676 148.289 71.4233C148.956 70.979 149.844 71.0901 150.844 71.6455L153.066 72.8673L152.843 73.3117L150.622 72.0898C149.844 71.6455 149.178 71.5344 148.623 71.8676C148.067 72.2009 147.845 72.8673 147.845 73.756V76.3108C147.845 77.4215 147.512 78.1991 146.734 78.6434C146.401 78.7545 146.068 78.8656 145.734 78.8656Z" fill="#5CFFF3"/>
<path d="M141.625 81.1982C141.18 81.1982 140.625 81.0871 140.07 80.7539L129.517 74.6446L129.739 74.2003L140.292 80.3096C141.069 80.7539 141.736 80.865 142.291 80.5317C142.846 80.1985 143.069 79.532 143.069 78.6434V76.0886C143.069 74.9778 143.402 74.2003 144.179 73.756C144.846 73.3117 145.735 73.4227 146.734 73.9781L148.956 75.2L148.734 75.6443L146.512 74.4224C145.734 73.9781 145.068 73.8671 144.513 74.2003C143.957 74.5335 143.735 75.2 143.735 76.0886V78.6434C143.735 79.7542 143.402 80.5317 142.624 80.9761C142.291 81.0871 141.958 81.1982 141.625 81.1982Z" fill="#5CFFF3"/>
<path d="M137.515 83.5308C137.07 83.5308 136.515 83.4198 135.96 83.0865L125.407 76.9772L125.629 76.5329L136.182 82.6422C136.959 83.0865 137.626 83.1976 138.181 82.8644C138.737 82.5311 138.959 81.8647 138.959 80.9761V78.4213C138.959 77.3105 139.292 76.5329 140.07 76.0886C140.736 75.6443 141.625 75.7554 142.624 76.3108L144.846 77.5326L144.624 77.9769L142.402 76.7551C141.625 76.3108 140.958 76.1997 140.403 76.5329C139.847 76.8662 139.625 77.5326 139.625 78.4213V80.9761C139.625 82.0868 139.292 82.8644 138.514 83.3087C138.181 83.4198 137.848 83.5308 137.515 83.5308Z" fill="#5CFFF3"/>
<path d="M133.405 85.8635C132.961 85.8635 132.405 85.7524 131.85 85.4192L121.297 79.3099L121.52 78.8656L132.072 84.9749C132.85 85.4192 133.516 85.5303 134.071 85.197C134.627 84.8638 134.849 84.1973 134.849 83.3087V80.7539C134.849 79.6431 135.182 78.8656 135.96 78.5323C136.626 78.088 137.515 78.1991 138.514 78.7545L140.736 79.9764L140.514 80.4207L138.292 79.1988C137.515 78.7545 136.848 78.6434 136.293 78.9767C135.738 79.3099 135.515 79.9764 135.515 80.865V83.3087C135.515 84.4195 135.182 85.197 134.405 85.6413C134.071 85.7524 133.738 85.8635 133.405 85.8635Z" fill="#5CFFF3"/>
<path d="M129.295 88.1961C128.851 88.1961 128.295 88.0851 127.74 87.7518L117.188 81.6425L117.41 81.1982L127.962 87.3075C128.74 87.7518 129.406 87.8629 129.961 87.5297C130.517 87.1964 130.739 86.53 130.739 85.6413V83.0865C130.739 81.9758 131.072 81.1982 131.85 80.7539C132.516 80.3096 133.405 80.4207 134.405 80.9761L136.626 82.1979L136.404 82.6422L134.182 81.4204C133.405 80.9761 132.738 80.865 132.183 81.1982C131.628 81.5314 131.406 82.1979 131.406 83.0865V85.6413C131.406 86.7521 131.072 87.5297 130.295 87.974C129.961 88.0851 129.628 88.1961 129.295 88.1961Z" fill="#5CFFF3"/>
<path d="M125.296 90.5288C124.852 90.5288 124.296 90.4177 123.741 90.0845L113.188 83.9752L113.411 83.5309L123.963 89.6402C124.741 90.0845 125.407 90.1956 125.962 89.8623C126.518 89.5291 126.74 88.8626 126.74 87.974V85.5303C126.74 84.4195 127.073 83.6419 127.851 83.1976C128.517 82.7533 129.406 82.8644 130.406 83.4198L132.627 84.6416L132.405 85.086L130.183 83.8641C129.406 83.4198 128.739 83.3087 128.184 83.6419C127.629 83.9752 127.406 84.6416 127.406 85.5303V88.0851C127.406 89.1958 127.073 89.9734 126.296 90.3066C125.962 90.5288 125.629 90.5288 125.296 90.5288Z" fill="#5CFFF3"/>
<path d="M121.186 92.9725C120.742 92.9725 120.186 92.8614 119.631 92.5282L109.079 86.4189L109.301 85.9746L119.853 92.0839C120.631 92.5282 121.297 92.6393 121.853 92.306C122.408 91.9728 122.63 91.3063 122.63 90.4177V87.8629C122.63 86.7521 122.963 85.9746 123.741 85.5303C124.407 85.086 125.296 85.197 126.296 85.7524L128.517 86.9743L128.295 87.4186L126.074 86.1967C125.296 85.7524 124.63 85.6413 124.074 85.9746C123.519 86.3078 123.297 86.9743 123.297 87.8629V90.4177C123.297 91.5285 122.963 92.306 122.186 92.7503C121.853 92.8614 121.519 92.9725 121.186 92.9725Z" fill="#5CFFF3"/>
<path d="M117.076 95.3052C116.632 95.3052 116.077 95.1941 115.521 94.8608L104.969 88.7515L105.191 88.3072L115.743 94.4165C116.521 94.8608 117.187 94.9719 117.743 94.6387C118.298 94.3054 118.52 93.639 118.52 92.7503V90.1955C118.52 89.0848 118.854 88.3072 119.631 87.8629C120.298 87.4186 121.186 87.5297 122.186 88.0851L124.407 89.3069L124.185 89.7512L121.964 88.5294C121.186 88.0851 120.52 87.974 119.964 88.3072C119.409 88.6405 119.187 89.3069 119.187 90.1955V92.7503C119.187 93.8611 118.854 94.6387 118.076 95.083C117.743 95.1941 117.41 95.3052 117.076 95.3052Z" fill="#5CFFF3"/>
<path d="M112.966 97.6378C112.522 97.6378 111.966 97.5267 111.411 97.1935L100.97 91.0842L101.192 90.6399L111.744 96.7492C112.522 97.1935 113.188 97.3046 113.744 96.9713C114.299 96.6381 114.521 95.9716 114.521 95.083V92.5282C114.521 91.4174 114.854 90.6399 115.632 90.3066C116.299 89.8623 117.187 89.9734 118.187 90.5288L120.408 91.7506L119.964 92.195L117.743 90.9731C116.965 90.5288 116.299 90.4177 115.743 90.7509C115.188 91.0842 114.966 91.7506 114.966 92.6393V95.1941C114.966 96.3049 114.632 97.0824 113.855 97.5267C113.633 97.5267 113.299 97.6378 112.966 97.6378Z" fill="#5CFFF3"/>
<path d="M108.857 99.9704C108.412 99.9704 107.857 99.8593 107.301 99.5261L96.749 93.4168L96.9712 92.9725L107.524 99.0818C108.301 99.5261 108.968 99.6372 109.523 99.304C110.078 98.9707 110.301 98.3043 110.301 97.4156V94.8608C110.301 93.75 110.634 92.9725 111.411 92.5282C112.078 92.0839 112.966 92.195 113.966 92.7503L116.188 93.9722L115.966 94.4165L113.744 93.1947C112.966 92.7503 112.3 92.6393 111.745 92.9725C111.189 93.3057 110.967 93.9722 110.967 94.8608V97.4156C110.967 98.5264 110.634 99.304 109.856 99.7483C109.523 99.8594 109.19 99.9704 108.857 99.9704Z" fill="#5CFFF3"/>
<path d="M104.858 102.303C104.413 102.303 103.858 102.192 103.302 101.859L92.75 95.7495L92.9722 95.3051L103.525 101.414C104.302 101.859 104.969 101.97 105.524 101.637C106.079 101.303 106.302 100.637 106.302 99.7483V97.1935C106.302 96.0827 106.635 95.3051 107.412 94.8608C108.079 94.4165 108.967 94.5276 109.967 95.083L112.189 96.3048L111.967 96.7492L109.745 95.5273C108.967 95.083 108.301 94.9719 107.746 95.3051C107.19 95.6384 106.968 96.3048 106.968 97.1935V99.7483C106.968 100.859 106.635 101.637 105.857 101.97C105.524 102.303 105.191 102.303 104.858 102.303Z" fill="#5CFFF3"/>
<path d="M100.748 104.636C100.303 104.636 99.748 104.525 99.1926 104.191L88.6401 98.0821L88.8623 97.7489L99.4147 103.858C100.192 104.302 100.859 104.414 101.414 104.08C101.97 103.747 102.192 103.081 102.192 102.192V99.6372C102.192 98.5264 102.525 97.7489 103.302 97.3046C103.969 96.8602 104.858 96.9713 105.857 97.5267L108.079 98.7486L107.746 99.304L105.524 98.0821C104.746 97.6378 104.08 97.5267 103.525 97.8599C102.969 98.1932 102.747 98.8597 102.747 99.7483V102.192C102.747 103.303 102.414 104.08 101.636 104.525C101.414 104.636 101.081 104.636 100.748 104.636Z" fill="#5CFFF3"/>
<path d="M96.6378 107.079C96.1935 107.079 95.6381 106.968 95.0827 106.635L84.5303 100.526L84.7524 100.082L95.3049 106.191C96.0824 106.635 96.7489 106.746 97.3043 106.413C97.8597 106.08 98.0818 105.413 98.0818 104.525V101.97C98.0818 100.859 98.4151 100.082 99.1926 99.6372C99.8591 99.1929 100.748 99.304 101.747 99.8594L103.969 101.081L103.747 101.526L101.525 100.304C100.748 99.8594 100.081 99.7483 99.5258 100.082C98.9704 100.415 98.7483 101.081 98.7483 101.97V104.525C98.7483 105.635 98.4151 106.413 97.6375 106.857C97.3043 106.968 96.971 107.079 96.6378 107.079Z" fill="#5CFFF3"/>
<path d="M92.5279 109.412C92.0836 109.412 91.5282 109.301 90.9728 108.968L80.4204 102.858L80.6426 102.414L91.195 108.523C91.9725 108.968 92.639 109.079 93.1944 108.746C93.7498 108.412 93.9719 107.746 93.9719 106.857V104.302C93.9719 103.192 94.3052 102.414 95.0827 102.081C95.7492 101.637 96.6378 101.748 97.6375 102.303L99.8591 103.525L99.6369 103.969L97.4154 102.747C96.6378 102.192 95.8603 102.192 95.416 102.414C94.8606 102.747 94.6384 103.414 94.6384 104.302V106.857C94.6384 107.968 94.3052 108.746 93.5276 109.19C93.1944 109.301 92.8612 109.412 92.5279 109.412Z" fill="#5CFFF3"/>
</g>
<g opacity="0.57">
<path d="M186.944 64.8697C186.611 64.8697 186.278 64.7586 185.945 64.6475C185.278 64.2032 184.834 63.4256 184.834 62.3149V59.7601C184.834 58.8714 184.501 58.205 184.056 57.8717C183.501 57.5385 182.835 57.6496 182.057 58.0939L179.835 59.3158L179.613 58.8714L181.835 57.6496C182.723 57.0942 183.612 56.9831 184.39 57.4274C185.056 57.8717 185.5 58.6493 185.5 59.649V62.2038C185.5 63.0924 185.834 63.7589 186.278 64.0921C186.833 64.4253 187.5 64.3143 188.277 63.87L250.148 27.9917L250.37 28.436L188.5 64.4253C187.944 64.7586 187.5 64.8697 186.944 64.8697Z" fill="#5CFFF3"/>
<path d="M191.054 67.2023C190.721 67.2023 190.388 67.0912 190.055 66.9802C189.388 66.5358 188.944 65.7583 188.944 64.6475V62.2038C188.944 61.3152 188.611 60.6487 188.166 60.3155C187.611 59.9822 186.944 60.0933 186.167 60.5376L183.945 61.7595L183.723 61.3152L185.945 60.0933C186.833 59.5379 187.722 59.4268 188.5 59.8712C189.166 60.3155 189.61 61.093 189.61 62.2038V64.7586C189.61 65.6472 189.944 66.3137 190.388 66.6469C190.943 66.9802 191.61 66.8691 192.387 66.4248L254.258 30.5465L254.48 30.9908L192.609 66.8691C192.054 67.0912 191.499 67.2023 191.054 67.2023Z" fill="#5CFFF3"/>
<path d="M195.164 69.646C194.831 69.646 194.498 69.535 194.164 69.4239C193.498 68.9796 193.054 68.202 193.054 67.2023V64.6475C193.054 63.7589 192.72 63.0924 192.276 62.7592C191.721 62.426 191.054 62.537 190.277 62.9813L188.055 64.2032L187.833 63.7589L190.055 62.537C190.943 61.9816 191.832 61.8706 192.609 62.3149C193.276 62.7592 193.72 63.5367 193.72 64.6475V67.2023C193.72 68.0909 194.053 68.7574 194.498 69.0906C195.053 69.4239 195.72 69.3128 196.497 68.8685L258.368 32.9902L258.59 33.4345L196.719 69.3128C196.164 69.4239 195.608 69.646 195.164 69.646Z" fill="#5CFFF3"/>
<path d="M199.274 71.9787C198.941 71.9787 198.608 71.8676 198.274 71.7565C197.608 71.3122 197.164 70.5347 197.164 69.4239V66.8691C197.164 65.9805 196.83 65.314 196.386 64.9807C195.831 64.6475 195.164 64.7586 194.387 65.2029L192.165 66.4248L191.943 65.9805L194.164 64.7586C195.053 64.2032 195.942 64.0921 196.719 64.5364C197.497 64.9807 197.83 65.7583 197.83 66.8691V69.4239C197.83 70.3125 198.163 70.979 198.608 71.3122C199.163 71.6454 199.829 71.5344 200.607 71.09L262.478 35.2118L262.7 35.6561L200.829 71.5344C200.274 71.7565 199.718 71.9787 199.274 71.9787Z" fill="#5CFFF3"/>
<path d="M203.273 74.3113C202.94 74.3113 202.607 74.2002 202.273 74.0892C201.607 73.6448 201.163 72.8673 201.163 71.7565V69.2017C201.163 68.3131 200.829 67.6466 200.385 67.3134C199.83 66.9802 199.163 67.0912 198.386 67.5355L196.164 68.7574L195.942 68.3131L198.163 67.0912C199.052 66.5358 199.941 66.4248 200.718 66.8691C201.385 67.3134 201.829 68.0909 201.829 69.2017V71.7565C201.829 72.6451 202.162 73.3116 202.607 73.6449C203.162 73.9781 203.828 73.867 204.606 73.4227L266.477 37.5444L266.699 37.9887L204.828 73.867C204.273 74.2002 203.828 74.3113 203.273 74.3113Z" fill="#5CFFF3"/>
<path d="M207.383 76.644C207.05 76.644 206.716 76.5329 206.383 76.4218C205.717 75.9775 205.272 75.1999 205.272 74.0892V71.5344C205.272 70.6457 204.939 69.9793 204.495 69.646C203.939 69.3128 203.273 69.4239 202.495 69.8682L200.274 71.09L200.052 70.6457L202.273 69.4239C203.162 68.8685 204.051 68.7574 204.828 69.2017C205.495 69.646 205.939 70.4236 205.939 71.4233V73.9781C205.939 74.8667 206.272 75.5332 206.716 75.8664C207.272 76.1996 207.938 76.0886 208.716 75.6442L270.586 39.766L270.809 40.2103L208.938 76.0886C208.383 76.5329 207.938 76.644 207.383 76.644Z" fill="#5CFFF3"/>
<path d="M211.493 78.9766C211.16 78.9766 210.826 78.8655 210.493 78.7544C209.827 78.3101 209.382 77.5326 209.382 76.4218V73.867C209.382 72.9784 209.049 72.3119 208.605 71.9787C208.049 71.6454 207.383 71.7565 206.605 72.2008L204.384 73.4227L204.162 72.9784L206.383 71.7565C207.272 71.2011 208.16 71.09 208.938 71.5344C209.604 71.9787 210.049 72.7562 210.049 73.867V76.4218C210.049 77.3104 210.382 77.9769 210.826 78.3101C211.382 78.6434 212.048 78.5323 212.826 78.088L274.696 42.2097L274.918 42.654L213.048 78.5323C212.492 78.8655 211.937 78.9766 211.493 78.9766Z" fill="#5CFFF3"/>
<path d="M215.603 81.3092C215.269 81.3092 214.936 81.1982 214.603 81.0871C213.936 80.6428 213.492 79.8652 213.492 78.8655V76.3107C213.492 75.4221 213.159 74.7556 212.715 74.4224C212.159 74.0892 211.493 74.2002 210.715 74.6445L208.494 75.8664L208.271 75.4221L210.493 74.2002C211.382 73.6448 212.27 73.5338 213.048 73.9781C213.714 74.4224 214.159 75.1999 214.159 76.3107V78.8655C214.159 79.7541 214.492 80.4206 214.936 80.7538C215.492 81.0871 216.158 80.976 216.936 80.5317L278.806 44.5424L279.028 44.9867L217.158 80.8649C216.602 81.1982 216.047 81.3092 215.603 81.3092Z" fill="#5CFFF3"/>
<path d="M219.713 83.753C219.379 83.753 219.046 83.6419 218.713 83.5308C218.046 83.0865 217.602 82.3089 217.602 81.1982V78.6434C217.602 77.7547 217.269 77.0883 216.824 76.755C216.269 76.4218 215.603 76.5329 214.825 76.9772L212.604 78.1991L212.381 77.7547L214.603 76.5329C215.492 75.9775 216.38 75.8664 217.158 76.3107C217.824 76.755 218.268 77.5326 218.268 78.6434V81.1982C218.268 82.0868 218.602 82.7533 219.046 83.0865C219.601 83.4197 220.268 83.3087 221.045 82.8643L282.916 46.9861L283.138 47.4304L221.268 83.3087C220.712 83.5308 220.157 83.753 219.713 83.753Z" fill="#5CFFF3"/>
<path d="M223.712 86.0856C223.378 86.0856 223.045 85.9745 222.712 85.8635C222.045 85.4191 221.601 84.6416 221.601 83.5308V80.976C221.601 80.0874 221.268 79.4209 220.823 79.0877C220.268 78.7544 219.602 78.8655 218.824 79.3098L216.603 80.5317L216.38 80.0874L218.602 78.8655C219.491 78.3101 220.379 78.1991 221.157 78.6434C221.823 79.0877 222.268 79.8652 222.268 80.976V83.5308C222.268 84.4194 222.601 85.0859 223.045 85.4191C223.6 85.7524 224.267 85.6413 225.044 85.197L286.915 49.3187L287.137 49.763L225.267 85.6413C224.711 85.8634 224.267 86.0856 223.712 86.0856Z" fill="#5CFFF3"/>
<path d="M227.821 88.4183C227.488 88.4183 227.155 88.3072 226.822 88.1961C226.155 87.7518 225.711 86.9742 225.711 85.8635V83.3087C225.711 82.42 225.378 81.7536 224.933 81.4203C224.378 81.0871 223.711 81.1982 222.934 81.6425L220.712 82.8643L220.49 82.42L222.712 81.1982C223.6 80.6428 224.489 80.5317 225.267 80.976C225.933 81.4203 226.377 82.1979 226.377 83.3087V85.8635C226.377 86.7521 226.711 87.4185 227.155 87.7518C227.71 88.085 228.377 87.9739 229.154 87.5296L291.025 51.6514L291.247 52.0957L229.376 87.9739C228.821 88.3072 228.377 88.4183 227.821 88.4183Z" fill="#5CFFF3"/>
<path d="M231.931 90.7509C231.598 90.7509 231.265 90.6398 230.932 90.5287C230.265 90.0844 229.821 89.3069 229.821 88.3072V85.7524C229.821 84.8637 229.488 84.1973 229.043 83.864C228.488 83.5308 227.821 83.6419 227.044 84.0862L224.822 85.3081L224.6 84.8637L226.822 83.6419C227.71 83.0865 228.599 82.9754 229.376 83.4197C230.043 83.864 230.487 84.6416 230.487 85.7524V88.3072C230.487 89.1958 230.82 89.8623 231.265 90.1955C231.82 90.5287 232.487 90.4177 233.264 89.9733L295.135 54.0951L295.357 54.5394L233.486 90.4177C232.931 90.6398 232.376 90.7509 231.931 90.7509Z" fill="#5CFFF3"/>
<path d="M236.041 93.0835C235.708 93.0835 235.375 92.9724 235.041 92.8614C234.375 92.4171 233.931 91.6395 233.931 90.5287V87.9739C233.931 87.0853 233.597 86.4188 233.153 86.0856C232.598 85.7524 231.931 85.8634 231.154 86.3078L228.932 87.5296L228.71 87.0853L230.932 85.8634C231.82 85.3081 232.709 85.197 233.486 85.6413C234.153 86.0856 234.597 86.8631 234.597 87.9739V90.5287C234.597 91.4174 234.93 92.0838 235.375 92.4171C235.93 92.7503 236.597 92.6392 237.374 92.1949L299.245 56.3167L299.467 56.761L237.596 92.6392C237.041 92.9725 236.485 93.0835 236.041 93.0835Z" fill="#5CFFF3"/>
<path d="M240.151 95.4162C239.818 95.4162 239.485 95.3051 239.151 95.194C238.485 94.7497 238.04 93.9722 238.04 92.8614V90.3066C238.04 89.418 237.707 88.7515 237.263 88.4182C236.708 88.085 236.041 88.1961 235.264 88.6404L233.042 89.8623L232.82 89.418L235.041 88.1961C235.93 87.6407 236.819 87.5296 237.596 87.9739C238.263 88.4182 238.707 89.1958 238.707 90.3066V92.8614C238.707 93.75 239.04 94.4165 239.485 94.7497C240.04 95.0829 240.706 94.9719 241.484 94.5275L303.354 58.6493L303.577 59.0936L241.706 94.9719C241.151 95.3051 240.595 95.4162 240.151 95.4162Z" fill="#5CFFF3"/>
<path d="M244.15 97.8599C243.816 97.8599 243.483 97.7488 243.15 97.6377C242.483 97.1934 242.039 96.4159 242.039 95.3051V92.7503C242.039 91.8617 241.706 91.1952 241.261 90.862C240.706 90.5287 240.04 90.6398 239.262 91.0841L237.041 92.306L236.818 91.8617L239.04 90.6398C239.929 90.0844 240.817 89.9733 241.595 90.4177C242.261 90.862 242.706 91.6395 242.706 92.6392V95.194C242.706 96.0826 243.039 96.7491 243.483 97.0823C244.038 97.4156 244.705 97.3045 245.482 96.8602L307.353 60.9819L307.575 61.4262L245.705 97.3045C245.149 97.6377 244.705 97.8599 244.15 97.8599Z" fill="#5CFFF3"/>
<path d="M248.259 100.193C247.926 100.193 247.593 100.081 247.26 99.9704C246.593 99.5261 246.149 98.7485 246.149 97.6377V95.0829C246.149 94.1943 245.816 93.5279 245.371 93.1946C244.816 92.8614 244.15 92.9725 243.372 93.4168L241.15 94.6386L240.928 94.1943L243.15 92.9725C244.038 92.4171 244.927 92.306 245.705 92.7503C246.371 93.1946 246.815 93.9722 246.815 95.0829V97.6377C246.815 98.5264 247.149 99.1928 247.593 99.5261C248.148 99.8593 248.815 99.7482 249.592 99.3039L311.463 63.4257L311.685 63.87L249.814 99.7482C249.259 99.9704 248.815 100.193 248.259 100.193Z" fill="#5CFFF3"/>
<path d="M252.37 102.525C252.036 102.525 251.703 102.414 251.37 102.303C250.704 101.859 250.259 101.081 250.259 100.081V97.5267C250.259 96.638 249.926 95.9716 249.482 95.6383C248.926 95.3051 248.26 95.4162 247.482 95.8605L245.261 97.0824L245.039 96.638L247.26 95.4162C248.149 94.8608 249.037 94.7497 249.815 95.194C250.481 95.6383 250.926 96.4159 250.926 97.5267V99.9704C250.926 100.859 251.259 101.525 251.703 101.859C252.259 102.192 252.925 102.081 253.703 101.637L315.573 65.7583L315.795 66.2026L253.925 102.081C253.369 102.414 252.814 102.525 252.37 102.525Z" fill="#5CFFF3"/>
<path d="M256.48 104.858C256.146 104.858 255.813 104.747 255.48 104.636C254.813 104.191 254.369 103.414 254.369 102.303V99.7482C254.369 98.8596 254.036 98.1931 253.592 97.8599C253.036 97.5267 252.37 97.6378 251.592 98.0821L249.371 99.3039L249.148 98.8596L251.37 97.6378C252.259 97.0824 253.147 96.9713 253.925 97.4156C254.591 97.8599 255.036 98.6375 255.036 99.7482V102.303C255.036 103.192 255.369 103.858 255.813 104.191C256.369 104.525 257.035 104.414 257.813 103.969L319.683 68.0909L319.905 68.5353L258.035 104.414C257.479 104.747 256.924 104.858 256.48 104.858Z" fill="#5CFFF3"/>
<path d="M260.589 107.19C260.256 107.19 259.923 107.079 259.59 106.968C258.923 106.524 258.479 105.746 258.479 104.636V102.192C258.479 101.303 258.146 100.637 257.701 100.304C257.146 99.9704 256.48 100.081 255.702 100.526L253.48 101.748L253.258 101.303L255.48 100.081C256.368 99.5261 257.257 99.415 258.035 99.8593C258.701 100.304 259.145 101.081 259.145 102.192V104.747C259.145 105.635 259.479 106.302 259.923 106.635C260.478 106.968 261.145 106.857 261.922 106.413L323.793 70.5347L324.015 70.979L262.145 106.746C261.589 107.079 261.034 107.19 260.589 107.19Z" fill="#5CFFF3"/>
<path d="M264.588 109.523C264.255 109.523 263.922 109.412 263.588 109.301C262.922 108.857 262.478 108.079 262.478 106.968V104.413C262.478 103.525 262.144 102.858 261.7 102.525C261.145 102.192 260.478 102.303 259.701 102.747L257.479 103.969L257.257 103.525L259.478 102.303C260.367 101.748 261.256 101.637 262.033 102.081C262.7 102.525 263.144 103.303 263.144 104.302V106.857C263.144 107.746 263.477 108.412 263.922 108.746C264.477 109.079 265.143 108.968 265.921 108.523L327.791 72.6451L328.014 73.0895L266.143 108.968C265.588 109.412 265.143 109.523 264.588 109.523Z" fill="#5CFFF3"/>
</g>
<path d="M259.368 104.858V114.188L178.614 160.841L97.8599 114.188V104.858H259.368Z" fill="url(#paint6_linear_1674_22857)"/>
<path d="M178.614 151.511L97.8599 104.858L178.614 58.205L259.368 104.858L178.614 151.511Z" fill="#BCBEFF"/>
<path d="M178.614 150.4L98.8596 104.302L97.8599 104.858L178.614 151.511L259.368 104.858L258.479 104.302L178.614 150.4Z" fill="white"/>
<path d="M178.614 140.736L116.521 104.858L178.614 68.9795L240.706 104.858L178.614 140.736Z" fill="#0F054C"/>
<path opacity="0.5" d="M178.614 140.736L116.521 104.858L178.614 68.9795L240.706 104.858L178.614 140.736Z" fill="url(#paint7_linear_1674_22857)"/>
<path opacity="0.5" d="M178.614 59.9822L240.706 95.8604V104.858L178.614 68.9795V59.9822Z" fill="url(#paint8_linear_1674_22857)"/>
<path opacity="0.5" d="M178.614 68.9795L116.521 104.858V95.8604L178.614 59.9822V68.9795Z" fill="url(#paint9_linear_1674_22857)"/>
<path opacity="0.5" d="M178.614 131.628L116.521 95.8604L178.614 59.9822L240.706 95.8604L178.614 131.628Z" fill="url(#paint10_linear_1674_22857)"/>
<path opacity="0.7" d="M178.614 121.075L134.849 95.8605L178.614 70.5347L222.49 95.8605L178.614 121.075Z" fill="#5CFFF3"/>
<path opacity="0.5" d="M178.614 110.19L153.843 95.8605L178.614 81.5314L203.495 95.8605L178.614 110.19Z" fill="#5CFFF3"/>
<path opacity="0.5" d="M178.614 82.7532L202.273 96.5269L203.495 95.8605L178.614 81.5314L153.843 95.8605L154.954 96.5269L178.614 82.7532Z" fill="#5CFFF3"/>
<path opacity="0.5" d="M178.614 131.628V140.736L240.706 104.858V95.8605L178.614 131.628Z" fill="url(#paint11_linear_1674_22857)"/>
<path opacity="0.5" d="M116.521 95.8605V104.858L178.614 140.736V131.628L116.521 95.8605Z" fill="url(#paint12_linear_1674_22857)"/>
<path opacity="0.8" d="M178.614 130.739L117.41 95.3051L116.521 95.8604L178.614 131.628L240.706 95.8604L239.929 95.3051L178.614 130.739Z" fill="#5CFFF3"/>
<g opacity="0.57">
<path d="M198.83 171.838L188.277 165.729C186.5 164.618 184.945 162.063 184.945 159.953V157.398C184.945 155.398 183.612 153.066 181.835 152.066L179.613 150.844L179.835 150.4L182.057 151.622C183.834 152.733 185.389 155.287 185.389 157.398V159.953C185.389 161.952 186.722 164.285 188.5 165.284L199.052 171.394L198.83 171.838Z" fill="#5CFFF3"/>
<path d="M202.829 169.505L192.276 163.396C190.499 162.396 188.944 159.73 188.944 157.62V155.065C188.944 153.066 187.611 150.733 185.834 149.733L183.612 148.512L183.834 148.067L186.056 149.289C187.833 150.289 189.388 152.955 189.388 155.065V157.62C189.388 159.619 190.721 161.952 192.499 162.952L203.051 169.061L202.829 169.505Z" fill="#5CFFF3"/>
<path d="M206.939 167.173L196.386 161.063C194.609 159.953 193.054 157.398 193.054 155.287V152.733C193.054 150.733 191.721 148.4 189.944 147.401L187.722 146.179L187.944 145.735L190.166 146.956C191.943 148.067 193.498 150.622 193.498 152.733V155.287C193.498 157.287 194.831 159.619 196.608 160.619L207.161 166.728L206.939 167.173Z" fill="#5CFFF3"/>
<path d="M211.049 164.729L200.496 158.62C198.719 157.62 197.164 154.954 197.164 152.844V150.289C197.164 148.289 195.831 145.957 194.054 144.957L191.832 143.735L192.054 143.291L194.276 144.513C196.053 145.624 197.608 148.178 197.608 150.289V152.844C197.608 154.843 198.941 157.176 200.718 158.175L211.271 164.285L211.049 164.729Z" fill="#5CFFF3"/>
<path d="M215.158 162.396L204.606 156.287C202.829 155.287 201.274 152.621 201.274 150.511V147.956C201.274 145.957 199.941 143.624 198.163 142.624L195.942 141.403L196.164 140.958L198.386 142.18C200.163 143.18 201.718 145.846 201.718 147.956V150.511C201.718 152.51 203.051 154.843 204.828 155.843L215.381 161.952L215.158 162.396Z" fill="#5CFFF3"/>
<path d="M219.268 160.064L208.716 153.954C206.939 152.844 205.383 150.289 205.383 148.178V145.624C205.383 143.624 204.051 141.291 202.273 140.292L200.052 139.07L200.274 138.626L202.495 139.847C204.273 140.958 205.828 143.513 205.828 145.624V148.178C205.828 150.178 207.161 152.51 208.938 153.51L219.49 159.619L219.268 160.064Z" fill="#5CFFF3"/>
<path d="M223.267 157.731L212.714 151.622C210.937 150.622 209.382 147.956 209.382 145.846V143.291C209.382 141.291 208.049 138.959 206.272 137.959L204.05 136.737L204.272 136.293L206.494 137.515C208.271 138.515 209.826 141.18 209.826 143.291V145.846C209.826 147.845 211.159 150.178 212.937 151.177L223.489 157.287L223.267 157.731Z" fill="#5CFFF3"/>
<path d="M227.377 155.398L216.824 149.289C215.047 148.178 213.492 145.624 213.492 143.513V141.069C213.492 139.07 212.159 136.737 210.382 135.738L208.16 134.516L208.382 134.071L210.604 135.293C212.381 136.404 213.936 138.959 213.936 141.069V143.624C213.936 145.624 215.269 147.956 217.046 148.956L227.599 155.065L227.377 155.398Z" fill="#5CFFF3"/>
<path d="M231.487 152.955L220.935 146.845C219.157 145.846 217.602 143.18 217.602 141.069V138.515C217.602 136.515 216.269 134.182 214.492 133.183L212.271 131.961L212.493 131.517L214.714 132.738C216.491 133.738 218.047 136.404 218.047 138.515V141.069C218.047 143.069 219.38 145.401 221.157 146.401L231.709 152.51L231.487 152.955Z" fill="#5CFFF3"/>
<path d="M235.597 150.622L225.044 144.513C223.267 143.402 221.712 140.847 221.712 138.737V136.182C221.712 134.182 220.379 131.85 218.602 130.85L216.38 129.628L216.603 129.184L218.824 130.406C220.601 131.406 222.156 134.071 222.156 136.182V138.737C222.156 140.736 223.489 143.069 225.267 144.068L235.819 150.178L235.597 150.622Z" fill="#5CFFF3"/>
<path d="M239.707 148.289L229.154 142.18C227.377 141.069 225.822 138.515 225.822 136.404V133.849C225.822 131.85 224.489 129.517 222.712 128.517L220.49 127.296L220.712 126.851L222.934 128.073C224.711 129.073 226.266 131.739 226.266 133.849V136.404C226.266 138.403 227.599 140.736 229.376 141.736L239.929 147.845L239.707 148.289Z" fill="#5CFFF3"/>
<path d="M243.705 145.957L233.153 139.847C231.376 138.848 229.821 136.182 229.821 134.071V131.517C229.821 129.517 228.488 127.185 226.71 126.185L224.489 124.963L224.711 124.519L226.932 125.741C228.71 126.74 230.265 129.406 230.265 131.517V134.071C230.265 136.071 231.598 138.403 233.375 139.403L243.927 145.512L243.705 145.957Z" fill="#5CFFF3"/>
<path d="M247.815 143.624L237.263 137.515C235.485 136.404 233.93 133.849 233.93 131.739V129.184C233.93 127.185 232.597 124.852 230.82 123.852L228.599 122.63L228.821 122.186L231.042 123.408C232.82 124.519 234.375 127.073 234.375 129.184V131.739C234.375 133.738 235.708 136.071 237.485 137.071L248.037 143.18L247.815 143.624Z" fill="#5CFFF3"/>
<path d="M251.925 141.18L241.373 135.071C239.595 134.071 238.04 131.406 238.04 129.295V126.74C238.04 124.741 236.707 122.408 234.93 121.408L232.708 120.187L232.931 119.742L235.152 120.964C236.929 121.964 238.485 124.63 238.485 126.74V129.295C238.485 131.294 239.817 133.627 241.595 134.627L252.147 140.736L251.925 141.18Z" fill="#5CFFF3"/>
<path d="M256.035 138.848L245.482 132.738C243.705 131.628 242.15 129.073 242.15 126.962V124.408C242.15 122.408 240.817 120.076 239.04 119.076L236.818 117.854L237.041 117.41L239.262 118.632C241.039 119.742 242.594 122.297 242.594 124.408V126.962C242.594 128.962 243.927 131.294 245.705 132.294L256.257 138.403L256.035 138.848Z" fill="#5CFFF3"/>
<path d="M260.145 136.515L249.592 130.406C247.815 129.406 246.26 126.74 246.26 124.63V122.186C246.26 120.187 244.927 117.854 243.15 116.854L240.928 115.632L241.15 115.188L243.372 116.41C245.149 117.521 246.704 120.076 246.704 122.186V124.741C246.704 126.74 248.037 129.073 249.814 130.073L260.367 136.182L260.145 136.515Z" fill="#5CFFF3"/>
<path d="M264.144 134.182L253.591 128.073C251.814 127.073 250.259 124.408 250.259 122.297V119.742C250.259 117.743 248.926 115.41 247.149 114.411L244.927 113.189L245.149 112.744L247.371 113.966C249.148 114.966 250.703 117.632 250.703 119.742V122.297C250.703 124.297 252.036 126.629 253.813 127.629L264.366 133.738L264.144 134.182Z" fill="#5CFFF3"/>
<path d="M268.254 131.85L257.701 125.741C255.924 124.63 254.369 122.075 254.369 119.964V117.41C254.369 115.41 253.036 113.078 251.259 112.078L249.037 110.856L249.259 110.412L251.481 111.634C253.258 112.633 254.813 115.299 254.813 117.41V119.964C254.813 121.964 256.146 124.297 257.923 125.296L268.476 131.406L268.254 131.85Z" fill="#5CFFF3"/>
<path d="M272.363 129.406L261.811 123.297C260.034 122.297 258.479 119.631 258.479 117.521V114.966C258.479 112.967 257.146 110.634 255.369 109.634L253.147 108.412L253.369 107.968L255.591 109.19C257.368 110.19 258.923 112.855 258.923 114.966V117.521C258.923 119.52 260.256 121.853 262.033 122.852L272.586 128.962L272.363 129.406Z" fill="#5CFFF3"/>
<path d="M276.473 127.073L265.921 120.964C264.144 119.853 262.589 117.299 262.589 115.188V112.633C262.589 110.634 261.256 108.301 259.478 107.302L257.257 106.08L257.479 105.635L259.701 106.857C261.478 107.857 263.033 110.523 263.033 112.633V115.188C263.033 117.188 264.366 119.52 266.143 120.52L276.696 126.629L276.473 127.073Z" fill="#5CFFF3"/>
</g>
<g opacity="0.57">
<path d="M111.3 199.052L111.078 198.608L168.394 165.284C170.061 164.285 171.505 161.952 171.505 159.953V157.398C171.505 155.287 172.949 152.733 174.837 151.622L177.059 150.4L177.281 150.844L175.059 152.066C173.393 153.066 171.949 155.398 171.949 157.398V159.953C171.949 162.063 170.505 164.618 168.617 165.729L111.3 199.052Z" fill="#5CFFF3"/>
<path d="M107.302 196.719L107.08 196.275L164.396 162.952C166.062 161.952 167.506 159.619 167.506 157.62V155.065C167.506 152.955 168.95 150.4 170.838 149.289L173.06 148.067L173.282 148.512L171.061 149.733C169.394 150.733 167.95 153.066 167.95 155.065V157.62C167.95 159.73 166.506 162.285 164.618 163.396L107.302 196.719Z" fill="#5CFFF3"/>
<path d="M103.192 194.387L102.97 193.943L160.286 160.619C161.952 159.619 163.396 157.287 163.396 155.287V152.733C163.396 150.622 164.84 148.067 166.729 146.956L168.95 145.735L169.172 146.179L166.951 147.401C165.285 148.4 163.841 150.733 163.841 152.733V155.287C163.841 157.398 162.397 159.953 160.508 161.063L103.192 194.387Z" fill="#5CFFF3"/>
<path d="M99.082 192.054L98.8599 191.61L156.176 158.286C157.842 157.287 159.286 154.954 159.286 152.955V150.4C159.286 148.289 160.73 145.735 162.619 144.624L164.84 143.402L165.062 143.846L162.841 145.068C161.175 146.068 159.731 148.4 159.731 150.4V152.955C159.731 155.065 158.287 157.62 156.398 158.731L99.082 192.054Z" fill="#5CFFF3"/>
<path d="M94.9717 189.611L94.7495 189.166L152.066 155.843C153.732 154.843 155.176 152.51 155.176 150.511V147.956C155.176 145.846 156.62 143.291 158.508 142.18L160.73 140.958L160.952 141.403L158.731 142.624C157.064 143.624 155.62 145.957 155.62 147.956V150.511C155.62 152.621 154.176 155.176 152.288 156.287L94.9717 189.611Z" fill="#5CFFF3"/>
<path d="M90.8618 187.278L90.6396 186.834L147.956 153.51C149.622 152.51 151.066 150.178 151.066 148.178V145.624C151.066 143.513 152.51 140.958 154.399 139.847L156.62 138.626L156.842 139.07L154.621 140.292C152.955 141.291 151.511 143.624 151.511 145.624V148.178C151.511 150.289 150.066 152.844 148.178 153.954L90.8618 187.278Z" fill="#5CFFF3"/>
<path d="M86.8633 184.945L86.6411 184.501L143.957 151.177C145.624 150.178 147.068 147.845 147.068 145.846V143.291C147.068 141.18 148.512 138.626 150.4 137.515L152.622 136.293L152.844 136.737L150.622 137.959C148.956 138.959 147.512 141.291 147.512 143.291V145.846C147.512 147.956 146.068 150.511 144.18 151.622L86.8633 184.945Z" fill="#5CFFF3"/>
<path d="M82.7534 182.613L82.5312 182.168L139.848 148.845C141.514 147.845 142.958 145.512 142.958 143.513V141.069C142.958 138.959 144.402 136.404 146.29 135.293L148.512 134.071L148.734 134.516L146.512 135.738C144.846 136.737 143.402 139.07 143.402 141.069V143.624C143.402 145.735 141.958 148.289 140.07 149.4L82.7534 182.613Z" fill="#5CFFF3"/>
<path d="M78.6435 180.28L78.4214 179.836L135.738 146.512C137.404 145.512 138.848 143.18 138.848 141.18V138.626C138.848 136.515 140.292 133.96 142.18 132.85L144.402 131.628L144.624 132.072L142.402 133.294C140.736 134.294 139.292 136.626 139.292 138.626V141.18C139.292 143.291 137.848 145.846 135.96 146.956L78.6435 180.28Z" fill="#5CFFF3"/>
<path d="M74.5337 177.836L74.3115 177.392L131.628 144.068C133.294 143.069 134.738 140.736 134.738 138.737V136.182C134.738 134.071 136.182 131.517 138.07 130.406L140.292 129.184L140.514 129.628L138.293 130.85C136.626 131.85 135.182 134.182 135.182 136.182V138.737C135.182 140.847 133.738 143.402 131.85 144.513L74.5337 177.836Z" fill="#5CFFF3"/>
<path d="M70.4238 175.504L70.2017 175.059L127.518 141.736C129.184 140.736 130.628 138.403 130.628 136.404V133.849C130.628 131.739 132.072 129.184 133.961 128.073L136.182 126.851L136.404 127.296L134.183 128.517C132.517 129.517 131.073 131.85 131.073 133.849V136.404C131.073 138.515 129.629 141.069 127.74 142.18L70.4238 175.504Z" fill="#5CFFF3"/>
<path d="M66.314 173.171L66.0918 172.727L123.408 139.403C125.074 138.403 126.518 136.071 126.518 134.071V131.517C126.518 129.406 127.962 126.851 129.851 125.741L132.072 124.519L132.294 124.963L130.073 126.185C128.407 127.185 126.963 129.517 126.963 131.517V134.071C126.963 136.182 125.519 138.737 123.63 139.847L66.314 173.171Z" fill="#5CFFF3"/>
<path d="M62.3149 170.838L62.0928 170.394L119.409 137.071C121.075 136.071 122.519 133.738 122.519 131.739V129.184C122.519 127.073 123.963 124.519 125.852 123.408L128.073 122.186L128.295 122.63L126.074 123.852C124.408 124.852 122.964 127.185 122.964 129.184V131.739C122.964 133.849 121.52 136.404 119.631 137.515L62.3149 170.838Z" fill="#5CFFF3"/>
<path d="M58.2051 168.506L57.9829 168.061L115.299 134.738C116.965 133.738 118.409 131.406 118.409 129.406V126.851C118.409 124.741 119.853 122.186 121.742 121.075L123.963 119.853L124.186 120.298L121.964 121.52C120.298 122.519 118.854 124.852 118.854 126.851V129.406C118.854 131.517 117.41 134.071 115.521 135.182L58.2051 168.506Z" fill="#5CFFF3"/>
<path d="M54.0952 166.062L53.873 165.618L111.189 132.294C112.856 131.294 114.3 128.962 114.3 126.962V124.408C114.3 122.297 115.744 119.742 117.632 118.632L119.854 117.41L120.076 117.854L117.854 119.076C116.188 120.076 114.744 122.408 114.744 124.408V126.962C114.744 129.073 113.3 131.628 111.412 132.738L54.0952 166.062Z" fill="#5CFFF3"/>
<path d="M49.9853 163.729L49.7632 163.285L107.08 129.962C108.746 128.962 110.19 126.629 110.19 124.63V122.186C110.19 120.076 111.634 117.521 113.522 116.41L115.744 115.188L115.966 115.632L113.744 116.854C112.078 117.854 110.634 120.187 110.634 122.186V124.741C110.634 126.851 109.19 129.406 107.302 130.517L49.9853 163.729Z" fill="#5CFFF3"/>
<path d="M45.8755 161.397L45.6533 160.952L102.97 127.629C104.636 126.629 106.08 124.297 106.08 122.297V119.742C106.08 117.632 107.524 115.077 109.412 113.966L111.634 112.744L111.856 113.189L109.634 114.411C107.968 115.41 106.524 117.743 106.524 119.742V122.297C106.524 124.408 105.08 126.962 103.192 128.073L45.8755 161.397Z" fill="#5CFFF3"/>
<path d="M41.8765 159.064L41.6543 158.62L98.9706 125.296C100.637 124.297 102.081 121.964 102.081 119.964V117.41C102.081 115.299 103.525 112.744 105.413 111.634L107.635 110.412L107.857 110.856L105.635 112.078C103.969 113.078 102.525 115.41 102.525 117.41V119.964C102.525 122.075 101.081 124.63 99.1928 125.741L41.8765 159.064Z" fill="#5CFFF3"/>
<path d="M37.7666 156.62L37.5444 156.176L94.8608 122.852C96.527 121.853 97.971 119.52 97.971 117.521V114.966C97.971 112.855 99.415 110.301 101.303 109.19L103.525 107.968L103.747 108.412L101.525 109.634C99.8593 110.634 98.4153 112.967 98.4153 114.966V117.521C98.4153 119.631 96.9713 122.186 95.0829 123.297L37.7666 156.62Z" fill="#5CFFF3"/>
<path d="M33.6567 154.288L33.4346 153.843L90.7509 120.52C92.4171 119.52 93.8611 117.188 93.8611 115.188V112.633C93.8611 110.523 95.3051 107.968 97.1935 106.857L99.415 105.635L99.6372 106.08L97.4156 107.302C95.7494 108.301 94.3054 110.634 94.3054 112.633V115.188C94.3054 117.299 92.8614 119.853 90.9731 120.964L33.6567 154.288Z" fill="#5CFFF3"/>
</g>
<g opacity="0.1">
<path opacity="0.1" d="M223.379 249.26L211.049 242.151V256.48L223.379 263.589L235.819 256.48V242.151L223.379 249.26Z" fill="#5CFFF3"/>
<path opacity="0.1" d="M223.378 263.589L211.049 256.48V242.151L223.378 249.26V263.589Z" fill="#5CFFF3"/>
<path opacity="0.1" d="M235.819 256.48L223.378 263.589V249.26L235.819 242.151V256.48Z" fill="#2FD3C7"/>
<path opacity="0.1" d="M223.379 249.26L211.049 242.151L223.379 235.042L235.819 242.151L223.379 249.26Z" fill="#5CFFF3"/>
<path opacity="0.1" d="M223.379 249.26L211.049 242.151V242.817L223.379 249.926L235.819 242.817V242.151L223.379 249.26Z" fill="white"/>
</g>
<g style="mix-blend-mode:soft-light">
<path d="M223.379 240.595L211.049 233.486L223.379 226.377L235.819 233.486L223.379 240.595Z" fill="#5A699E"/>
</g>
<path d="M223.379 215.492L211.049 208.383V222.712L223.379 229.821L235.819 222.712V208.383L223.379 215.492Z" fill="#5CFFF3"/>
<path d="M223.378 229.821L211.049 222.712V208.383L223.378 215.492V229.821Z" fill="#5CFFF3"/>
<path d="M235.819 222.712L223.378 229.821V215.492L235.819 208.383V222.712Z" fill="#2FD3C7"/>
<path d="M223.379 215.492L211.049 208.383L223.379 201.274L235.819 208.383L223.379 215.492Z" fill="#5CFFF3"/>
<path d="M223.379 215.492L211.049 208.383V208.938L223.379 216.158L235.819 208.938V208.383L223.379 215.492Z" fill="white"/>
<g opacity="0.1">
<path opacity="0.1" d="M41.7655 248.26L29.3247 241.04V255.369L41.7655 262.478L54.0951 255.369V241.04L41.7655 248.26Z" fill="#5CFFF3"/>
<path opacity="0.1" d="M41.7655 262.478L29.3247 255.369V241.04L41.7655 248.26V262.478Z" fill="#5CFFF3"/>
<path opacity="0.1" d="M54.0953 255.369L41.7656 262.478V248.26L54.0953 241.04V255.369Z" fill="#2FD3C7"/>
<path opacity="0.1" d="M41.7655 248.26L29.3247 241.04L41.7655 233.931L54.0951 241.04L41.7655 248.26Z" fill="#5CFFF3"/>
<path opacity="0.1" d="M41.7655 248.26L29.3247 241.04V241.706L41.7655 248.815L54.0951 241.706V241.04L41.7655 248.26Z" fill="white"/>
</g>
<g style="mix-blend-mode:soft-light">
<path d="M41.7655 239.596L29.3247 232.375L41.7655 225.266L54.0951 232.375L41.7655 239.596Z" fill="#5A699E"/>
</g>
<path d="M41.7655 214.381L29.3247 207.272V221.601L41.7655 228.71L54.0951 221.601V207.272L41.7655 214.381Z" fill="#5CFFF3"/>
<path d="M41.7655 228.71L29.3247 221.601V207.272L41.7655 214.381V228.71Z" fill="#5CFFF3"/>
<path d="M54.0953 221.601L41.7656 228.71V214.381L54.0953 207.272V221.601Z" fill="#2FD3C7"/>
<path d="M41.7655 214.381L29.3247 207.272L41.7655 200.163L54.0951 207.272L41.7655 214.381Z" fill="#5CFFF3"/>
<path d="M41.7655 214.381L29.3247 207.272V207.938L41.7655 215.047L54.0951 207.938V207.272L41.7655 214.381Z" fill="white"/>
<path d="M78.2992 70.2137C90.2956 67.2146 102.847 55.1071 106.18 43.2217C107.846 37.2235 106.957 32.4471 104.18 29.5591L101.292 26.56L101.403 27.6708C98.6265 26.3378 94.9609 26.1157 90.6289 27.2265C78.6324 30.1145 66.1917 42.222 62.7482 54.1074C61.5264 58.2173 61.6375 61.7718 62.7482 64.5487L61.7485 64.6598L64.7476 67.77L64.8587 67.8811C67.7468 70.658 72.412 71.6577 78.2992 70.2137Z" fill="#9FFFF8"/>
<path d="M75.2999 67.1036C63.3034 70.1027 56.3055 62.8826 59.7489 50.9972C63.1923 39.1119 75.6331 27.0043 87.6295 24.0052C99.626 21.0061 106.624 28.2262 103.18 40.1116C99.8482 51.9969 87.2963 64.1045 75.2999 67.1036Z" fill="#5CFFF3"/>
<path d="M71.412 65.5485C68.3018 65.5485 65.6359 64.5488 63.7476 62.6605C61.0817 59.8835 60.4153 55.5515 61.8593 50.3308C64.9695 39.6673 76.1884 28.8927 86.8519 26.2269C92.0725 24.8939 96.4046 25.6715 99.1816 28.4484C101.847 31.2254 102.514 35.5574 101.07 40.7781C97.9597 51.4416 86.7408 62.2162 76.0773 64.8821C74.4111 65.3264 72.856 65.5485 71.412 65.5485ZM91.5172 26.2269C90.0731 26.2269 88.6291 26.449 86.963 26.7822C76.5216 29.4481 65.5249 40.0005 62.5258 50.4419C61.0817 55.4404 61.7482 59.6614 64.1919 62.2162C66.7467 64.8821 70.8566 65.5485 75.9662 64.3267C86.5186 61.6608 97.5154 51.1084 100.514 40.667C101.847 35.6685 101.292 31.5586 98.7372 28.8927C97.0711 27.1155 94.5163 26.2269 91.5172 26.2269Z" fill="white"/>
<g opacity="0.1">
<path opacity="0.1" d="M18.9942 107.869L6.66455 100.649V114.978L18.9942 122.087L31.435 114.978V100.649L18.9942 107.869Z" fill="#5CFFF3"/>
<path opacity="0.1" d="M18.9942 122.087L6.66455 114.978V100.649L18.9942 107.869V122.087Z" fill="#5CFFF3"/>
<path opacity="0.1" d="M31.4349 114.978L18.9941 122.087V107.869L31.4349 100.649V114.978Z" fill="#2FD3C7"/>
<path opacity="0.1" d="M18.9942 107.869L6.66455 100.649L18.9942 93.5403L31.435 100.649L18.9942 107.869Z" fill="#5CFFF3"/>
<path opacity="0.1" d="M18.9942 107.869L6.66455 100.649V101.316L18.9942 108.425L31.435 101.316V100.649L18.9942 107.869Z" fill="white"/>
</g>
<g style="mix-blend-mode:soft-light">
<path d="M18.9942 99.2052L6.66455 91.9851L18.9942 84.8761L31.435 91.9851L18.9942 99.2052Z" fill="#5A699E"/>
</g>
<path d="M18.9942 74.1016L6.66455 66.8815V81.2106L18.9942 88.3196L31.435 81.2106V66.8815L18.9942 74.1016Z" fill="#5CFFF3"/>
<path d="M18.9942 88.3196L6.66455 81.2106V66.8815L18.9942 74.1016V88.3196Z" fill="#5CFFF3"/>
<path d="M31.4349 81.2106L18.9941 88.3196V74.1016L31.4349 66.8815V81.2106Z" fill="#2FD3C7"/>
<path d="M18.9942 74.1015L6.66455 66.8815L18.9942 59.7725L31.435 66.8815L18.9942 74.1015Z" fill="#5CFFF3"/>
<path d="M18.9942 74.1016L6.66455 66.8815V67.5479L18.9942 74.657L31.435 67.5479V66.8815L18.9942 74.1016Z" fill="white"/>
<g style="mix-blend-mode:hard-light" opacity="0.4">
<path d="M193.943 144.513L108.635 95.3051C106.413 94.0832 106.746 91.8617 109.301 90.3066L159.064 61.6484C161.619 60.2044 165.507 59.9822 167.617 61.3152L252.814 110.523C255.036 111.745 254.703 113.966 252.148 115.521L202.385 144.18C199.941 145.624 196.164 145.846 193.943 144.513Z" fill="#24126A"/>
</g>
<path d="M275.474 72.2008L274.03 71.9787C273.919 71.8676 273.697 71.7565 273.586 71.6454L163.84 8.33085C160.952 6.66468 156.065 6.88683 152.733 8.77516L88.7516 45.7642C87.8629 46.2085 87.1965 46.7639 86.7522 47.4304L85.9746 47.2082V49.4298C85.9746 50.4295 86.6411 51.4292 87.8629 52.2067L197.608 115.521C200.496 117.187 205.384 116.965 208.716 115.077L272.697 78.088C274.474 76.9772 275.474 75.6442 275.363 74.4224V72.2008H275.474Z" fill="url(#paint13_linear_1674_22857)"/>
<path d="M197.719 113.3L87.9739 49.9852C85.0858 48.319 85.5302 45.5421 88.7514 43.6537L152.732 6.66469C155.954 4.77636 160.952 4.5542 163.84 6.22037L273.586 69.535C276.474 71.2011 276.029 73.9781 272.808 75.8664L208.827 112.855C205.495 114.744 200.496 114.966 197.719 113.3Z" fill="#5CFFF3"/>
<path d="M197.719 113.3L87.9739 49.9852C85.0858 48.319 85.5302 45.5421 88.7514 43.6537L152.732 6.66469C155.954 4.77636 160.952 4.5542 163.84 6.22037L273.586 69.535C276.474 71.2011 276.029 73.9781 272.808 75.8664L208.827 112.855C205.495 114.744 200.496 114.966 197.719 113.3Z" fill="url(#paint14_linear_1674_22857)"/>
<g style="mix-blend-mode:hard-light" opacity="0.7">
<path d="M215.38 109.079L95.416 39.766L108.19 32.4348L228.154 101.637L215.38 109.079Z" fill="#5A5964"/>
</g>
<g style="mix-blend-mode:soft-light" opacity="0.7">
<path d="M213.493 78.5323L177.392 57.6496L186.167 52.54L222.379 73.4227L213.493 78.5323Z" fill="white"/>
</g>
<g opacity="0.1">
<path opacity="0.1" d="M340.566 202.968C340.566 190.527 331.902 175.531 321.127 169.311C315.795 166.201 310.908 165.868 307.353 167.978L303.688 170.089L304.799 170.2C302.91 172.532 301.688 176.087 301.688 180.53C301.688 192.971 310.353 207.966 321.127 214.187C324.793 216.297 328.236 217.075 331.235 216.741L331.124 217.741L334.901 215.519L335.012 215.408C338.455 213.409 340.566 209.077 340.566 202.968Z" fill="#9FFFF8"/>
<path opacity="0.1" d="M336.789 205.189C336.789 217.63 328.125 222.629 317.35 216.408C306.576 210.188 297.912 195.192 297.912 182.751C297.912 170.311 306.576 165.312 317.35 171.533C328.125 177.753 336.789 192.748 336.789 205.189Z" fill="#5CFFF3"/>
</g>
<path opacity="0.4" d="M318.684 223.184C305.243 223.184 291.914 220.185 281.695 214.298C271.809 208.522 266.366 200.968 266.366 192.86C266.366 184.751 271.809 177.086 281.695 171.421C302.133 159.647 335.345 159.647 355.673 171.421C365.559 177.197 371.001 184.751 371.001 192.86C371.001 200.968 365.559 208.633 355.673 214.298C345.453 220.296 332.013 223.184 318.684 223.184ZM318.684 162.979C305.354 162.979 292.025 165.868 281.917 171.755C272.142 177.42 266.699 184.862 266.699 192.86C266.699 200.857 272.142 208.299 281.917 213.964C302.244 225.739 335.234 225.739 355.562 213.964C365.336 208.299 370.779 200.857 370.779 192.86C370.779 184.862 365.336 177.42 355.562 171.755C345.342 165.868 332.013 162.979 318.684 162.979Z" fill="#5CFFF3"/>
<path opacity="0.2" d="M318.683 231.293C301.688 231.293 284.693 227.516 271.697 220.074C259.145 212.854 252.147 203.19 252.147 192.86C252.147 182.529 259.034 172.865 271.697 165.645C297.578 150.65 339.677 150.65 365.558 165.645C378.11 172.865 385.108 182.529 385.108 192.86C385.108 203.19 378.221 212.854 365.558 220.074C352.673 227.627 335.678 231.293 318.683 231.293ZM318.683 154.871C301.799 154.871 284.804 158.536 271.919 166.09C259.479 173.31 252.592 182.862 252.592 192.971C252.592 203.079 259.479 212.631 271.919 219.852C297.69 234.736 339.677 234.736 365.447 219.852L365.558 220.074L365.447 219.852C377.888 212.631 384.775 203.079 384.775 192.971C384.775 182.862 377.888 173.31 365.447 166.09C352.451 158.536 335.567 154.871 318.683 154.871Z" fill="#5CFFF3"/>
<path d="M318.683 216.852C308.131 216.852 297.579 214.52 289.47 209.854C281.694 205.3 277.362 199.302 277.362 192.859C277.362 186.417 281.694 180.419 289.47 175.865C305.576 166.534 331.68 166.534 347.786 175.865C355.561 180.419 359.893 186.417 359.893 192.859C359.893 199.302 355.561 205.3 347.786 209.854C339.788 214.52 329.236 216.852 318.683 216.852ZM318.683 169.422C308.242 169.422 297.69 171.755 289.692 176.309C282.028 180.752 277.696 186.639 277.696 192.971C277.696 199.191 281.917 205.189 289.692 209.632C305.687 218.852 331.68 218.852 347.675 209.632C355.339 205.189 359.671 199.302 359.671 192.971C359.671 186.75 355.45 180.752 347.675 176.309C339.566 171.644 329.125 169.422 318.683 169.422Z" fill="#5CFFF3"/>
<path d="M340.566 202.968C340.566 190.527 331.902 175.531 321.127 169.311C315.795 166.201 310.908 165.868 307.353 167.978L303.688 170.089L304.799 170.2C302.91 172.532 301.688 176.087 301.688 180.53C301.688 192.971 310.353 207.966 321.127 214.187C324.793 216.297 328.236 217.075 331.235 216.741L331.124 217.741L334.901 215.519L335.012 215.408C338.455 213.409 340.566 209.077 340.566 202.968Z" fill="#9FFFF8"/>
<path d="M336.789 205.189C336.789 217.63 328.125 222.629 317.35 216.408C306.576 210.188 297.912 195.192 297.912 182.751C297.912 170.311 306.576 165.312 317.35 171.533C328.125 177.753 336.789 192.748 336.789 205.189Z" fill="#5CFFF3"/>
<path d="M325.237 216.852C322.793 216.852 320.127 216.075 317.239 214.409C307.464 208.744 299.578 195.081 299.578 183.862C299.578 178.419 301.466 174.309 304.798 172.31C308.242 170.311 312.685 170.755 317.461 173.532C327.236 179.197 335.123 192.86 335.123 204.078C335.123 209.632 333.234 213.631 329.902 215.631C328.458 216.408 326.903 216.852 325.237 216.852ZM309.575 171.644C307.909 171.644 306.464 171.977 305.132 172.754C301.91 174.643 300.133 178.53 300.133 183.862C300.133 194.859 307.909 208.41 317.461 213.964C322.015 216.63 326.347 217.075 329.569 215.186C332.79 213.298 334.567 209.41 334.567 204.078C334.567 193.082 326.792 179.53 317.239 173.976C314.573 172.421 311.907 171.644 309.575 171.644Z" fill="white"/>
</g>
<defs>
<filter id="filter0_f_1674_22857" x="-20.7729" y="18.1686" width="405.395" height="258.907" filterUnits="userSpaceOnUse" color-interpolation-filters="sRGB">
<feFlood flood-opacity="0" result="BackgroundImageFix"/>
<feBlend mode="normal" in="SourceGraphic" in2="BackgroundImageFix" result="shape"/>
<feGaussianBlur stdDeviation="19" result="effect1_foregroundBlur_1674_22857"/>
</filter>
<radialGradient id="paint0_radial_1674_22857" cx="0" cy="0" r="1" gradientUnits="userSpaceOnUse" gradientTransform="translate(18.0597 32.4758) scale(12.506)">
<stop stop-color="#7BFFF5"/>
<stop offset="1" stop-color="#5B7DF3" stop-opacity="0"/>
</radialGradient>
<radialGradient id="paint1_radial_1674_22857" cx="0" cy="0" r="1" gradientUnits="userSpaceOnUse" gradientTransform="translate(329.079 56.913) scale(12.506)">
<stop stop-color="#7BFFF5"/>
<stop offset="1" stop-color="#5B7DF3" stop-opacity="0"/>
</radialGradient>
<radialGradient id="paint2_radial_1674_22857" cx="0" cy="0" r="1" gradientUnits="userSpaceOnUse" gradientTransform="translate(287.975 20.265) scale(5.8361)">
<stop stop-color="#7BFFF5"/>
<stop offset="1" stop-color="#5B7DF3" stop-opacity="0"/>
</radialGradient>
<linearGradient id="paint3_linear_1674_22857" x1="13.7255" y1="128.181" x2="348.13" y2="128.181" gradientUnits="userSpaceOnUse">
<stop stop-color="#BCBEFF"/>
<stop offset="0.151" stop-color="#A3A7F5"/>
<stop offset="0.3866" stop-color="#8289E8"/>
<stop offset="0.6124" stop-color="#6A73DF"/>
<stop offset="0.8221" stop-color="#5C66D9"/>
<stop offset="1" stop-color="#5761D7"/>
</linearGradient>
<linearGradient id="paint4_linear_1674_22857" x1="258.257" y1="3.33237" x2="101.636" y2="221.601" gradientUnits="userSpaceOnUse">
<stop stop-color="#2A3143"/>
<stop offset="1" stop-color="#252737"/>
</linearGradient>
<linearGradient id="paint5_linear_1674_22857" x1="227.505" y1="175.49" x2="134.159" y2="51.6158" gradientUnits="userSpaceOnUse">
<stop stop-color="#42E8E0"/>
<stop offset="0.1055" stop-color="#37B6BF"/>
<stop offset="0.2197" stop-color="#2C87A1"/>
<stop offset="0.338" stop-color="#235F87"/>
<stop offset="0.4587" stop-color="#1C3F72"/>
<stop offset="0.5824" stop-color="#162561"/>
<stop offset="0.7105" stop-color="#121355"/>
<stop offset="0.8458" stop-color="#10084E"/>
<stop offset="1" stop-color="#0F054C"/>
</linearGradient>
<linearGradient id="paint6_linear_1674_22857" x1="57.9301" y1="132.831" x2="264.91" y2="132.831" gradientUnits="userSpaceOnUse">
<stop offset="0.0222208" stop-color="#8A88D1"/>
<stop offset="1" stop-color="#241D6B"/>
</linearGradient>
<linearGradient id="paint7_linear_1674_22857" x1="116.506" y1="104.862" x2="240.741" y2="104.862" gradientUnits="userSpaceOnUse">
<stop stop-color="#42E8E0"/>
<stop offset="0.1507" stop-color="#43E3E0"/>
<stop offset="0.3285" stop-color="#45D5DF"/>
<stop offset="0.5199" stop-color="#49BDDD"/>
<stop offset="0.7209" stop-color="#4E9CDB"/>
<stop offset="0.9274" stop-color="#5472D8"/>
<stop offset="1" stop-color="#5761D7"/>
</linearGradient>
<linearGradient id="paint8_linear_1674_22857" x1="178.623" y1="82.4083" x2="240.741" y2="82.4083" gradientUnits="userSpaceOnUse">
<stop stop-color="#42E8E0"/>
<stop offset="0.1507" stop-color="#43E3E0"/>
<stop offset="0.3285" stop-color="#45D5DF"/>
<stop offset="0.5199" stop-color="#49BDDD"/>
<stop offset="0.7209" stop-color="#4E9CDB"/>
<stop offset="0.9274" stop-color="#5472D8"/>
<stop offset="1" stop-color="#5761D7"/>
</linearGradient>
<linearGradient id="paint9_linear_1674_22857" x1="116.506" y1="82.4078" x2="178.624" y2="82.4078" gradientUnits="userSpaceOnUse">
<stop stop-color="#42E8E0"/>
<stop offset="0.1507" stop-color="#43E3E0"/>
<stop offset="0.3285" stop-color="#45D5DF"/>
<stop offset="0.5199" stop-color="#49BDDD"/>
<stop offset="0.7209" stop-color="#4E9CDB"/>
<stop offset="0.9274" stop-color="#5472D8"/>
<stop offset="1" stop-color="#5761D7"/>
</linearGradient>
<linearGradient id="paint10_linear_1674_22857" x1="116.506" y1="95.8182" x2="240.741" y2="95.8182" gradientUnits="userSpaceOnUse">
<stop stop-color="#42E8E0"/>
<stop offset="0.1507" stop-color="#43E3E0"/>
<stop offset="0.3285" stop-color="#45D5DF"/>
<stop offset="0.5199" stop-color="#49BDDD"/>
<stop offset="0.7209" stop-color="#4E9CDB"/>
<stop offset="0.9274" stop-color="#5472D8"/>
<stop offset="1" stop-color="#5761D7"/>
</linearGradient>
<linearGradient id="paint11_linear_1674_22857" x1="178.624" y1="118.272" x2="240.741" y2="118.272" gradientUnits="userSpaceOnUse">
<stop stop-color="#42E8E0"/>
<stop offset="0.1507" stop-color="#43E3E0"/>
<stop offset="0.3285" stop-color="#45D5DF"/>
<stop offset="0.5199" stop-color="#49BDDD"/>
<stop offset="0.7209" stop-color="#4E9CDB"/>
<stop offset="0.9274" stop-color="#5472D8"/>
<stop offset="1" stop-color="#5761D7"/>
</linearGradient>
<linearGradient id="paint12_linear_1674_22857" x1="116.506" y1="118.271" x2="178.624" y2="118.271" gradientUnits="userSpaceOnUse">
<stop stop-color="#42E8E0"/>
<stop offset="0.1507" stop-color="#43E3E0"/>
<stop offset="0.3285" stop-color="#45D5DF"/>
<stop offset="0.5199" stop-color="#49BDDD"/>
<stop offset="0.7209" stop-color="#4E9CDB"/>
<stop offset="0.9274" stop-color="#5472D8"/>
<stop offset="1" stop-color="#5761D7"/>
</linearGradient>
<linearGradient id="paint13_linear_1674_22857" x1="275.474" y1="85.5302" x2="79.4211" y2="44.4312" gradientUnits="userSpaceOnUse">
<stop stop-color="#4262CF"/>
<stop offset="1" stop-color="white"/>
</linearGradient>
<linearGradient id="paint14_linear_1674_22857" x1="206.606" y1="114.411" x2="80.7305" y2="35.7823" gradientUnits="userSpaceOnUse">
<stop stop-color="#5B7DF3"/>
<stop offset="1" stop-color="#B8C8FF"/>
</linearGradient>
<clipPath id="clip0_1674_22857">
<rect width="375" height="263.589" fill="white"/>
</clipPath>
</defs>
</svg>
