<svg width="326" height="317" viewBox="0 0 326 317" fill="none" xmlns="http://www.w3.org/2000/svg">
<g clip-path="url(#clip0_1674_21312)">
<path opacity="0.5" d="M161.813 317C226.592 317 279.107 246.037 279.107 158.5C279.107 70.9629 226.592 0 161.813 0C97.0336 0 44.5195 70.9629 44.5195 158.5C44.5195 246.037 97.0336 317 161.813 317Z" fill="url(#paint0_radial_1674_21312)"/>
<path opacity="0.5" d="M161.694 262.361C149.229 262.361 136.763 259.653 127.266 254.236C118.006 248.937 112.901 241.871 112.901 234.217C112.901 226.681 118.006 219.616 127.266 214.316C146.261 203.483 177.127 203.483 196.122 214.316C205.382 219.616 210.487 226.681 210.487 234.335C210.487 241.871 205.382 248.937 196.122 254.236C186.625 259.653 174.159 262.361 161.694 262.361ZM161.694 207.016C149.347 207.016 137.001 209.724 127.622 215.023C118.599 220.204 113.613 227.034 113.613 234.335C113.613 241.636 118.599 248.466 127.622 253.647C146.379 264.363 176.89 264.363 195.647 253.647C204.67 248.466 209.656 241.636 209.656 234.335C209.656 227.034 204.67 220.204 195.647 215.023C186.387 209.606 174.041 207.016 161.694 207.016Z" fill="#5CFFF3"/>
<path d="M161.694 241.871C149.229 241.871 136.763 239.163 127.266 233.746C118.006 228.447 112.901 221.382 112.901 213.728C112.901 206.073 118.006 199.126 127.266 193.709C146.261 182.875 177.127 182.875 196.122 193.709C205.382 199.008 210.487 206.073 210.487 213.728C210.487 221.264 205.382 228.329 196.122 233.746C186.625 239.163 174.159 241.871 161.694 241.871ZM161.694 186.408C149.347 186.408 137.001 189.117 127.622 194.416C118.599 199.597 113.613 206.427 113.613 213.728C113.613 221.029 118.599 227.858 127.622 233.04C146.379 243.755 176.89 243.755 195.647 233.04C204.67 227.858 209.656 221.029 209.656 213.728C209.656 206.427 204.67 199.597 195.647 194.416C186.387 189.117 174.041 186.408 161.694 186.408Z" fill="#5CFFF3"/>
<g style="mix-blend-mode:soft-light" opacity="0.4">
<path d="M203.008 183.464C201.109 181.698 198.734 179.932 196.004 178.401C191.73 175.928 186.863 174.044 181.639 172.749C191.611 178.99 191.255 188.763 180.689 194.769C169.767 201.01 152.197 201.01 141.275 194.769C131.065 188.881 130.471 179.696 139.375 173.337C135.101 174.633 131.065 176.281 127.385 178.401C124.654 179.932 122.28 181.698 120.38 183.464H113.257V198.066C113.257 205.132 118.006 212.315 127.503 217.731C146.38 228.565 177.128 228.565 196.004 217.731C205.501 212.315 210.25 205.249 210.25 198.066V183.464H203.008Z" fill="#5CFFF3"/>
</g>
<path d="M142.343 179.461C153.028 173.337 170.361 173.337 181.045 179.461C182.826 180.403 184.251 181.58 185.438 182.758C191.492 176.752 190.068 168.98 181.045 163.799C170.361 157.676 153.028 157.676 142.343 163.799C133.439 168.98 131.896 176.752 137.951 182.758C139.138 181.58 140.562 180.52 142.343 179.461Z" fill="#5351AF"/>
<path d="M203.008 174.986C201.109 173.22 198.734 171.453 196.004 169.922C191.73 167.449 186.863 165.565 181.639 164.27C191.611 170.511 191.255 180.285 180.689 186.29C169.767 192.532 152.197 192.532 141.275 186.29C131.065 180.403 130.471 171.218 139.375 164.859C135.101 166.154 131.065 167.803 127.385 169.922C124.654 171.453 122.28 173.22 120.38 174.986H113.257V189.588C113.257 196.653 118.006 203.836 127.503 209.253C146.38 220.087 177.128 220.087 196.004 209.253C205.501 203.836 210.25 196.771 210.25 189.588V174.986H203.008Z" fill="url(#paint1_linear_1674_21312)"/>
<path opacity="0.3" d="M195.885 169.922C191.611 167.449 186.744 165.565 181.52 164.27C191.493 170.511 191.136 180.285 180.571 186.29C175.347 189.352 168.461 190.883 161.576 191.001V217.378C173.922 217.378 186.388 214.67 195.885 209.253C205.383 203.836 210.131 196.771 210.131 189.588V174.986H203.008C200.99 173.102 198.734 171.453 195.885 169.922Z" fill="#0F054C"/>
<path opacity="0.5" d="M195.885 169.922C191.611 167.449 186.744 165.565 181.52 164.27C191.493 170.511 191.136 180.285 180.571 186.29C175.347 189.352 168.461 190.883 161.576 191.001V217.378C173.922 217.378 186.388 214.67 195.885 209.253C205.383 203.836 210.131 196.771 210.131 189.588V174.986H203.008C200.99 173.102 198.734 171.453 195.885 169.922Z" fill="url(#paint2_radial_1674_21312)"/>
<path d="M195.885 156.498C177.009 145.665 146.261 145.665 127.385 156.498C108.508 167.332 108.508 184.877 127.385 195.711C146.261 206.545 177.009 206.545 195.885 195.711C214.88 184.995 214.88 167.332 195.885 156.498ZM181.045 187.468C170.123 193.709 152.553 193.709 141.631 187.468C130.709 181.227 130.709 171.1 141.631 164.859C152.553 158.618 170.123 158.618 181.045 164.859C191.967 171.1 191.967 181.227 181.045 187.468Z" fill="url(#paint3_linear_1674_21312)"/>
<path d="M196.004 194.298C177.128 205.131 146.38 205.131 127.504 194.298C118.362 189.117 113.613 182.287 113.376 175.457C113.02 182.758 117.769 190.176 127.504 195.829C146.38 206.662 177.128 206.662 196.004 195.829C205.739 190.176 210.487 182.758 210.131 175.457C209.775 182.287 205.026 188.999 196.004 194.298Z" fill="white"/>
<path d="M181.045 163.328C170.123 157.087 152.553 157.087 141.631 163.328C135.814 166.625 133.083 170.982 133.44 175.339C133.796 171.453 136.407 167.685 141.631 164.741C152.553 158.5 170.123 158.5 181.045 164.741C186.15 167.685 188.881 171.453 189.237 175.339C189.593 171.1 186.863 166.625 181.045 163.328Z" fill="white"/>
<path d="M193.748 156.498C176.178 146.371 147.567 146.371 129.997 156.498C112.426 166.625 112.426 182.993 129.997 193.003C147.567 203.13 176.178 203.13 193.748 193.003C211.318 182.993 211.318 166.625 193.748 156.498ZM180.927 185.702C170.361 191.707 153.384 191.707 142.818 185.702C132.252 179.696 132.252 169.922 142.818 163.917C153.384 157.911 170.361 157.911 180.927 163.917C191.374 169.922 191.374 179.696 180.927 185.702Z" fill="url(#paint4_linear_1674_21312)"/>
<path opacity="0.4" d="M180.926 185.702C170.361 191.707 153.384 191.707 142.818 185.702C132.252 179.696 132.252 169.922 142.818 163.917C153.384 157.911 170.361 157.911 180.926 163.917C191.374 169.922 191.374 179.696 180.926 185.702Z" fill="#5CFFF3"/>
<path opacity="0.5" d="M188.762 174.515V35.2091H134.864V174.75C134.864 178.754 137.476 182.758 142.699 185.819C153.265 191.825 170.242 191.825 180.808 185.819C186.269 182.64 188.881 178.519 188.762 174.515Z" fill="url(#paint5_linear_1674_21312)"/>
<path opacity="0.4" d="M180.095 120.347C181.013 120.347 181.757 119.609 181.757 118.698C181.757 117.788 181.013 117.05 180.095 117.05C179.177 117.05 178.433 117.788 178.433 118.698C178.433 119.609 179.177 120.347 180.095 120.347Z" fill="#5CFFF3"/>
<path opacity="0.4" d="M151.959 47.3379C152.877 47.3379 153.621 46.5998 153.621 45.6894C153.621 44.7789 152.877 44.0408 151.959 44.0408C151.041 44.0408 150.297 44.7789 150.297 45.6894C150.297 46.5998 151.041 47.3379 151.959 47.3379Z" fill="#5CFFF3"/>
<path opacity="0.4" d="M154.333 102.566C155.645 102.566 156.708 101.511 156.708 100.21C156.708 98.9098 155.645 97.8553 154.333 97.8553C153.022 97.8553 151.959 98.9098 151.959 100.21C151.959 101.511 153.022 102.566 154.333 102.566Z" fill="#5CFFF3"/>
<path opacity="0.8" d="M150.772 142.132C151.69 142.132 152.434 141.394 152.434 140.483C152.434 139.573 151.69 138.835 150.772 138.835C149.854 138.835 149.11 139.573 149.11 140.483C149.11 141.394 149.854 142.132 150.772 142.132Z" fill="#5CFFF3"/>
<path opacity="0.8" d="M173.685 75.7172C175.127 75.7172 176.296 74.5573 176.296 73.1265C176.296 71.6958 175.127 70.5359 173.685 70.5359C172.242 70.5359 171.073 71.6958 171.073 73.1265C171.073 74.5573 172.242 75.7172 173.685 75.7172Z" fill="#5CFFF3"/>
<path opacity="0.8" d="M172.616 83.1358C173.6 83.1358 174.397 82.345 174.397 81.3695C174.397 80.394 173.6 79.6031 172.616 79.6031C171.633 79.6031 170.835 80.394 170.835 81.3695C170.835 82.345 171.633 83.1358 172.616 83.1358Z" fill="#5CFFF3"/>
<path opacity="0.8" d="M196.123 138.481C197.565 138.481 198.734 137.321 198.734 135.891C198.734 134.46 197.565 133.3 196.123 133.3C194.68 133.3 193.511 134.46 193.511 135.891C193.511 137.321 194.68 138.481 196.123 138.481Z" fill="#5CFFF3"/>
<path opacity="0.8" d="M197.903 130.709C198.952 130.709 199.802 129.866 199.802 128.825C199.802 127.785 198.952 126.941 197.903 126.941C196.854 126.941 196.003 127.785 196.003 128.825C196.003 129.866 196.854 130.709 197.903 130.709Z" fill="#5CFFF3"/>
<path opacity="0.8" d="M203.364 129.179C204.02 129.179 204.551 128.651 204.551 128.001C204.551 127.351 204.02 126.823 203.364 126.823C202.708 126.823 202.177 127.351 202.177 128.001C202.177 128.651 202.708 129.179 203.364 129.179Z" fill="#5CFFF3"/>
<path opacity="0.8" d="M209.567 126.568C209.822 126.19 209.719 125.678 209.337 125.425C208.955 125.173 208.439 125.275 208.185 125.654C207.93 126.033 208.033 126.544 208.415 126.797C208.797 127.049 209.313 126.947 209.567 126.568Z" fill="#5CFFF3"/>
<path opacity="0.8" d="M212.005 123.519C212.332 123.032 212.199 122.374 211.708 122.049C211.217 121.725 210.554 121.856 210.226 122.343C209.899 122.83 210.032 123.488 210.523 123.813C211.014 124.138 211.677 124.006 212.005 123.519Z" fill="#5CFFF3"/>
<path opacity="0.8" d="M209.91 121.387C210.347 120.738 210.17 119.86 209.515 119.428C208.86 118.995 207.976 119.17 207.539 119.82C207.103 120.469 207.28 121.346 207.934 121.779C208.589 122.212 209.474 122.037 209.91 121.387Z" fill="#5CFFF3"/>
<path opacity="0.8" d="M127.503 70.0649C128.946 70.0649 130.115 68.9051 130.115 67.4743C130.115 66.0435 128.946 64.8837 127.503 64.8837C126.061 64.8837 124.892 66.0435 124.892 67.4743C124.892 68.9051 126.061 70.0649 127.503 70.0649Z" fill="#5CFFF3"/>
<path opacity="0.8" d="M119.668 69.8294C120.651 69.8294 121.449 69.0386 121.449 68.0631C121.449 67.0876 120.651 66.2968 119.668 66.2968C118.684 66.2968 117.887 67.0876 117.887 68.0631C117.887 69.0386 118.684 69.8294 119.668 69.8294Z" fill="#5CFFF3"/>
<path opacity="0.8" d="M120.855 74.6575C121.707 74.6575 122.398 73.9721 122.398 73.1267C122.398 72.2812 121.707 71.5958 120.855 71.5958C120.003 71.5958 119.312 72.2812 119.312 73.1267C119.312 73.9721 120.003 74.6575 120.855 74.6575Z" fill="#5CFFF3"/>
<path opacity="0.8" d="M119.549 77.7192C120.073 77.7192 120.499 77.2974 120.499 76.7771C120.499 76.2568 120.073 75.8351 119.549 75.8351C119.024 75.8351 118.599 76.2568 118.599 76.7771C118.599 77.2974 119.024 77.7192 119.549 77.7192Z" fill="#5CFFF3"/>
<path opacity="0.8" d="M115.416 77.6677C115.522 77.292 115.301 76.902 114.923 76.7966C114.544 76.6912 114.151 76.9104 114.044 77.2861C113.938 77.6617 114.159 78.0518 114.538 78.1571C114.917 78.2625 115.31 78.0434 115.416 77.6677Z" fill="#5CFFF3"/>
<path opacity="0.8" d="M196.123 74.422C197.565 74.422 198.734 73.2621 198.734 71.8314C198.734 70.4006 197.565 69.2407 196.123 69.2407C194.68 69.2407 193.511 70.4006 193.511 71.8314C193.511 73.2621 194.68 74.422 196.123 74.422Z" fill="#5CFFF3"/>
<path opacity="0.8" d="M198.615 66.7678C199.664 66.7678 200.515 65.9243 200.515 64.8837C200.515 63.8432 199.664 62.9996 198.615 62.9996C197.566 62.9996 196.716 63.8432 196.716 64.8837C196.716 65.9243 197.566 66.7678 198.615 66.7678Z" fill="#5CFFF3"/>
<path opacity="0.8" d="M203.839 63.9416C204.56 63.9416 205.145 63.3617 205.145 62.6463C205.145 61.9309 204.56 61.351 203.839 61.351C203.118 61.351 202.533 61.9309 202.533 62.6463C202.533 63.3617 203.118 63.9416 203.839 63.9416Z" fill="#5CFFF3"/>
<path opacity="0.8" d="M208.113 63.9416C208.637 63.9416 209.063 63.5198 209.063 62.9995C209.063 62.4793 208.637 62.0575 208.113 62.0575C207.588 62.0575 207.163 62.4793 207.163 62.9995C207.163 63.5198 207.588 63.9416 208.113 63.9416Z" fill="#5CFFF3"/>
<path opacity="0.8" d="M210.25 60.6444C210.512 60.6444 210.725 60.4336 210.725 60.1734C210.725 59.9133 210.512 59.7024 210.25 59.7024C209.988 59.7024 209.775 59.9133 209.775 60.1734C209.775 60.4336 209.988 60.6444 210.25 60.6444Z" fill="#5CFFF3"/>
<path opacity="0.5" d="M275.545 298.277C263.079 298.277 250.614 295.568 241.116 290.152C231.856 284.853 226.751 277.787 226.751 270.133C226.751 262.597 231.856 255.531 241.116 250.232C260.111 239.399 290.978 239.399 309.973 250.232C319.233 255.531 324.338 262.597 324.338 270.251C324.338 277.787 319.233 284.853 309.973 290.269C300.475 295.568 288.01 298.277 275.545 298.277ZM275.545 242.814C263.198 242.814 250.851 245.522 241.473 250.821C232.45 256.002 227.464 262.832 227.464 270.133C227.464 277.434 232.45 284.264 241.473 289.445C260.23 300.161 290.741 300.161 309.498 289.445C318.521 284.264 323.507 277.434 323.507 270.133C323.507 262.832 318.521 256.002 309.498 250.821C300.119 245.522 287.773 242.814 275.545 242.814Z" fill="#5CFFF3"/>
<path d="M275.545 277.669C263.079 277.669 250.614 274.961 241.116 269.544C231.856 264.245 226.751 257.18 226.751 249.526C226.751 241.989 231.856 234.924 241.116 229.625C260.111 218.791 290.978 218.791 309.973 229.625C319.233 234.924 324.338 241.989 324.338 249.643C324.338 257.18 319.233 264.245 309.973 269.544C300.475 274.961 288.01 277.669 275.545 277.669ZM275.545 222.206C263.198 222.206 250.851 224.915 241.473 230.214C232.45 235.395 227.464 242.225 227.464 249.526C227.464 256.827 232.45 263.656 241.473 268.838C260.23 279.553 290.741 279.553 309.498 268.838C318.521 263.656 323.507 256.827 323.507 249.526C323.507 242.225 318.521 235.395 309.498 230.214C300.119 224.915 287.773 222.206 275.545 222.206Z" fill="#5CFFF3"/>
<g style="mix-blend-mode:soft-light" opacity="0.4">
<path d="M316.74 219.262C314.84 217.496 312.466 215.73 309.735 214.199C305.461 211.726 300.594 209.842 295.37 208.547C305.343 214.788 304.987 224.561 294.421 230.567C283.499 236.808 265.928 236.808 255.006 230.567C244.796 224.679 244.203 215.494 253.107 209.135C248.833 210.431 244.796 212.079 241.116 214.199C238.386 215.73 236.011 217.496 234.112 219.262H226.989V233.864C226.989 240.929 231.737 248.113 241.235 253.529C260.111 264.363 290.859 264.363 309.735 253.529C319.233 248.113 323.981 241.047 323.981 233.864V219.262H316.74Z" fill="#5CFFF3"/>
</g>
<path d="M256.193 215.376C266.878 209.253 284.211 209.253 294.895 215.376C296.676 216.318 298.101 217.496 299.288 218.674C305.343 212.668 303.918 204.896 294.895 199.715C284.211 193.591 266.878 193.591 256.193 199.715C247.289 204.896 245.746 212.668 251.801 218.674C252.988 217.378 254.413 216.318 256.193 215.376Z" fill="#5351AF"/>
<path d="M316.74 210.784C314.84 209.017 312.466 207.251 309.735 205.72C305.461 203.247 300.594 201.363 295.37 200.068C305.343 206.309 304.987 216.083 294.421 222.088C283.499 228.33 265.928 228.33 255.006 222.088C244.796 216.201 244.203 207.016 253.107 200.657C248.833 201.952 244.796 203.601 241.116 205.72C238.386 207.251 236.011 209.017 234.112 210.784H226.989V225.386C226.989 232.451 231.737 239.634 241.235 245.051C260.111 255.884 290.859 255.884 309.735 245.051C319.233 239.634 323.981 232.569 323.981 225.386V210.784H316.74Z" fill="url(#paint6_linear_1674_21312)"/>
<path opacity="0.3" d="M309.735 205.72C305.461 203.247 300.594 201.363 295.37 200.068C305.343 206.309 304.987 216.083 294.421 222.088C289.197 225.15 282.311 226.681 275.426 226.799V253.176C287.772 253.176 300.238 250.468 309.735 245.051C319.233 239.634 323.981 232.569 323.981 225.386V210.784H316.858C314.84 209.017 312.466 207.369 309.735 205.72Z" fill="#0F054C"/>
<path opacity="0.5" d="M309.735 205.72C305.461 203.247 300.594 201.363 295.37 200.068C305.343 206.309 304.987 216.083 294.421 222.088C289.197 225.15 282.311 226.681 275.426 226.799V253.176C287.772 253.176 300.238 250.468 309.735 245.051C319.233 239.634 323.981 232.569 323.981 225.386V210.784H316.858C314.84 209.017 312.466 207.369 309.735 205.72Z" fill="url(#paint7_radial_1674_21312)"/>
<path d="M309.735 192.414C290.859 181.58 260.111 181.58 241.235 192.414C222.359 203.247 222.359 220.793 241.235 231.627C260.111 242.46 290.859 242.46 309.735 231.627C328.73 220.793 328.73 203.247 309.735 192.414ZM294.895 223.266C283.973 229.507 266.403 229.507 255.481 223.266C244.559 217.025 244.559 206.898 255.481 200.657C266.403 194.416 283.973 194.416 294.895 200.657C305.817 207.016 305.817 217.143 294.895 223.266Z" fill="url(#paint8_linear_1674_21312)"/>
<path d="M309.735 230.096C290.859 240.929 260.111 240.929 241.235 230.096C232.094 224.915 227.345 218.085 227.108 211.255C226.751 218.556 231.5 225.974 241.235 231.627C260.111 242.46 290.859 242.46 309.735 231.627C319.47 225.974 324.219 218.556 323.863 211.255C323.625 218.085 318.877 224.915 309.735 230.096Z" fill="white"/>
<path d="M294.896 199.244C283.974 193.003 266.403 193.003 255.481 199.244C249.664 202.541 246.933 206.898 247.29 211.255C247.646 207.369 250.258 203.601 255.481 200.657C266.403 194.416 283.974 194.416 294.896 200.657C300 203.601 302.731 207.369 303.087 211.255C303.325 206.898 300.713 202.541 294.896 199.244Z" fill="white"/>
<path d="M307.598 192.414C290.028 182.287 261.417 182.287 243.847 192.414C226.276 202.541 226.276 218.909 243.847 228.918C261.417 239.045 290.028 239.045 307.598 228.918C325.169 218.791 325.169 202.541 307.598 192.414ZM294.777 221.617C284.211 227.623 267.234 227.623 256.668 221.617C246.102 215.612 246.102 205.838 256.668 199.833C267.234 193.827 284.211 193.827 294.777 199.833C305.224 205.72 305.224 215.494 294.777 221.617Z" fill="url(#paint9_linear_1674_21312)"/>
<path opacity="0.4" d="M294.777 221.617C284.211 227.623 267.234 227.623 256.669 221.617C246.103 215.612 246.103 205.838 256.669 199.833C267.234 193.827 284.211 193.827 294.777 199.833C305.224 205.72 305.224 215.494 294.777 221.617Z" fill="#5CFFF3"/>
<path opacity="0.5" d="M302.612 210.313V71.0071H248.714V210.548C248.714 214.552 251.326 218.556 256.55 221.617C267.116 227.623 284.092 227.623 294.658 221.617C300.119 218.438 302.731 214.434 302.612 210.313Z" fill="url(#paint10_linear_1674_21312)"/>
<path opacity="0.4" d="M293.946 156.145C294.864 156.145 295.608 155.407 295.608 154.496C295.608 153.586 294.864 152.848 293.946 152.848C293.028 152.848 292.284 153.586 292.284 154.496C292.284 155.407 293.028 156.145 293.946 156.145Z" fill="#5CFFF3"/>
<path opacity="0.4" d="M265.81 83.136C266.727 83.136 267.472 82.3979 267.472 81.4874C267.472 80.577 266.727 79.8389 265.81 79.8389C264.892 79.8389 264.147 80.577 264.147 81.4874C264.147 82.3979 264.892 83.136 265.81 83.136Z" fill="#5CFFF3"/>
<path opacity="0.4" d="M268.184 138.481C269.495 138.481 270.558 137.427 270.558 136.126C270.558 134.826 269.495 133.771 268.184 133.771C266.873 133.771 265.81 134.826 265.81 136.126C265.81 137.427 266.873 138.481 268.184 138.481Z" fill="#5CFFF3"/>
<path opacity="0.8" d="M264.504 177.93C265.422 177.93 266.166 177.192 266.166 176.281C266.166 175.371 265.422 174.633 264.504 174.633C263.586 174.633 262.842 175.371 262.842 176.281C262.842 177.192 263.586 177.93 264.504 177.93Z" fill="#5CFFF3"/>
<path opacity="0.8" d="M287.535 111.633C288.978 111.633 290.147 110.473 290.147 109.042C290.147 107.612 288.978 106.452 287.535 106.452C286.093 106.452 284.923 107.612 284.923 109.042C284.923 110.473 286.093 111.633 287.535 111.633Z" fill="#5CFFF3"/>
<path opacity="0.8" d="M286.348 119.052C287.332 119.052 288.129 118.261 288.129 117.285C288.129 116.31 287.332 115.519 286.348 115.519C285.365 115.519 284.567 116.31 284.567 117.285C284.567 118.261 285.365 119.052 286.348 119.052Z" fill="#5CFFF3"/>
<path opacity="0.8" d="M309.973 174.397C311.415 174.397 312.584 173.237 312.584 171.806C312.584 170.376 311.415 169.216 309.973 169.216C308.53 169.216 307.361 170.376 307.361 171.806C307.361 173.237 308.53 174.397 309.973 174.397Z" fill="#5CFFF3"/>
<path opacity="0.8" d="M311.754 166.625C312.803 166.625 313.653 165.782 313.653 164.741C313.653 163.701 312.803 162.857 311.754 162.857C310.704 162.857 309.854 163.701 309.854 164.741C309.854 165.782 310.704 166.625 311.754 166.625Z" fill="#5CFFF3"/>
<path opacity="0.8" d="M317.215 165.094C317.87 165.094 318.402 164.567 318.402 163.917C318.402 163.266 317.87 162.739 317.215 162.739C316.559 162.739 316.027 163.266 316.027 163.917C316.027 164.567 316.559 165.094 317.215 165.094Z" fill="#5CFFF3"/>
<path opacity="0.8" d="M323.369 162.518C323.624 162.139 323.521 161.628 323.139 161.375C322.757 161.123 322.241 161.225 321.986 161.604C321.732 161.983 321.835 162.494 322.217 162.747C322.599 162.999 323.115 162.897 323.369 162.518Z" fill="#5CFFF3"/>
<path opacity="0.8" d="M325.787 159.329C326.114 158.842 325.981 158.184 325.49 157.86C324.999 157.535 324.336 157.667 324.009 158.154C323.681 158.641 323.814 159.299 324.305 159.623C324.796 159.948 325.46 159.816 325.787 159.329Z" fill="#5CFFF3"/>
<path opacity="0.8" d="M323.784 157.25C324.221 156.601 324.044 155.723 323.389 155.29C322.734 154.858 321.85 155.033 321.413 155.682C320.977 156.332 321.154 157.209 321.808 157.642C322.463 158.075 323.348 157.9 323.784 157.25Z" fill="#5CFFF3"/>
<path opacity="0.8" d="M241.354 105.981C242.796 105.981 243.966 104.821 243.966 103.39C243.966 101.959 242.796 100.799 241.354 100.799C239.912 100.799 238.742 101.959 238.742 103.39C238.742 104.821 239.912 105.981 241.354 105.981Z" fill="#5CFFF3"/>
<path opacity="0.8" d="M233.519 105.627C234.502 105.627 235.299 104.837 235.299 103.861C235.299 102.886 234.502 102.095 233.519 102.095C232.535 102.095 231.738 102.886 231.738 103.861C231.738 104.837 232.535 105.627 233.519 105.627Z" fill="#5CFFF3"/>
<path opacity="0.8" d="M234.705 110.573C235.558 110.573 236.249 109.888 236.249 109.042C236.249 108.197 235.558 107.512 234.705 107.512C233.853 107.512 233.162 108.197 233.162 109.042C233.162 109.888 233.853 110.573 234.705 110.573Z" fill="#5CFFF3"/>
<path opacity="0.8" d="M233.281 113.635C233.805 113.635 234.231 113.213 234.231 112.693C234.231 112.172 233.805 111.751 233.281 111.751C232.756 111.751 232.331 112.172 232.331 112.693C232.331 113.213 232.756 113.635 233.281 113.635Z" fill="#5CFFF3"/>
<path opacity="0.8" d="M229.247 113.633C229.353 113.257 229.132 112.867 228.754 112.762C228.375 112.657 227.982 112.876 227.876 113.251C227.769 113.627 227.99 114.017 228.369 114.123C228.748 114.228 229.141 114.009 229.247 113.633Z" fill="#5CFFF3"/>
<path opacity="0.8" d="M309.973 110.338C311.415 110.338 312.584 109.178 312.584 107.747C312.584 106.316 311.415 105.156 309.973 105.156C308.53 105.156 307.361 106.316 307.361 107.747C307.361 109.178 308.53 110.338 309.973 110.338Z" fill="#5CFFF3"/>
<path opacity="0.8" d="M312.466 102.683C313.515 102.683 314.365 101.84 314.365 100.799C314.365 99.7588 313.515 98.9153 312.466 98.9153C311.417 98.9153 310.566 99.7588 310.566 100.799C310.566 101.84 311.417 102.683 312.466 102.683Z" fill="#5CFFF3"/>
<path opacity="0.8" d="M317.69 99.8574C318.411 99.8574 318.996 99.2774 318.996 98.562C318.996 97.8467 318.411 97.2667 317.69 97.2667C316.968 97.2667 316.384 97.8467 316.384 98.562C316.384 99.2774 316.968 99.8574 317.69 99.8574Z" fill="#5CFFF3"/>
<path opacity="0.8" d="M321.963 99.8574C322.488 99.8574 322.913 99.4356 322.913 98.9153C322.913 98.395 322.488 97.9733 321.963 97.9733C321.439 97.9733 321.014 98.395 321.014 98.9153C321.014 99.4356 321.439 99.8574 321.963 99.8574Z" fill="#5CFFF3"/>
<path opacity="0.8" d="M324.1 96.5602C324.363 96.5602 324.575 96.3493 324.575 96.0892C324.575 95.829 324.363 95.6182 324.1 95.6182C323.838 95.6182 323.625 95.829 323.625 96.0892C323.625 96.3493 323.838 96.5602 324.1 96.5602Z" fill="#5CFFF3"/>
<path opacity="0.5" d="M48.7932 298.277C36.3277 298.277 23.8623 295.568 14.3649 290.152C5.10488 284.853 0 277.669 0 270.133C0 262.597 5.10488 255.531 14.3649 250.232C33.3598 239.399 64.2265 239.399 83.2214 250.232C92.4814 255.531 97.5863 262.597 97.5863 270.251C97.5863 277.787 92.4814 284.853 83.2214 290.152C73.8427 295.568 61.2586 298.277 48.7932 298.277ZM48.7932 242.814C36.4465 242.814 24.0998 245.522 14.721 250.821C5.69847 256.002 0.712309 262.832 0.712309 270.133C0.712309 277.434 5.69847 284.264 14.721 289.445C33.4785 300.161 63.9891 300.161 82.7465 289.445L82.984 289.798L82.7465 289.445C91.7691 284.264 96.7553 277.434 96.7553 270.133C96.7553 262.832 91.7691 256.002 82.7465 250.821C73.4865 245.522 61.1398 242.814 48.7932 242.814Z" fill="#5CFFF3"/>
<path d="M48.7932 277.669C36.3277 277.669 23.8623 274.961 14.3649 269.544C5.10488 264.245 0 257.18 0 249.526C0 241.989 5.10488 234.924 14.3649 229.625C33.3598 218.791 64.2265 218.791 83.2214 229.625C92.4814 234.924 97.5863 241.989 97.5863 249.643C97.5863 257.18 92.4814 264.245 83.2214 269.544L82.984 269.191L83.2214 269.544C73.8427 274.961 61.2586 277.669 48.7932 277.669ZM48.7932 222.206C36.4465 222.206 24.0998 224.915 14.721 230.214C5.81719 235.513 0.831027 242.342 0.831027 249.526C0.831027 256.827 5.81719 263.656 14.8398 268.838C33.5972 279.553 64.1078 279.553 82.8653 268.838C91.8878 263.656 96.874 256.827 96.874 249.526C96.874 242.225 91.8878 235.395 82.8653 230.214C73.4865 224.915 61.1398 222.206 48.7932 222.206Z" fill="#5CFFF3"/>
<g style="mix-blend-mode:soft-light" opacity="0.4">
<path d="M90.1069 219.262C88.2074 217.496 85.833 215.73 83.1025 214.199C78.8286 211.726 73.9612 209.842 68.7376 208.547C78.7099 214.788 78.3538 224.561 67.7879 230.567C56.8658 236.808 39.2955 236.808 28.3734 230.567C18.1637 224.679 17.5701 215.494 26.4739 209.135C22.2001 210.431 18.1637 212.079 14.4834 214.199C11.7529 215.73 9.37854 217.496 7.47904 219.262H0.355957V233.864C0.355957 240.929 5.10468 248.113 14.6021 253.529C33.4783 264.363 64.2263 264.363 83.1025 253.529C92.5999 248.113 97.3487 241.047 97.3487 233.864V219.262H90.1069Z" fill="#5CFFF3"/>
</g>
<path d="M29.4418 215.376C40.1265 209.253 57.4593 209.253 68.144 215.376C69.9247 216.318 71.3493 217.496 72.5365 218.674C78.5912 212.668 77.1665 204.896 68.144 199.715C57.4593 193.591 40.1265 193.591 29.4418 199.715C20.538 204.896 18.9946 212.668 25.0493 218.674C26.3552 217.378 27.7798 216.318 29.4418 215.376Z" fill="#5351AF"/>
<path d="M90.1069 210.784C88.2074 209.017 85.833 207.251 83.1025 205.72C78.8286 203.247 73.9612 201.363 68.7376 200.068C78.7099 206.309 78.3538 216.083 67.7879 222.088C56.8658 228.33 39.2955 228.33 28.3734 222.088C18.1637 216.201 17.5701 207.016 26.4739 200.657C22.2001 201.952 18.1637 203.601 14.4834 205.72C11.7529 207.251 9.37854 209.017 7.47904 210.784H0.355957V225.386C0.355957 232.451 5.10468 239.634 14.6021 245.051C33.4783 255.884 64.2263 255.884 83.1025 245.051C92.5999 239.634 97.3487 232.569 97.3487 225.386V210.784H90.1069Z" fill="url(#paint11_linear_1674_21312)"/>
<path opacity="0.3" d="M83.1025 205.72C78.8287 203.247 73.9612 201.363 68.7376 200.068C78.7099 206.309 78.3538 216.083 67.7879 222.088C62.5643 225.15 55.6786 226.681 48.793 226.799V253.176C61.1397 253.176 73.6051 250.468 83.1025 245.051C92.6 239.634 97.3487 232.569 97.3487 225.386V210.784H90.2256C88.2074 209.017 85.833 207.369 83.1025 205.72Z" fill="#0F054C"/>
<path opacity="0.5" d="M83.1025 205.72C78.8287 203.247 73.9612 201.363 68.7376 200.068C78.7099 206.309 78.3538 216.083 67.7879 222.088C62.5643 225.15 55.6786 226.681 48.793 226.799V253.176C61.1397 253.176 73.6051 250.468 83.1025 245.051C92.6 239.634 97.3487 232.569 97.3487 225.386V210.784H90.2256C88.2074 209.017 85.833 207.369 83.1025 205.72Z" fill="url(#paint12_radial_1674_21312)"/>
<path d="M83.1023 192.414C64.2262 181.58 33.4781 181.58 14.602 192.414C-4.27422 203.247 -4.27422 220.793 14.602 231.627C33.4781 242.46 64.2262 242.46 83.1023 231.627C101.979 220.793 101.979 203.247 83.1023 192.414ZM68.2626 223.266C57.3405 229.507 39.7702 229.507 28.8481 223.266C17.9261 217.025 17.9261 206.898 28.8481 200.657C39.7702 194.416 57.3405 194.416 68.2626 200.657C79.0659 207.016 79.0659 217.143 68.2626 223.266Z" fill="url(#paint13_linear_1674_21312)"/>
<path d="M83.1025 230.096C64.2263 240.929 33.4783 240.929 14.6021 230.096C5.4608 224.915 0.712072 218.085 0.474635 211.255C0.118481 218.674 4.74849 226.092 14.6021 231.627C33.4783 242.46 64.2263 242.46 83.1025 231.627C92.8373 225.974 97.5861 218.556 97.2299 211.255C96.9925 218.085 92.2438 224.915 83.1025 230.096Z" fill="white"/>
<path d="M68.2628 199.244C57.3407 193.003 39.7704 193.003 28.8483 199.244C23.0312 202.541 20.3006 206.898 20.6568 211.255C21.013 207.369 23.6247 203.601 28.8483 200.657C39.7704 194.416 57.3407 194.416 68.2628 200.657C73.3676 203.601 76.0982 207.369 76.4543 211.255C76.6918 206.898 73.9612 202.541 68.2628 199.244Z" fill="white"/>
<path d="M80.8468 192.414C63.2765 182.287 34.6655 182.287 17.0952 192.414C-0.475091 202.541 -0.475091 218.909 17.0952 228.918C34.6655 239.045 63.2765 239.045 80.8468 228.918C98.5358 218.791 98.5358 202.541 80.8468 192.414ZM68.0253 221.617C57.4594 227.623 40.4827 227.623 29.9168 221.617C19.3508 215.612 19.3508 205.838 29.9168 199.833C40.4827 193.827 57.4594 193.827 68.0253 199.833C78.5912 205.72 78.5912 215.494 68.0253 221.617Z" fill="url(#paint14_linear_1674_21312)"/>
<path opacity="0.4" d="M68.0256 221.617C57.4597 227.623 40.483 227.623 29.9171 221.617C19.3512 215.612 19.3512 205.838 29.9171 199.833C40.483 193.827 57.4597 193.827 68.0256 199.833C78.5915 205.72 78.5915 215.494 68.0256 221.617Z" fill="#5CFFF3"/>
<path opacity="0.5" d="M75.8609 210.313V71.0071H22.0815V210.548C22.0815 214.552 24.6933 218.556 29.9169 221.617C40.4829 227.623 57.4595 227.623 68.0255 221.617C73.4865 218.438 76.0983 214.434 75.8609 210.313Z" fill="url(#paint15_linear_1674_21312)"/>
<path opacity="0.4" d="M67.1943 156.145C68.1122 156.145 68.8563 155.407 68.8563 154.496C68.8563 153.586 68.1122 152.848 67.1943 152.848C66.2764 152.848 65.5322 153.586 65.5322 154.496C65.5322 155.407 66.2764 156.145 67.1943 156.145Z" fill="#5CFFF3"/>
<path opacity="0.4" d="M39.1767 83.136C40.0946 83.136 40.8388 82.3979 40.8388 81.4874C40.8388 80.577 40.0946 79.8389 39.1767 79.8389C38.2588 79.8389 37.5146 80.577 37.5146 81.4874C37.5146 82.3979 38.2588 83.136 39.1767 83.136Z" fill="#5CFFF3"/>
<path opacity="0.4" d="M41.5511 138.481C42.8624 138.481 43.9255 137.427 43.9255 136.126C43.9255 134.826 42.8624 133.771 41.5511 133.771C40.2398 133.771 39.1768 134.826 39.1768 136.126C39.1768 137.427 40.2398 138.481 41.5511 138.481Z" fill="#5CFFF3"/>
<path opacity="0.8" d="M37.871 177.93C38.789 177.93 39.5331 177.192 39.5331 176.281C39.5331 175.371 38.789 174.633 37.871 174.633C36.9531 174.633 36.209 175.371 36.209 176.281C36.209 177.192 36.9531 177.93 37.871 177.93Z" fill="#5CFFF3"/>
<path opacity="0.8" d="M60.9023 111.633C62.3448 111.633 63.5141 110.473 63.5141 109.042C63.5141 107.612 62.3448 106.452 60.9023 106.452C59.4599 106.452 58.2905 107.612 58.2905 109.042C58.2905 110.473 59.4599 111.633 60.9023 111.633Z" fill="#5CFFF3"/>
<path opacity="0.8" d="M59.7153 119.052C60.6988 119.052 61.4961 118.261 61.4961 117.285C61.4961 116.31 60.6988 115.519 59.7153 115.519C58.7318 115.519 57.9346 116.31 57.9346 117.285C57.9346 118.261 58.7318 119.052 59.7153 119.052Z" fill="#5CFFF3"/>
<path opacity="0.8" d="M83.2212 174.397C84.6636 174.397 85.833 173.237 85.833 171.806C85.833 170.376 84.6636 169.216 83.2212 169.216C81.7787 169.216 80.6094 170.376 80.6094 171.806C80.6094 173.237 81.7787 174.397 83.2212 174.397Z" fill="#5CFFF3"/>
<path opacity="0.8" d="M85.002 166.625C86.0511 166.625 86.9015 165.782 86.9015 164.741C86.9015 163.701 86.0511 162.857 85.002 162.857C83.953 162.857 83.1025 163.701 83.1025 164.741C83.1025 165.782 83.953 166.625 85.002 166.625Z" fill="#5CFFF3"/>
<path opacity="0.8" d="M90.4631 165.094C91.1187 165.094 91.6502 164.567 91.6502 163.917C91.6502 163.266 91.1187 162.739 90.4631 162.739C89.8074 162.739 89.2759 163.266 89.2759 163.917C89.2759 164.567 89.8074 165.094 90.4631 165.094Z" fill="#5CFFF3"/>
<path opacity="0.8" d="M96.7429 162.498C96.9975 162.119 96.8943 161.607 96.5124 161.355C96.1305 161.102 95.6145 161.205 95.3599 161.584C95.1053 161.962 95.2085 162.474 95.5904 162.727C95.9723 162.979 96.4883 162.877 96.7429 162.498Z" fill="#5CFFF3"/>
<path opacity="0.8" d="M99.1281 159.297C99.4555 158.81 99.3228 158.152 98.8317 157.827C98.3407 157.502 97.6773 157.634 97.35 158.121C97.0227 158.608 97.1554 159.266 97.6464 159.591C98.1374 159.915 98.8008 159.784 99.1281 159.297Z" fill="#5CFFF3"/>
<path opacity="0.8" d="M97.1318 157.23C97.5682 156.58 97.3913 155.703 96.7366 155.27C96.0819 154.837 95.1974 155.013 94.7609 155.662C94.3245 156.311 94.5014 157.189 95.1561 157.622C95.8108 158.055 96.6954 157.879 97.1318 157.23Z" fill="#5CFFF3"/>
<path opacity="0.8" d="M14.6025 105.981C16.045 105.981 17.2143 104.821 17.2143 103.39C17.2143 101.959 16.045 100.799 14.6025 100.799C13.1601 100.799 11.9907 101.959 11.9907 103.39C11.9907 104.821 13.1601 105.981 14.6025 105.981Z" fill="#5CFFF3"/>
<path opacity="0.8" d="M6.7671 105.627C7.75059 105.627 8.54787 104.837 8.54787 103.861C8.54787 102.886 7.75059 102.095 6.7671 102.095C5.78361 102.095 4.98633 102.886 4.98633 103.861C4.98633 104.837 5.78361 105.627 6.7671 105.627Z" fill="#5CFFF3"/>
<path opacity="0.8" d="M7.95398 110.573C8.80634 110.573 9.49732 109.888 9.49732 109.042C9.49732 108.197 8.80634 107.512 7.95398 107.512C7.10162 107.512 6.41064 108.197 6.41064 109.042C6.41064 109.888 7.10162 110.573 7.95398 110.573Z" fill="#5CFFF3"/>
<path opacity="0.8" d="M6.64799 113.635C7.17252 113.635 7.59773 113.213 7.59773 112.693C7.59773 112.172 7.17252 111.751 6.64799 111.751C6.12346 111.751 5.69824 112.172 5.69824 112.693C5.69824 113.213 6.12346 113.635 6.64799 113.635Z" fill="#5CFFF3"/>
<path opacity="0.8" d="M2.59381 113.594C2.70006 113.218 2.47916 112.828 2.10039 112.723C1.72163 112.617 1.32844 112.837 1.22218 113.212C1.11592 113.588 1.33684 113.978 1.7156 114.083C2.09437 114.189 2.48755 113.97 2.59381 113.594Z" fill="#5CFFF3"/>
<path opacity="0.8" d="M83.2212 110.338C84.6636 110.338 85.833 109.178 85.833 107.747C85.833 106.316 84.6636 105.156 83.2212 105.156C81.7787 105.156 80.6094 106.316 80.6094 107.747C80.6094 109.178 81.7787 110.338 83.2212 110.338Z" fill="#5CFFF3"/>
<path opacity="0.8" d="M85.7144 102.683C86.7635 102.683 87.6139 101.84 87.6139 100.799C87.6139 99.7588 86.7635 98.9153 85.7144 98.9153C84.6654 98.9153 83.8149 99.7588 83.8149 100.799C83.8149 101.84 84.6654 102.683 85.7144 102.683Z" fill="#5CFFF3"/>
<path opacity="0.8" d="M91.0569 99.8574C91.7781 99.8574 92.3628 99.2774 92.3628 98.562C92.3628 97.8467 91.7781 97.2667 91.0569 97.2667C90.3356 97.2667 89.751 97.8467 89.751 98.562C89.751 99.2774 90.3356 99.8574 91.0569 99.8574Z" fill="#5CFFF3"/>
<path opacity="0.8" d="M95.3306 99.8574C95.8551 99.8574 96.2803 99.4356 96.2803 98.9153C96.2803 98.395 95.8551 97.9733 95.3306 97.9733C94.8061 97.9733 94.3809 98.395 94.3809 98.9153C94.3809 99.4356 94.8061 99.8574 95.3306 99.8574Z" fill="#5CFFF3"/>
<path opacity="0.8" d="M97.4676 96.5602C97.7298 96.5602 97.9424 96.3493 97.9424 96.0892C97.9424 95.829 97.7298 95.6182 97.4676 95.6182C97.2053 95.6182 96.9927 95.829 96.9927 96.0892C96.9927 96.3493 97.2053 96.5602 97.4676 96.5602Z" fill="#5CFFF3"/>
</g>
<defs>
<radialGradient id="paint0_radial_1674_21312" cx="0" cy="0" r="1" gradientUnits="userSpaceOnUse" gradientTransform="translate(161.861 158.471) rotate(-4.92753) scale(117.562 158.856)">
<stop stop-color="#42E8E0"/>
<stop offset="1" stop-color="#5B7DF3"/>
</radialGradient>
<linearGradient id="paint1_linear_1674_21312" x1="113.242" y1="190.73" x2="210.134" y2="190.73" gradientUnits="userSpaceOnUse">
<stop stop-color="#BCBEFF"/>
<stop offset="0.151" stop-color="#A3A7F5"/>
<stop offset="0.3866" stop-color="#8289E8"/>
<stop offset="0.6124" stop-color="#6A73DF"/>
<stop offset="0.8221" stop-color="#5C66D9"/>
<stop offset="1" stop-color="#5761D7"/>
</linearGradient>
<radialGradient id="paint2_radial_1674_21312" cx="0" cy="0" r="1" gradientUnits="userSpaceOnUse" gradientTransform="translate(207.688 205.404) scale(56.3072 55.851)">
<stop stop-color="#42E8E0"/>
<stop offset="1" stop-color="#5B7DF3" stop-opacity="0"/>
</radialGradient>
<linearGradient id="paint3_linear_1674_21312" x1="113.242" y1="176.155" x2="210.134" y2="176.155" gradientUnits="userSpaceOnUse">
<stop stop-color="#C0BFF6"/>
<stop offset="0.2938" stop-color="#C5C4F7"/>
<stop offset="0.6399" stop-color="#D3D2F9"/>
<stop offset="1" stop-color="#E9E9FD"/>
</linearGradient>
<linearGradient id="paint4_linear_1674_21312" x1="116.763" y1="174.787" x2="206.959" y2="174.787" gradientUnits="userSpaceOnUse">
<stop stop-color="#C0BFF6"/>
<stop offset="0.2938" stop-color="#C5C4F7"/>
<stop offset="0.6399" stop-color="#D3D2F9"/>
<stop offset="1" stop-color="#E9E9FD"/>
</linearGradient>
<linearGradient id="paint5_linear_1674_21312" x1="161.457" y1="75.364" x2="161.815" y2="190.287" gradientUnits="userSpaceOnUse">
<stop stop-color="#5B7DF3" stop-opacity="0"/>
<stop offset="1" stop-color="#42E8E0"/>
</linearGradient>
<linearGradient id="paint6_linear_1674_21312" x1="227.055" y1="226.602" x2="323.948" y2="226.602" gradientUnits="userSpaceOnUse">
<stop stop-color="#BCBEFF"/>
<stop offset="0.151" stop-color="#A3A7F5"/>
<stop offset="0.3866" stop-color="#8289E8"/>
<stop offset="0.6124" stop-color="#6A73DF"/>
<stop offset="0.8221" stop-color="#5C66D9"/>
<stop offset="1" stop-color="#5761D7"/>
</linearGradient>
<radialGradient id="paint7_radial_1674_21312" cx="0" cy="0" r="1" gradientUnits="userSpaceOnUse" gradientTransform="translate(321.502 241.277) scale(56.307 55.8509)">
<stop stop-color="#42E8E0"/>
<stop offset="1" stop-color="#5B7DF3" stop-opacity="0"/>
</radialGradient>
<linearGradient id="paint8_linear_1674_21312" x1="227.055" y1="212.028" x2="323.948" y2="212.028" gradientUnits="userSpaceOnUse">
<stop stop-color="#C0BFF6"/>
<stop offset="0.2938" stop-color="#C5C4F7"/>
<stop offset="0.6399" stop-color="#D3D2F9"/>
<stop offset="1" stop-color="#E9E9FD"/>
</linearGradient>
<linearGradient id="paint9_linear_1674_21312" x1="230.576" y1="210.659" x2="320.772" y2="210.659" gradientUnits="userSpaceOnUse">
<stop stop-color="#C0BFF6"/>
<stop offset="0.2938" stop-color="#C5C4F7"/>
<stop offset="0.6399" stop-color="#D3D2F9"/>
<stop offset="1" stop-color="#E9E9FD"/>
</linearGradient>
<linearGradient id="paint10_linear_1674_21312" x1="275.671" y1="71.0391" x2="275.671" y2="226.085" gradientUnits="userSpaceOnUse">
<stop stop-color="#5B7DF3" stop-opacity="0"/>
<stop offset="1" stop-color="#42E8E0"/>
</linearGradient>
<linearGradient id="paint11_linear_1674_21312" x1="0.388011" y1="226.602" x2="97.2805" y2="226.602" gradientUnits="userSpaceOnUse">
<stop stop-color="#BCBEFF"/>
<stop offset="0.151" stop-color="#A3A7F5"/>
<stop offset="0.3866" stop-color="#8289E8"/>
<stop offset="0.6124" stop-color="#6A73DF"/>
<stop offset="0.8221" stop-color="#5C66D9"/>
<stop offset="1" stop-color="#5761D7"/>
</linearGradient>
<radialGradient id="paint12_radial_1674_21312" cx="0" cy="0" r="1" gradientUnits="userSpaceOnUse" gradientTransform="translate(94.8346 241.277) scale(56.3071 55.8509)">
<stop stop-color="#42E8E0"/>
<stop offset="1" stop-color="#5B7DF3" stop-opacity="0"/>
</radialGradient>
<linearGradient id="paint13_linear_1674_21312" x1="0.38784" y1="212.028" x2="97.2804" y2="212.028" gradientUnits="userSpaceOnUse">
<stop stop-color="#C0BFF6"/>
<stop offset="0.2938" stop-color="#C5C4F7"/>
<stop offset="0.6399" stop-color="#D3D2F9"/>
<stop offset="1" stop-color="#E9E9FD"/>
</linearGradient>
<linearGradient id="paint14_linear_1674_21312" x1="3.9087" y1="210.659" x2="94.1048" y2="210.659" gradientUnits="userSpaceOnUse">
<stop stop-color="#C0BFF6"/>
<stop offset="0.2938" stop-color="#C5C4F7"/>
<stop offset="0.6399" stop-color="#D3D2F9"/>
<stop offset="1" stop-color="#E9E9FD"/>
</linearGradient>
<linearGradient id="paint15_linear_1674_21312" x1="48.9846" y1="71.0391" x2="48.9846" y2="226.085" gradientUnits="userSpaceOnUse">
<stop stop-color="#5B7DF3" stop-opacity="0"/>
<stop offset="1" stop-color="#42E8E0"/>
</linearGradient>
<clipPath id="clip0_1674_21312">
<rect width="326" height="317" fill="white"/>
</clipPath>
</defs>
</svg>
