<svg width="80" height="80" viewBox="0 0 80 80" fill="none" xmlns="http://www.w3.org/2000/svg">
<path d="M48.2943 1.17925C42.6902 -0.218641 36.7932 -0.418391 31.0551 0.820342C30.6117 0.916074 30.3298 1.35317 30.4256 1.79662C30.5213 2.24007 30.9584 2.52195 31.4018 2.42622C36.897 1.23992 42.5577 1.43552 47.942 2.78503C60.8183 6.01229 71.5362 15.6935 75.6184 28.3397C77.1971 33.2304 77.8678 38.4381 78.0021 43.8958C78.0132 44.3494 78.3899 44.708 78.8434 44.6968C79.297 44.6857 79.6556 44.3089 79.6444 43.8554C79.5083 38.3228 78.8298 32.9812 77.2121 27.929C72.9727 14.6894 61.7708 4.54081 48.2943 1.17925Z" fill="#5CFFF3"/>
<path d="M26.8865 3.66454C27.3239 3.54389 27.5806 3.09156 27.4599 2.65423C27.3393 2.21691 26.887 1.96018 26.4496 2.08083C20.4488 3.73629 12.0074 9.45649 6.79049 17.0982C6.78845 17.1012 6.78644 17.1042 6.78445 17.1072C2.20369 24.0104 -0.667805 32.6856 0.133907 41.1035C0.134671 41.1115 0.135552 41.1195 0.13655 41.1275C0.328688 42.6646 0.651241 44.1989 0.974173 45.7349C1.65433 48.9701 2.33616 52.2133 1.80471 55.508C1.73247 55.9558 2.03697 56.3775 2.48485 56.4497C2.93273 56.522 3.35437 56.2175 3.42661 55.7696C3.98215 52.3256 3.29235 48.9663 2.6024 45.6063C2.28332 44.0524 1.96421 42.4984 1.76823 40.9357C1.01421 32.9814 3.73016 24.6832 8.15037 18.02C13.1688 10.6716 21.2952 5.20702 26.8865 3.66454Z" fill="#5CFFF3"/>
<path d="M37.6659 5.49981C47.979 4.87004 58.29 9.07893 65.2147 17.1424C65.5102 17.4866 65.4708 18.0052 65.1266 18.3008C64.7825 18.5963 64.2639 18.5569 63.9683 18.2128C57.3832 10.5447 47.5714 6.5393 37.761 7.13993C37.7575 7.14015 37.754 7.14034 37.7505 7.14051C25.3442 7.74081 13.7256 16.1571 9.45199 27.9504C9.29742 28.3769 8.82636 28.5974 8.39984 28.4429C7.97331 28.2883 7.75284 27.8172 7.9074 27.3907C12.4094 14.9669 24.6097 6.13377 37.6659 5.49981Z" fill="#5CFFF3"/>
<path d="M67.7172 20.7311C67.4642 20.3544 66.9539 20.2542 66.5773 20.5071C66.2007 20.76 66.1004 21.2704 66.3533 21.647C70.1921 27.363 71.7794 33.5832 72.4069 40.9646C72.4453 41.4167 72.8429 41.752 73.295 41.7135C73.747 41.6751 74.0823 41.2775 74.0439 40.8255C73.4027 33.2827 71.7658 26.7595 67.7172 20.7311Z" fill="#5CFFF3"/>
<path d="M73.4947 44.313C73.9475 44.2847 74.3375 44.6288 74.3658 45.0816C74.6754 50.0348 74.6782 55.639 74.1303 59.7804C74.0708 60.2301 73.6579 60.5465 73.2082 60.487C72.7584 60.4275 72.4421 60.0146 72.5016 59.5649C73.0297 55.5733 73.0326 50.088 72.7261 45.1841C72.6978 44.7313 73.0419 44.3413 73.4947 44.313Z" fill="#5CFFF3"/>
<path d="M8.21153 31.929C8.31801 31.4881 8.04683 31.0442 7.60584 30.9378C7.16484 30.8313 6.72103 31.1025 6.61455 31.5435C6.01164 34.0406 5.69865 36.6058 5.68625 39.1735C5.67347 41.8199 6.16692 44.4031 6.66057 46.9874C7.06439 49.1014 7.46833 51.216 7.5954 53.3665C7.76231 56.1914 7.16813 59.0203 6.14137 61.7128C5.97972 62.1367 6.19231 62.6114 6.6162 62.773C7.04009 62.9347 7.51476 62.7221 7.67641 62.2982C8.76171 59.4522 9.41957 56.3865 9.23541 53.2696C9.10921 51.1339 8.7053 49.0315 8.30154 46.9299C7.80887 44.3656 7.31644 41.8024 7.3291 39.1814C7.34088 36.7416 7.63833 34.3031 8.21153 31.929Z" fill="#5CFFF3"/>
<path d="M29.7657 13.675C29.9348 14.096 29.7305 14.5743 29.3095 14.7434C20.7936 18.1633 14.3985 25.8808 13.0939 34.9815C12.5489 38.7836 13.1378 42.5498 13.7264 46.3149C14.058 48.4353 14.3895 50.5554 14.5183 52.6814C14.7978 57.2913 14.2727 62.3549 11.2725 66.962C11.025 67.3422 10.5161 67.4497 10.1359 67.2021C9.75578 66.9545 9.64828 66.4456 9.89585 66.0655C12.6293 61.8679 13.1467 57.2055 12.8785 52.7808C12.7477 50.6237 12.4183 48.4791 12.0891 46.3358C11.4985 42.4904 10.9085 38.6493 11.4677 34.7483C12.8607 25.0313 19.6714 16.8436 28.6973 13.2189C29.1183 13.0498 29.5966 13.254 29.7657 13.675Z" fill="#5CFFF3"/>
<path d="M58.6029 18.3517C51.8846 12.0593 42.1473 9.86307 33.2977 11.8041C32.8546 11.9013 32.5741 12.3393 32.6713 12.7825C32.7685 13.2256 33.2065 13.506 33.6497 13.4088C42.0296 11.5708 51.1984 13.6675 57.4798 19.5508C62.7742 24.5096 65.8487 31.725 66.6534 39.5973C66.6996 40.0487 67.1028 40.3771 67.5542 40.331C68.0055 40.2848 68.3339 39.8816 68.2878 39.4303C67.4521 31.2559 64.2479 23.6389 58.6029 18.3517Z" fill="#5CFFF3"/>
<path d="M68.1159 43.3423C68.5672 43.2959 68.9706 43.6242 69.017 44.0755C69.7971 51.6713 69.4609 59.8754 68.2831 67.812C68.2166 68.2608 67.7988 68.5706 67.35 68.504C66.9013 68.4374 66.5915 68.0197 66.6581 67.5709C67.8194 59.7446 68.1465 51.6798 67.3827 44.2434C67.3363 43.7921 67.6646 43.3886 68.1159 43.3423Z" fill="#5CFFF3"/>
<path d="M39.4775 16.6941C26.89 16.6941 16.6626 26.7365 16.6626 39.1524C16.6626 40.4786 16.7803 41.7781 17.0047 43.0417C17.084 43.4884 17.5104 43.7862 17.957 43.7069C18.4037 43.6276 18.7015 43.2012 18.6222 42.7545C18.4145 41.5846 18.3055 40.3812 18.3055 39.1524C18.3055 27.669 27.7719 18.337 39.4775 18.337C44.7674 18.337 49.6004 20.2436 53.31 23.3939C53.6558 23.6876 54.1742 23.6453 54.4679 23.2996C54.7615 22.9538 54.7193 22.4354 54.3735 22.1417C50.376 18.7469 45.1687 16.6941 39.4775 16.6941Z" fill="#5CFFF3"/>
<path d="M56.214 25.2044C56.5414 24.8904 57.0614 24.9013 57.3754 25.2287C61.0005 29.009 62.161 34.9506 62.9288 39.9367C63.7937 45.5533 63.9257 51.0325 63.9257 53.5731C63.9257 54.0267 63.5579 54.3945 63.1043 54.3945C62.6506 54.3945 62.2828 54.0267 62.2828 53.5731C62.2828 51.0737 62.152 45.6871 61.305 40.1868C60.5922 35.5577 59.5646 29.8853 56.1896 26.3658C55.8756 26.0384 55.8865 25.5184 56.214 25.2044Z" fill="#5CFFF3"/>
<path d="M63.7171 58.2774C63.7532 57.8252 63.4158 57.4293 62.9636 57.3933C62.5113 57.3572 62.1155 57.6946 62.0795 58.1468C61.6761 63.2067 61.1489 68.261 60.0793 72.9299C59.978 73.3721 60.2544 73.8127 60.6966 73.914C61.1388 74.0154 61.5794 73.739 61.6807 73.2968C62.7785 68.5048 63.3127 63.3508 63.7171 58.2774Z" fill="#5CFFF3"/>
<path d="M18.3269 46.065C18.772 45.9774 19.2039 46.2672 19.2915 46.7123C21.0284 55.5322 19.8285 63.5443 15.2291 70.5627C14.9804 70.9421 14.4713 71.0481 14.0918 70.7995C13.7124 70.5508 13.6064 70.0416 13.855 69.6622C18.1826 63.0587 19.3472 55.4981 17.6796 47.0297C17.592 46.5846 17.8817 46.1527 18.3269 46.065Z" fill="#5CFFF3"/>
<path d="M39.4775 22.0388C31.3065 22.0388 23.2908 28.3638 22.4726 36.313C22.1144 39.7931 22.6176 43.2211 23.121 46.6504C23.5605 49.6449 24.0002 52.6405 23.8667 55.6727C23.5612 62.6123 21.525 68.3407 18.0264 73.0588C17.7562 73.4232 17.8325 73.9377 18.1969 74.2079C18.5613 74.4781 19.0758 74.4018 19.346 74.0374C23.0568 69.0332 25.1893 62.9825 25.508 55.7449C25.6409 52.7264 25.1998 49.7404 24.7591 46.7563C24.2551 43.344 23.7515 39.9341 24.1069 36.4812C24.8256 29.4979 32.0134 23.6817 39.4775 23.6817C42.9589 23.6817 51.9664 25.5668 54.8316 34.9006C56.6272 40.7497 57.1169 48.6657 56.682 56.3561C56.2472 64.0455 54.8944 71.4 53.0754 76.116C52.9121 76.5393 53.1229 77.0148 53.5462 77.178C53.9694 77.3413 54.4449 77.1305 54.6082 76.7072C56.5113 71.7732 57.8821 64.2326 58.3223 56.4489C58.7624 48.6661 58.2786 40.5311 56.4022 34.4185C53.2216 24.0576 43.2515 22.0388 39.4775 22.0388Z" fill="#5CFFF3"/>
<path d="M26.8363 70.564C27.2163 70.8118 27.3234 71.3207 27.0756 71.7007C26.5662 72.4817 26.1181 73.2988 25.67 74.116C25.2219 74.9332 24.7737 75.7505 24.2642 76.5316C24.0164 76.9116 23.5074 77.0187 23.1275 76.7709C22.7475 76.523 22.6403 76.0141 22.8882 75.6341C23.3976 74.8531 23.8457 74.036 24.2938 73.2188C24.7419 72.4016 25.1901 71.5843 25.6995 70.8032C25.9474 70.4232 26.4563 70.3161 26.8363 70.564Z" fill="#5CFFF3"/>
<path d="M33.87 30.5657C34.2471 30.3134 34.3483 29.8033 34.0961 29.4262C33.8439 29.0491 33.3337 28.9479 32.9566 29.2001C29.7038 31.3757 27.7082 34.3675 27.7082 38.7503C27.7082 41.36 28.1706 43.4932 28.6448 45.6811C29.3543 48.9552 29.8356 52.2221 29.7491 55.585C29.6441 59.6686 28.8451 63.4002 27.3092 66.9549C27.1293 67.3714 27.321 67.8549 27.7375 68.0348C28.154 68.2148 28.6374 68.023 28.8174 67.6065C30.4413 63.848 31.2814 59.9082 31.3915 55.6272C31.4813 52.1328 30.9867 48.7365 30.2507 45.3337C29.7754 43.1362 29.3511 41.1743 29.3511 38.7503C29.3511 34.9951 31.0031 32.4832 33.87 30.5657Z" fill="#5CFFF3"/>
<path d="M37.0761 27.6795C40.4847 26.9846 44.1528 27.8433 46.8527 30.0285C51.6753 33.9319 52.3166 41.0503 52.8364 46.8187L52.8629 47.1125C53.5345 54.5481 52.7657 61.7703 51.217 69.0233C51.1223 69.4669 50.6859 69.7498 50.2422 69.6551C49.7985 69.5603 49.5157 69.1239 49.6104 68.6802C51.1358 61.536 51.8793 54.4856 51.2267 47.2603C51.2051 47.0211 51.1836 46.7785 51.1618 46.533L51.1615 46.5294C50.6998 41.3167 50.1216 34.788 45.8191 31.3055C43.5108 29.4373 40.345 28.6898 37.4043 29.2893C36.9597 29.3799 36.5259 29.093 36.4353 28.6485C36.3447 28.204 36.6316 27.7701 37.0761 27.6795Z" fill="#5CFFF3"/>
<path d="M50.0561 73.1107C50.168 72.671 49.9023 72.2239 49.4627 72.112C49.023 72 48.5759 72.2657 48.464 72.7053C47.9674 74.6559 47.2022 76.4166 46.232 78.0376C45.999 78.4269 46.1257 78.9313 46.5149 79.1643C46.9042 79.3973 47.4086 79.2706 47.6416 78.8813C48.6872 77.1344 49.5172 75.227 50.0561 73.1107Z" fill="#5CFFF3"/>
<path d="M46.0392 61.1902C46.4897 61.2435 46.8117 61.6519 46.7584 62.1024C45.9826 68.6583 44.2311 74.5053 41.4208 79.5766C41.2009 79.9734 40.7009 80.1168 40.3041 79.8969C39.9073 79.677 39.7639 79.1771 39.9838 78.7803C42.6734 73.927 44.3716 68.2923 45.1269 61.9094C45.1802 61.4589 45.5887 61.1369 46.0392 61.1902Z" fill="#5CFFF3"/>
<path d="M45.8699 38.3195C45.3004 35.2766 42.6888 32.9489 39.5182 32.9489C35.2248 32.9489 32.2126 37.2765 33.2741 41.3028C35.0702 48.4099 35.3651 55.2596 34.1492 61.8568L34.1483 61.8617C33.0932 67.7849 31.0669 73.1135 28.303 77.6289C28.0662 78.0159 28.1879 78.5215 28.5748 78.7584C28.9617 78.9952 29.4674 78.8736 29.7042 78.4866C32.5812 73.7865 34.6763 68.2636 35.7653 62.1522C37.0277 55.3004 36.7149 48.2105 34.8658 40.896L34.8636 40.8874C34.0674 37.8756 36.2867 34.5918 39.5182 34.5918C41.8502 34.5918 43.8193 36.3073 44.254 38.6161C45.4497 45.5514 46.0724 51.9827 45.629 57.52C45.5928 57.9722 45.93 58.3682 46.3823 58.4044C46.8345 58.4406 47.2304 58.1034 47.2666 57.6511C47.7263 51.9117 47.0775 45.3221 45.872 38.331C45.8713 38.3271 45.8706 38.3233 45.8699 38.3195Z" fill="#5CFFF3"/>
<path d="M37.0671 73.8964C37.4706 74.1038 37.6296 74.599 37.4223 75.0025L35.2457 79.2382C35.0383 79.6417 34.5431 79.8008 34.1396 79.5934C33.7361 79.3861 33.5771 78.8909 33.7844 78.4873L35.961 74.2516C36.1684 73.8481 36.6636 73.6891 37.0671 73.8964Z" fill="#5CFFF3"/>
<path d="M40.1292 39.1115C40.0254 38.6699 39.5833 38.396 39.1416 38.4997C38.7 38.6035 38.4261 39.0456 38.5298 39.4873C41.2999 51.279 40.9194 61.6333 37.5453 70.4537C37.3832 70.8774 37.5953 71.3523 38.0191 71.5144C38.4428 71.6765 38.9177 71.4644 39.0798 71.0407C42.5979 61.8438 42.9555 51.1427 40.1292 39.1115Z" fill="#5CFFF3"/>
</svg>
