<svg width="12" height="12" viewBox="0 0 12 12" fill="none" xmlns="http://www.w3.org/2000/svg">
<path d="M6.00008 1.99996C6.73341 1.99996 7.33341 2.59996 7.33341 3.33329C7.33341 4.06663 6.73341 4.66663 6.00008 4.66663C5.26675 4.66663 4.66675 4.06663 4.66675 3.33329C4.66675 2.59996 5.26675 1.99996 6.00008 1.99996ZM6.00008 8.66663C7.80008 8.66663 9.86675 9.52663 10.0001 9.99996H2.00008C2.15341 9.51996 4.20675 8.66663 6.00008 8.66663ZM6.00008 0.666626C4.52675 0.666626 3.33341 1.85996 3.33341 3.33329C3.33341 4.80663 4.52675 5.99996 6.00008 5.99996C7.47341 5.99996 8.66675 4.80663 8.66675 3.33329C8.66675 1.85996 7.47341 0.666626 6.00008 0.666626ZM6.00008 7.33329C4.22008 7.33329 0.666748 8.22663 0.666748 9.99996V11.3333H11.3334V9.99996C11.3334 8.22663 7.78008 7.33329 6.00008 7.33329Z" fill="white"/>
</svg>
