<svg width="13" height="14" viewBox="0 0 13 14" fill="none" xmlns="http://www.w3.org/2000/svg">
<path d="M12.5 3.66668L6.5 0.333344L0.5 3.66668V10.3333L6.5 13.6667L12.5 10.3333V3.66668ZM6.5 1.86001L10.44 4.04668L8.43333 5.16001C7.94667 4.65334 7.26 4.33334 6.5 4.33334C5.74 4.33334 5.05333 4.65334 4.56667 5.16001L2.56 4.04668L6.5 1.86001ZM5.83333 11.7733L1.83333 9.55334V5.17334L3.92 6.33334C3.86 6.54001 3.83333 6.76668 3.83333 7.00001C3.83333 8.24001 4.68 9.28668 5.83333 9.58001V11.7733ZM5.16667 7.00001C5.16667 6.26668 5.76667 5.66668 6.5 5.66668C7.23333 5.66668 7.83333 6.26668 7.83333 7.00001C7.83333 7.73334 7.23333 8.33334 6.5 8.33334C5.76667 8.33334 5.16667 7.73334 5.16667 7.00001ZM7.16667 11.7733V9.58668C8.32 9.29334 9.16667 8.24668 9.16667 7.00668C9.16667 6.77334 9.14 6.54668 9.08 6.33334L11.1667 5.17334V9.55334L7.16667 11.7733Z" fill="#BCC3D6"/>
</svg>
