<svg width="24" height="24" viewBox="0 0 24 24" fill="none" xmlns="http://www.w3.org/2000/svg">
<path d="M16.9763 2.36816H7.02349C6.68301 2.36855 6.35658 2.50397 6.11582 2.74473C5.87507 2.98549 5.73964 3.31191 5.73926 3.65239V20.3474C5.73964 20.6879 5.87507 21.0143 6.11582 21.2551C6.35658 21.4958 6.68301 21.6312 7.02349 21.6316H16.9763C17.3168 21.6312 17.6432 21.4958 17.8839 21.2551C18.1247 21.0143 18.2601 20.6879 18.2605 20.3474V3.65239C18.2601 3.31191 18.1247 2.98549 17.8839 2.74473C17.6432 2.50397 17.3168 2.36855 16.9763 2.36816ZM16.9763 3.65239V4.93663H7.02349V3.65239H16.9763ZM16.9763 6.22086L16.9767 15.2105H7.02349V6.22086H16.9763ZM16.9763 20.3474H7.02349V16.4947H16.9769V20.3474H16.9763Z" fill="#5B7DF3" stroke="#5B7DF3" stroke-width="0.3"/>
<path d="M11.3579 17.7793H12.6421V19.0635H11.3579V17.7793Z" fill="#5B7DF3" stroke="#5B7DF3" stroke-width="0.3"/>
</svg>
