<svg width="28" height="28" viewBox="0 0 28 28" fill="none" xmlns="http://www.w3.org/2000/svg">
<path d="M14 0.666626C11.3629 0.666626 8.78508 1.44861 6.59242 2.9137C4.39977 4.37878 2.6908 6.46116 1.68163 8.89751C0.672464 11.3339 0.40842 14.0148 0.922889 16.6012C1.43736 19.1876 2.70724 21.5634 4.57194 23.4281C6.43664 25.2928 8.81241 26.5626 11.3988 27.0771C13.9852 27.5916 16.6661 27.3275 19.1025 26.3184C21.5388 25.3092 23.6212 23.6002 25.0863 21.4076C26.5514 19.2149 27.3334 16.637 27.3334 14C27.3334 12.249 26.9885 10.5152 26.3184 8.89751C25.6484 7.27984 24.6662 5.80998 23.4281 4.57187C22.19 3.33375 20.7201 2.35163 19.1025 1.68157C17.4848 1.0115 15.751 0.666626 14 0.666626ZM14 24.6666C11.1711 24.6666 8.45794 23.5428 6.45755 21.5424C4.45717 19.542 3.33336 16.8289 3.33336 14C3.33041 11.6311 4.12405 9.33002 5.58669 7.46663L20.5334 22.4133C18.67 23.8759 16.3689 24.6696 14 24.6666ZM22.4134 20.5333L7.46669 5.58663C9.33009 4.12398 11.6312 3.33035 14 3.33329C16.829 3.33329 19.5421 4.4571 21.5425 6.45749C23.5429 8.45788 24.6667 11.171 24.6667 14C24.6696 16.3688 23.876 18.6699 22.4134 20.5333Z" fill="white"/>
</svg>
