<svg width="13" height="12" viewBox="0 0 13 12" fill="none" xmlns="http://www.w3.org/2000/svg">
<path d="M8.5 10.3333C6.82667 10.3333 5.38 9.38667 4.66 8H8.5V6.66667H4.22C4.18667 6.44667 4.16667 6.22667 4.16667 6C4.16667 5.77333 4.18667 5.55333 4.22 5.33333H8.5V4H4.66C5.38 2.61333 6.83333 1.66667 8.5 1.66667C9.57333 1.66667 10.56 2.06 11.32 2.71333L12.5 1.53333C11.44 0.58 10.0333 0 8.5 0C5.88667 0 3.67333 1.67333 2.84667 4H0.5V5.33333H2.54C2.51333 5.55333 2.5 5.77333 2.5 6C2.5 6.22667 2.51333 6.44667 2.54 6.66667H0.5V8H2.84667C3.67333 10.3267 5.88667 12 8.5 12C10.04 12 11.44 11.42 12.5 10.4667L11.3133 9.28667C10.56 9.94 9.58 10.3333 8.5 10.3333Z" fill="#BCC3D6"/>
</svg>
