<svg width="12" height="16" viewBox="0 0 12 16" fill="none" xmlns="http://www.w3.org/2000/svg">
<path fill-rule="evenodd" clip-rule="evenodd" d="M8.71004 6.31597L7.15784 7.22066V7.46485L8.52498 6.66807V6.64587L8.71004 6.53797L10.2622 5.63328V3.9269L8.71004 3.02222L7.15784 3.9269V4.04616L8.71004 3.14147V3.38566L7.15784 4.29035V4.53454L8.71004 3.62985V3.87405L7.15784 4.77874V5.02293L8.71004 4.11824V4.36243L7.15784 5.26712V5.51131L8.71004 4.60662V4.85082L7.15784 5.75551V5.99969L8.71004 5.09501V5.3392L7.15784 6.24389V6.48808L8.71004 5.5834V5.82759L7.15784 6.73228V6.97646L8.71004 6.07178V6.31597ZM8.52498 8.86579L7.66629 9.36624H8.08524L8.52498 9.10992V8.86579ZM8.52498 8.37734L7.15784 9.1742V9.36624H7.24727L8.52491 8.62154V8.37734H8.52498ZM8.52498 7.88896L7.15784 8.68581V8.93001L8.52498 8.13316V7.88896ZM8.52498 7.40058L7.15784 8.19743V8.44162L8.52498 7.64477V7.40058ZM8.52498 6.91219L7.15784 7.70904V7.95323L8.52498 7.15639V6.91219Z" fill="#4768DB"/>
<path fill-rule="evenodd" clip-rule="evenodd" d="M3.28944 6.30094L3.08604 6.41943L3.28944 6.53804L3.38194 6.59192L3.4745 6.64587V6.75325V9.36631H4.84158V3.92691L3.28944 3.02222L1.73724 3.92691V4.03106L3.28944 3.12637V3.37057L1.73724 4.27525V4.51945L3.28944 3.61476V3.85902L1.73724 4.76364V5.00783L3.28944 4.10321V4.3474L1.73724 5.25202V5.49622L3.28944 4.59153V4.83579L1.82917 5.68684L2.03864 5.80894L3.28944 5.07998V5.32417L2.24812 5.9311L2.4576 6.0532L3.28944 5.56837V5.81255L2.66708 6.17523L2.87656 6.29739L3.28944 6.05675V6.30094Z" fill="#4768DB"/>
<path fill-rule="evenodd" clip-rule="evenodd" d="M1.55182 8.77875L0.543864 9.36619H0.962822L1.55182 9.02294V9.36619H3.10434V6.86044L1.55182 5.95557L0 6.86006V6.99706L1.55182 6.09257V6.33676L0 7.24125V7.48545L1.55182 6.58096V6.82515L0 7.72964V7.97383L1.55182 7.06934V7.31353L0 8.21802V8.46222L1.55182 7.55779V7.80198L0 8.70641V8.9506L1.55182 8.04617V8.2903L0 9.1948V9.36619H0.124908L1.55182 8.53449V8.77875Z" fill="#4768DB"/>
<path fill-rule="evenodd" clip-rule="evenodd" d="M10.4355 8.83173L9.42753 9.41917H9.84649L10.4355 9.07592V9.41917H11.988V6.91342L10.4355 6.00854L8.88367 6.91304V7.05004L10.4355 6.14555V6.38974L8.88367 7.29423V7.53843L10.4355 6.63394V6.87812L8.88367 7.78262V8.02681L10.4355 7.12232V7.36651L8.88367 8.271V8.5152L10.4355 7.61077V7.85496L8.88367 8.75938V9.00358L10.4355 8.09915V8.34328L8.88367 9.24778V9.41917H9.00857L10.4355 8.58747V8.83173Z" fill="#4768DB"/>
<path d="M3.29871 10.6746L5.99989 16L8.70157 10.6746H3.29871Z" fill="#5B7DF3"/>
<path d="M8.11421 2.93148L6.91803 3.63642L6.83996 3.68194V3.77257V8.9096H5.98267V8.90502V0L8.11421 1.24216V2.93148Z" fill="#4768DB"/>
<mask id="mask0_788_9921" style="mask-type:alpha" maskUnits="userSpaceOnUse" x="3" y="0" width="3" height="9">
<path d="M3.86101 2.93148L5.05719 3.63642L5.13526 3.68194V3.77257V8.9096H5.99255V8.90502V0L3.86101 1.24216V2.93148Z" fill="#156A96"/>
</mask>
<g mask="url(#mask0_788_9921)">
<path fill-rule="evenodd" clip-rule="evenodd" d="M-3.88713 4.11862L-3.94815 4.01015L9.65552 -3.78979L9.71655 -3.68132L-3.88713 4.11862ZM-3.64302 4.5525L-3.76508 4.33556L9.8386 -3.46439L9.96065 -3.24745L-3.64302 4.5525ZM-3.39892 4.98638L-3.52097 4.76944L10.0827 -3.03051L10.2048 -2.81357L-3.39892 4.98638ZM-3.15482 5.42026L-3.27687 5.20332L10.3268 -2.59663L10.4489 -2.37969L-3.15482 5.42026ZM-2.91072 5.85414L-3.03277 5.6372L10.5709 -2.16275L10.693 -1.94581L-2.91072 5.85414ZM-2.66662 6.28802L-2.78867 6.07108L10.815 -1.72887L10.9371 -1.51193L-2.66662 6.28802ZM-2.42252 6.7219L-2.54457 6.50496L11.0591 -1.29499L11.1812 -1.07805L-2.42252 6.7219ZM-2.17842 7.15578L-2.30047 6.93884L11.3032 -0.861108L11.4253 -0.644168L-2.17842 7.15578ZM-1.93432 7.58966L-2.05637 7.37272L11.5473 -0.427229L11.6694 -0.210289L-1.93432 7.58966ZM-1.69022 8.02354L-1.81227 7.8066L11.7914 0.00665092L11.9135 0.22359L-1.69022 8.02354ZM-1.44612 8.45742L-1.56817 8.24048L12.0355 0.44053L12.1576 0.65747L-1.44612 8.45742ZM-1.20202 8.8913L-1.32407 8.67436L12.2796 0.87441L12.4017 1.09135L-1.20202 8.8913ZM-0.957916 9.32518L-1.07997 9.10824L12.5237 1.30829L12.6458 1.52523L-0.957916 9.32518ZM-0.713816 9.75906L-0.835866 9.54212L12.7678 1.74217L12.8899 1.95911L-0.713816 9.75906ZM-0.469715 10.1929L-0.591766 9.976L13.0119 2.17605L13.134 2.39299L-0.469715 10.1929ZM-0.225615 10.6268L-0.347665 10.4099L13.256 2.60993L13.3781 2.82687L-0.225615 10.6268ZM0.018486 11.0607L-0.103564 10.8438L13.5001 3.04381L13.6222 3.26075L0.018486 11.0607ZM0.262587 11.4946L0.140537 11.2776L13.7442 3.47769L13.8663 3.69463L0.262587 11.4946ZM0.506688 11.9285L0.384637 11.7115L13.9883 3.91157L14.1104 4.12851L0.506688 11.9285ZM0.689765 12.2539L0.628738 12.1454L14.2324 4.34544L14.2934 4.45392L0.689765 12.2539Z" fill="#4768DB"/>
</g>
<path d="M3.29871 10.6745L5.99989 9.34839L8.70157 10.6745H3.29871Z" fill="#A2CDFF"/>
<path d="M3.29861 10.6745L5.9998 16L0.000427246 9.34839L3.29861 10.6745Z" fill="#1F57A4"/>
<path d="M8.70155 10.6745L6.00049 16L12 9.34839L8.70155 10.6745Z" fill="#5B7DF3"/>
<path d="M7.3941 8.43408L12 9.34835L8.70129 10.6745L7.3941 8.43408Z" fill="#1F57A4"/>
<path d="M4.60599 8.43408L0 9.34835L3.29868 10.6745L4.60599 8.43408Z" fill="#1B165A"/>
<path opacity="0.8" d="M4.60645 8.43425L5.99982 2.69653L7.39407 8.43425H4.60645Z" fill="#A2CDFF"/>
<path d="M4.60645 8.43433L5.99982 9.3486L7.39407 8.43433H4.60645Z" fill="#5B7DF3"/>
<path opacity="0.8" d="M4.60642 8.43425L5.9998 2.69653L0.000427246 9.34852L4.60642 8.43425Z" fill="#5B7DF3"/>
<path opacity="0.7" d="M7.39399 8.43425L6.00037 2.69653L11.9999 9.34852L7.39399 8.43425Z" fill="#8BDAFF"/>
<path d="M5.99976 9.3486L8.70144 10.6747L7.39363 8.43433L5.99976 9.3486Z" fill="#1B165A"/>
<path d="M5.99978 9.3486L3.29822 10.6747L4.6064 8.43433L5.99978 9.3486Z" fill="#1F57A4"/>
<path opacity="0.5" d="M12 9.34836L7.39374 8.43408L10.0406 7.17578L12 9.34836Z" fill="#A2CDFF"/>
<path opacity="0.5" d="M0.000427246 9.34836L4.60679 8.43408L1.95984 7.17578L0.000427246 9.34836Z" fill="#1F57A4"/>
</svg>
