<svg width="14" height="14" viewBox="0 0 14 14" fill="none" xmlns="http://www.w3.org/2000/svg">
<path d="M6.99325 0.333374C3.31325 0.333374 0.333252 3.32004 0.333252 7.00004C0.333252 10.68 3.31325 13.6667 6.99325 13.6667C10.6799 13.6667 13.6666 10.68 13.6666 7.00004C13.6666 3.32004 10.6799 0.333374 6.99325 0.333374ZM11.6133 4.33337H9.64659C9.43325 3.50004 9.12659 2.70004 8.72659 1.96004C9.95325 2.38004 10.9733 3.23337 11.6133 4.33337ZM6.99992 1.69337C7.55325 2.49337 7.98659 3.38004 8.27325 4.33337H5.72659C6.01325 3.38004 6.44659 2.49337 6.99992 1.69337ZM1.83992 8.33337C1.73325 7.90671 1.66659 7.46004 1.66659 7.00004C1.66659 6.54004 1.73325 6.09337 1.83992 5.66671H4.09325C4.03992 6.10671 3.99992 6.54671 3.99992 7.00004C3.99992 7.45337 4.03992 7.89337 4.09325 8.33337H1.83992ZM2.38659 9.66671H4.35325C4.56659 10.5 4.87325 11.3 5.27325 12.04C4.04659 11.62 3.02659 10.7734 2.38659 9.66671ZM4.35325 4.33337H2.38659C3.02659 3.22671 4.04659 2.38004 5.27325 1.96004C4.87325 2.70004 4.56659 3.50004 4.35325 4.33337ZM6.99992 12.3067C6.44659 11.5067 6.01325 10.62 5.72659 9.66671H8.27325C7.98659 10.62 7.55325 11.5067 6.99992 12.3067ZM8.55992 8.33337H5.43992C5.37992 7.89337 5.33325 7.45337 5.33325 7.00004C5.33325 6.54671 5.37992 6.10004 5.43992 5.66671H8.55992C8.61992 6.10004 8.66659 6.54671 8.66659 7.00004C8.66659 7.45337 8.61992 7.89337 8.55992 8.33337ZM8.72659 12.04C9.12659 11.3 9.43325 10.5 9.64659 9.66671H11.6133C10.9733 10.7667 9.95325 11.62 8.72659 12.04ZM9.90659 8.33337C9.95992 7.89337 9.99992 7.45337 9.99992 7.00004C9.99992 6.54671 9.95992 6.10671 9.90659 5.66671H12.1599C12.2666 6.09337 12.3333 6.54004 12.3333 7.00004C12.3333 7.46004 12.2666 7.90671 12.1599 8.33337H9.90659Z" fill="white"/>
</svg>
