<svg width="17" height="16" viewBox="0 0 17 16" fill="none" xmlns="http://www.w3.org/2000/svg">
<path d="M8.39998 5.33335C9.13332 5.33335 9.73332 4.73335 9.73332 4.00002C9.73332 3.26669 9.13332 2.66669 8.39998 2.66669C7.66665 2.66669 7.06665 3.26669 7.06665 4.00002C7.06665 4.73335 7.66665 5.33335 8.39998 5.33335ZM8.39998 6.66669C7.66665 6.66669 7.06665 7.26669 7.06665 8.00002C7.06665 8.73335 7.66665 9.33335 8.39998 9.33335C9.13332 9.33335 9.73332 8.73335 9.73332 8.00002C9.73332 7.26669 9.13332 6.66669 8.39998 6.66669ZM8.39998 10.6667C7.66665 10.6667 7.06665 11.2667 7.06665 12C7.06665 12.7334 7.66665 13.3334 8.39998 13.3334C9.13332 13.3334 9.73332 12.7334 9.73332 12C9.73332 11.2667 9.13332 10.6667 8.39998 10.6667Z" fill="#BCC3D6"/>
</svg>
