<svg width="12" height="14" viewBox="0 0 12 14" fill="none" xmlns="http://www.w3.org/2000/svg">
<path d="M10.6667 1.99996H7.88C7.6 1.22663 6.86667 0.666626 6 0.666626C5.13333 0.666626 4.4 1.22663 4.12 1.99996H1.33333C0.6 1.99996 0 2.59996 0 3.33329V12.6666C0 13.4 0.6 14 1.33333 14H10.6667C11.4 14 12 13.4 12 12.6666V3.33329C12 2.59996 11.4 1.99996 10.6667 1.99996ZM6 1.83329C6.14667 1.83329 6.27333 1.89996 6.36667 1.99996C6.44667 2.08663 6.5 2.20663 6.5 2.33329C6.5 2.60663 6.27333 2.83329 6 2.83329C5.72667 2.83329 5.5 2.60663 5.5 2.33329C5.5 2.20663 5.55333 2.08663 5.63333 1.99996C5.72667 1.89996 5.85333 1.83329 6 1.83329ZM10.6667 12.6666H1.33333V3.33329H10.6667V12.6666ZM6 3.99996C4.9 3.99996 4 4.89996 4 5.99996C4 7.09996 4.9 7.99996 6 7.99996C7.1 7.99996 8 7.09996 8 5.99996C8 4.89996 7.1 3.99996 6 3.99996ZM6 6.66663C5.63333 6.66663 5.33333 6.36663 5.33333 5.99996C5.33333 5.63329 5.63333 5.33329 6 5.33329C6.36667 5.33329 6.66667 5.63329 6.66667 5.99996C6.66667 6.36663 6.36667 6.66663 6 6.66663ZM2 10.98V12H10V10.98C10 9.31329 7.35333 8.59329 6 8.59329C4.64667 8.59329 2 9.30663 2 10.98ZM3.54 10.6666C4 10.2933 5.12667 9.91996 6 9.91996C6.87333 9.91996 8.00667 10.2933 8.46 10.6666H3.54Z" fill="white"/>
</svg>
