<svg width="12" height="16" viewBox="0 0 12 16" fill="none" xmlns="http://www.w3.org/2000/svg">
<path fill-rule="evenodd" clip-rule="evenodd" d="M8.71004 6.31603L7.15784 7.22072V7.46491L8.52498 6.66813V6.64593L8.71004 6.53803L10.2622 5.63334V3.92696L8.71004 3.02228L7.15784 3.92696V4.04622L8.71004 3.14153V3.38572L7.15784 4.29041V4.5346L8.71004 3.62991V3.87411L7.15784 4.7788V5.02299L8.71004 4.1183V4.36249L7.15784 5.26718V5.51137L8.71004 4.60668V4.85088L7.15784 5.75557V5.99976L8.71004 5.09507V5.33926L7.15784 6.24395V6.48814L8.71004 5.58346V5.82765L7.15784 6.73234V6.97652L8.71004 6.07184V6.31603ZM8.52498 8.86585L7.66629 9.36631H8.08524L8.52498 9.10999V8.86585ZM8.52498 8.3774L7.15784 9.17426V9.36631H7.24727L8.52491 8.6216V8.3774H8.52498ZM8.52498 7.88902L7.15784 8.68587V8.93007L8.52498 8.13322V7.88902ZM8.52498 7.40064L7.15784 8.19749V8.44168L8.52498 7.64483V7.40064ZM8.52498 6.91225L7.15784 7.70911V7.95329L8.52498 7.15645V6.91225Z" fill="#4768DB"/>
<path fill-rule="evenodd" clip-rule="evenodd" d="M3.28951 6.301L3.0861 6.41949L3.28951 6.5381L3.382 6.59198L3.47456 6.64593V6.75331V9.36638H4.84164V3.92697L3.28951 3.02228L1.7373 3.92697V4.03112L3.28951 3.12643V3.37063L1.7373 4.27531V4.51951L3.28951 3.61482V3.85908L1.7373 4.7637V5.00789L3.28951 4.10327V4.34746L1.7373 5.25208V5.49628L3.28951 4.59159V4.83585L1.82923 5.68691L2.03871 5.809L3.28951 5.08004V5.32423L2.24818 5.93117L2.45766 6.05326L3.28951 5.56843V5.81262L2.66714 6.17529L2.87662 6.29746L3.28951 6.05681V6.301Z" fill="#4768DB"/>
<path fill-rule="evenodd" clip-rule="evenodd" d="M1.55182 8.77894L0.543864 9.36637H0.962822L1.55182 9.02312V9.36637H3.10434V6.86063L1.55182 5.95575L0 6.86024V6.99725L1.55182 6.09276V6.33694L0 7.24144V7.48563L1.55182 6.58114V6.82533L0 7.72982V7.97402L1.55182 7.06952V7.31371L0 8.2182V8.4624L1.55182 7.55797V7.80217L0 8.70659V8.95079L1.55182 8.04636V8.29048L0 9.19498V9.36637H0.124908L1.55182 8.53468V8.77894Z" fill="#4768DB"/>
<path fill-rule="evenodd" clip-rule="evenodd" d="M10.4355 8.83179L9.42753 9.41923H9.84649L10.4355 9.07598V9.41923H11.988V6.91348L10.4355 6.00861L8.88367 6.9131V7.0501L10.4355 6.14561V6.3898L8.88367 7.29429V7.53849L10.4355 6.634V6.87818L8.88367 7.78268V8.02687L10.4355 7.12238V7.36657L8.88367 8.27106V8.51526L10.4355 7.61083V7.85502L8.88367 8.75945V9.00364L10.4355 8.09921V8.34334L8.88367 9.24784V9.41923H9.00857L10.4355 8.58753V8.83179Z" fill="#4768DB"/>
<path d="M3.29871 10.6745L5.99989 16L8.70157 10.6745H3.29871Z" fill="#5B7DF3"/>
<path d="M8.11415 2.93148L6.91797 3.63642L6.8399 3.68194V3.77257V8.9096H5.98261V8.90502V0L8.11415 1.24216V2.93148Z" fill="#4768DB"/>
<mask id="mask0_1757_15698" style="mask-type:alpha" maskUnits="userSpaceOnUse" x="3" y="0" width="3" height="9">
<path d="M3.86095 2.93148L5.05713 3.63642L5.1352 3.68194V3.77257V8.9096H5.99249V8.90502V0L3.86095 1.24216V2.93148Z" fill="#156A96"/>
</mask>
<g mask="url(#mask0_1757_15698)">
<path fill-rule="evenodd" clip-rule="evenodd" d="M-3.88722 4.11868L-3.94824 4.01021L9.65543 -3.78973L9.71646 -3.68126L-3.88722 4.11868ZM-3.64312 4.55256L-3.76517 4.33562L9.83851 -3.46432L9.96056 -3.24738L-3.64312 4.55256ZM-3.39902 4.98644L-3.52107 4.7695L10.0826 -3.03044L10.2047 -2.8135L-3.39902 4.98644ZM-3.15491 5.42032L-3.27697 5.20338L10.3267 -2.59656L10.4488 -2.37962L-3.15491 5.42032ZM-2.91081 5.8542L-3.03286 5.63726L10.5708 -2.16269L10.6929 -1.94575L-2.91081 5.8542ZM-2.66671 6.28808L-2.78876 6.07114L10.8149 -1.72881L10.937 -1.51187L-2.66671 6.28808ZM-2.42261 6.72196L-2.54466 6.50502L11.059 -1.29493L11.1811 -1.07799L-2.42261 6.72196ZM-2.17851 7.15584L-2.30056 6.9389L11.3031 -0.861047L11.4252 -0.644107L-2.17851 7.15584ZM-1.93441 7.58972L-2.05646 7.37278L11.5472 -0.427168L11.6693 -0.210228L-1.93441 7.58972ZM-1.69031 8.0236L-1.81236 7.80666L11.7913 0.00671196L11.9134 0.223651L-1.69031 8.0236ZM-1.44621 8.45748L-1.56826 8.24054L12.0354 0.440591L12.1575 0.657531L-1.44621 8.45748ZM-1.20211 8.89136L-1.32416 8.67442L12.2795 0.874471L12.4016 1.09141L-1.20211 8.89136ZM-0.958008 9.32524L-1.08006 9.1083L12.5236 1.30835L12.6457 1.52529L-0.958008 9.32524ZM-0.713908 9.75912L-0.835958 9.54218L12.7677 1.74223L12.8898 1.95917L-0.713908 9.75912ZM-0.469807 10.193L-0.591857 9.97606L13.0118 2.17611L13.1339 2.39305L-0.469807 10.193ZM-0.225706 10.6269L-0.347756 10.4099L13.2559 2.60999L13.378 2.82693L-0.225706 10.6269ZM0.0183945 11.0608L-0.103656 10.8438L13.5 3.04387L13.6221 3.26081L0.0183945 11.0608ZM0.262496 11.4946L0.140445 11.2777L13.7441 3.47775L13.8662 3.69469L0.262496 11.4946ZM0.506596 11.9285L0.384546 11.7116L13.9882 3.91163L14.1103 4.12857L0.506596 11.9285ZM0.689673 12.2539L0.628646 12.1455L14.2323 4.34551L14.2933 4.45398L0.689673 12.2539Z" fill="#4768DB"/>
</g>
<path d="M3.29871 10.6745L5.99989 9.34839L8.70157 10.6745H3.29871Z" fill="#A2CDFF"/>
<path d="M3.29867 10.6745L5.99986 16L0.000488281 9.34839L3.29867 10.6745Z" fill="#1F57A4"/>
<path d="M8.70155 10.6745L6.00049 16L12 9.34839L8.70155 10.6745Z" fill="#5B7DF3"/>
<path d="M7.39404 8.43414L11.9999 9.34842L8.70123 10.6745L7.39404 8.43414Z" fill="#1F57A4"/>
<path d="M4.60599 8.43414L0 9.34842L3.29868 10.6745L4.60599 8.43414Z" fill="#1B165A"/>
<path opacity="0.8" d="M4.60645 8.43413L5.99982 2.69641L7.39407 8.43413H4.60645Z" fill="#A2CDFF"/>
<path d="M4.60645 8.43408L5.99982 9.34836L7.39407 8.43408H4.60645Z" fill="#5B7DF3"/>
<path opacity="0.8" d="M4.60648 8.43419L5.99986 2.69647L0.000488281 9.34846L4.60648 8.43419Z" fill="#5B7DF3"/>
<path opacity="0.7" d="M7.39411 8.43413L6.00049 2.69641L12 9.3484L7.39411 8.43413Z" fill="#8BDAFF"/>
<path d="M5.99988 9.34835L8.70156 10.6745L7.39375 8.43408L5.99988 9.34835Z" fill="#1B165A"/>
<path d="M5.9999 9.34835L3.29834 10.6745L4.60652 8.43408L5.9999 9.34835Z" fill="#1F57A4"/>
<path opacity="0.5" d="M12 9.34842L7.3938 8.43414L10.0406 7.17584L12 9.34842Z" fill="#A2CDFF"/>
<path opacity="0.5" d="M0.000488281 9.34842L4.60686 8.43414L1.9599 7.17584L0.000488281 9.34842Z" fill="#1F57A4"/>
</svg>
