<svg width="21" height="20" viewBox="0 0 21 20" fill="none" xmlns="http://www.w3.org/2000/svg">
<path d="M17.93 10.98C17.97 10.66 18 10.34 18 10C18 9.66 17.97 9.34 17.93 9.02L20.04 7.37C20.23 7.22 20.28 6.95 20.16 6.73L18.16 3.27C18.07 3.11 17.9 3.02 17.72 3.02C17.66 3.02 17.6 3.03 17.55 3.05L15.06 4.05C14.54 3.65 13.98 3.32 13.37 3.07L12.99 0.42C12.96 0.18 12.75 0 12.5 0H8.49996C8.24996 0 8.03996 0.18 8.00996 0.42L7.62996 3.07C7.01996 3.32 6.45996 3.66 5.93996 4.05L3.44996 3.05C3.38996 3.03 3.32996 3.02 3.26996 3.02C3.09996 3.02 2.92996 3.11 2.83996 3.27L0.839961 6.73C0.709961 6.95 0.769962 7.22 0.959962 7.37L3.06996 9.02C3.02996 9.34 2.99996 9.67 2.99996 10C2.99996 10.33 3.02996 10.66 3.06996 10.98L0.959962 12.63C0.769962 12.78 0.719961 13.05 0.839961 13.27L2.83996 16.73C2.92996 16.89 3.09996 16.98 3.27996 16.98C3.33996 16.98 3.39996 16.97 3.44996 16.95L5.93996 15.95C6.45996 16.35 7.01996 16.68 7.62996 16.93L8.00996 19.58C8.03996 19.82 8.24996 20 8.49996 20H12.5C12.75 20 12.96 19.82 12.99 19.58L13.37 16.93C13.98 16.68 14.54 16.34 15.06 15.95L17.55 16.95C17.61 16.97 17.67 16.98 17.73 16.98C17.9 16.98 18.07 16.89 18.16 16.73L20.16 13.27C20.28 13.05 20.23 12.78 20.04 12.63L17.93 10.98ZM15.95 9.27C15.99 9.58 16 9.79 16 10C16 10.21 15.98 10.43 15.95 10.73L15.81 11.86L16.7 12.56L17.78 13.4L17.08 14.61L15.81 14.1L14.77 13.68L13.87 14.36C13.44 14.68 13.03 14.92 12.62 15.09L11.56 15.52L11.4 16.65L11.2 18H9.79996L9.60996 16.65L9.44996 15.52L8.38996 15.09C7.95996 14.91 7.55996 14.68 7.15996 14.38L6.24996 13.68L5.18996 14.11L3.91996 14.62L3.21996 13.41L4.29996 12.57L5.18996 11.87L5.04996 10.74C5.01996 10.43 4.99996 10.2 4.99996 10C4.99996 9.8 5.01996 9.57 5.04996 9.27L5.18996 8.14L4.29996 7.44L3.21996 6.6L3.91996 5.39L5.18996 5.9L6.22996 6.32L7.12996 5.64C7.55996 5.32 7.96996 5.08 8.37996 4.91L9.43996 4.48L9.59996 3.35L9.79996 2H11.19L11.38 3.35L11.54 4.48L12.6 4.91C13.03 5.09 13.43 5.32 13.83 5.62L14.74 6.32L15.8 5.89L17.07 5.38L17.77 6.59L16.7 7.44L15.81 8.14L15.95 9.27ZM10.5 6C8.28996 6 6.49996 7.79 6.49996 10C6.49996 12.21 8.28996 14 10.5 14C12.71 14 14.5 12.21 14.5 10C14.5 7.79 12.71 6 10.5 6ZM10.5 12C9.39996 12 8.49996 11.1 8.49996 10C8.49996 8.9 9.39996 8 10.5 8C11.6 8 12.5 8.9 12.5 10C12.5 11.1 11.6 12 10.5 12Z" fill=""/>
</svg>
