<svg width="28" height="28" viewBox="0 0 28 28" fill="none" xmlns="http://www.w3.org/2000/svg">
<path d="M17.6267 9.71999L11.9067 15.4533L9.70669 13.2533C9.58716 13.1137 9.44007 13.0004 9.27465 12.9204C9.10923 12.8403 8.92906 12.7954 8.74543 12.7883C8.56181 12.7812 8.3787 12.8121 8.2076 12.8791C8.0365 12.9462 7.8811 13.0478 7.75116 13.1778C7.62122 13.3077 7.51954 13.4631 7.45251 13.6342C7.38548 13.8053 7.35454 13.9884 7.36163 14.1721C7.36872 14.3557 7.41369 14.5359 7.49373 14.7013C7.57376 14.8667 7.68712 15.0138 7.82669 15.1333L10.96 18.28C11.0846 18.4036 11.2324 18.5013 11.3948 18.5677C11.5573 18.634 11.7312 18.6677 11.9067 18.6667C12.2565 18.6652 12.5917 18.5263 12.84 18.28L19.5067 11.6133C19.6317 11.4894 19.7309 11.3419 19.7985 11.1794C19.8662 11.0169 19.9011 10.8427 19.9011 10.6667C19.9011 10.4906 19.8662 10.3164 19.7985 10.1539C19.7309 9.99141 19.6317 9.84394 19.5067 9.71999C19.2569 9.47166 18.9189 9.33227 18.5667 9.33227C18.2144 9.33227 17.8765 9.47166 17.6267 9.71999ZM14 0.666656C11.3629 0.666656 8.78508 1.44864 6.59242 2.91373C4.39977 4.37881 2.6908 6.4612 1.68163 8.89754C0.672464 11.3339 0.40842 14.0148 0.922889 16.6012C1.43736 19.1876 2.70724 21.5634 4.57194 23.4281C6.43664 25.2928 8.81241 26.5627 11.3988 27.0771C13.9852 27.5916 16.6661 27.3276 19.1025 26.3184C21.5388 25.3092 23.6212 23.6002 25.0863 21.4076C26.5514 19.2149 27.3334 16.6371 27.3334 14C27.3334 12.249 26.9885 10.5152 26.3184 8.89754C25.6484 7.27987 24.6662 5.81001 23.4281 4.5719C22.19 3.33379 20.7201 2.35166 19.1025 1.6816C17.4848 1.01153 15.751 0.666656 14 0.666656ZM14 24.6667C11.8904 24.6667 9.82807 24.0411 8.07394 22.869C6.31982 21.6969 4.95265 20.031 4.14531 18.0819C3.33798 16.1329 3.12674 13.9882 3.53832 11.919C3.94989 9.8499 4.96579 7.94928 6.45755 6.45752C7.94931 4.96576 9.84993 3.94986 11.9191 3.53828C13.9882 3.1267 16.1329 3.33794 18.082 4.14528C20.0311 4.95261 21.697 6.31978 22.869 8.07391C24.0411 9.82803 24.6667 11.8903 24.6667 14C24.6667 16.829 23.5429 19.5421 21.5425 21.5425C19.5421 23.5429 16.829 24.6667 14 24.6667Z" fill="#363F60"/>
</svg>
