<svg width="13" height="16" viewBox="0 0 13 16" fill="none" xmlns="http://www.w3.org/2000/svg">
<path d="M6.33325 15.7266V13.3266C2.99325 13.1533 0.333252 10.38 0.333252 6.99996C0.333252 3.50663 3.17325 0.666626 6.66659 0.666626C10.1599 0.666626 12.9999 3.50663 12.9999 6.99996C12.9999 10.3 10.7066 13.62 7.28659 15.2666L6.33325 15.7266ZM6.66659 1.99996C3.90659 1.99996 1.66659 4.23996 1.66659 6.99996C1.66659 9.75996 3.90659 12 6.66659 12H7.66659V13.5333C10.0933 12 11.6666 9.47996 11.6666 6.99996C11.6666 4.23996 9.42659 1.99996 6.66659 1.99996ZM5.99992 9.66663H7.33325V11H5.99992V9.66663ZM7.33325 8.66663H5.99992C5.99992 6.49996 7.99992 6.66663 7.99992 5.33329C7.99992 4.59996 7.39992 3.99996 6.66659 3.99996C5.93325 3.99996 5.33325 4.59996 5.33325 5.33329H3.99992C3.99992 3.85996 5.19325 2.66663 6.66659 2.66663C8.13992 2.66663 9.33325 3.85996 9.33325 5.33329C9.33325 6.99996 7.33325 7.16663 7.33325 8.66663Z" fill="white"/>
</svg>
