<svg width="51" height="68" viewBox="0 0 51 68" fill="none" xmlns="http://www.w3.org/2000/svg">
<path d="M14.0193 45.3667L25.4993 68L36.9815 45.3667H14.0193Z" fill="#5B7DF3"/>
<path d="M34.4853 12.4588L29.4016 15.4548L29.0698 15.6483V16.0334V37.8658H25.4263V37.8463V0L34.4853 5.2792V12.4588Z" fill="#4768DB"/>
<mask id="mask0_2023_3444" style="mask-type:alpha" maskUnits="userSpaceOnUse" x="16" y="0" width="10" height="38">
<path d="M16.4092 12.4588L21.4929 15.4548L21.8248 15.6483V16.0334V37.8658H25.4682V37.8463V0L16.4092 5.2792V12.4588Z" fill="#156A96"/>
</mask>
<g mask="url(#mask0_2023_3444)">
<path fill-rule="evenodd" clip-rule="evenodd" d="M-16.5207 17.5045L-16.78 17.0435L41.0356 -16.1063L41.2949 -15.6453L-16.5207 17.5045ZM-15.4832 19.3484L-16.002 18.4264L41.8136 -14.7233L42.3324 -13.8013L-15.4832 19.3484ZM-14.4458 21.1924L-14.9645 20.2704L42.8511 -12.8793L43.3698 -11.9573L-14.4458 21.1924ZM-13.4084 23.0364L-13.9271 22.1144L43.8885 -11.0354L44.4072 -10.1134L-13.4084 23.0364ZM-12.371 24.8804L-12.8897 23.9584L44.9259 -9.19137L45.4446 -8.26937L-12.371 24.8804ZM-11.3335 26.7244L-11.8522 25.8024L45.9634 -7.34738L46.4821 -6.42538L-11.3335 26.7244ZM-10.2961 28.5684L-10.8148 27.6464L47.0008 -5.50339L47.5195 -4.5814L-10.2961 28.5684ZM-9.25868 30.4124L-9.77739 29.4904L48.0382 -3.6594L48.5569 -2.73741L-9.25868 30.4124ZM-8.22125 32.2564L-8.73996 31.3344L49.0756 -1.81542L49.5944 -0.893422L-8.22125 32.2564ZM-7.18382 34.1003L-7.70253 33.1784L50.1131 0.0285721L50.6318 0.950565L-7.18382 34.1003ZM-6.14639 35.9443L-6.66511 35.0223L51.1505 1.87256L51.6692 2.79455L-6.14639 35.9443ZM-5.10896 37.7883L-5.62768 36.8663L52.1879 3.71655L52.7066 4.63854L-5.10896 37.7883ZM-4.07154 39.6323L-4.59025 38.7103L53.2253 5.56054L53.7441 6.48253L-4.07154 39.6323ZM-3.03411 41.4763L-3.55282 40.5543L54.2628 7.40452L54.7815 8.32652L-3.03411 41.4763ZM-1.99668 43.3203L-2.5154 42.3983L55.3002 9.24851L55.8189 10.1705L-1.99668 43.3203ZM-0.959254 45.1643L-1.47797 44.2423L56.3376 11.0925L56.8564 12.0145L-0.959254 45.1643ZM0.0781746 47.0083L-0.440538 46.0863L57.3751 12.9365L57.8938 13.8585L0.0781746 47.0083ZM1.1156 48.8522L0.596889 47.9303L58.4125 14.7805L58.9312 15.7025L1.1156 48.8522ZM2.15303 50.6962L1.63432 49.7742L59.4499 16.6245L59.9686 17.5465L2.15303 50.6962ZM2.93111 52.0792L2.67175 51.6182L60.4874 18.4684L60.7467 18.9295L2.93111 52.0792Z" fill="#4768DB"/>
</g>
<path d="M14.0193 45.3667L25.4993 39.7307L36.9815 45.3667H14.0193Z" fill="#A2CDFF"/>
<path d="M14.0192 45.3668L25.4993 68L0.00195312 39.7307L14.0192 45.3668Z" fill="#1F57A4"/>
<path d="M36.9817 45.3668L25.5022 68L51 39.7307L36.9817 45.3668Z" fill="#5B7DF3"/>
<path d="M31.4248 35.845L50.9997 39.7306L36.9803 45.3667L31.4248 35.845Z" fill="#1F57A4"/>
<path d="M19.5755 35.845L0 39.7306L14.0194 45.3667L19.5755 35.845Z" fill="#1B165A"/>
<path opacity="0.8" d="M19.5774 35.8451L25.4992 11.4598L31.4248 35.8451H19.5774Z" fill="#A2CDFF"/>
<path d="M19.5774 35.845L25.4992 39.7306L31.4248 35.845H19.5774Z" fill="#5B7DF3"/>
<path opacity="0.8" d="M19.5774 35.8451L25.4993 11.4598L0.00195312 39.7308L19.5774 35.8451Z" fill="#5B7DF3"/>
<path opacity="0.7" d="M31.4249 35.8451L25.502 11.4598L50.9998 39.7308L31.4249 35.8451Z" fill="#8BDAFF"/>
<path d="M25.4993 39.7306L36.9814 45.3667L31.4232 35.845L25.4993 39.7306Z" fill="#1B165A"/>
<path d="M25.4992 39.7306L14.0176 45.3667L19.5773 35.845L25.4992 39.7306Z" fill="#1F57A4"/>
<path opacity="0.5" d="M50.9998 39.7309L31.4233 35.8452L42.6724 30.4974L50.9998 39.7309Z" fill="#A2CDFF"/>
<path opacity="0.5" d="M0.00195312 39.7309L19.579 35.8452L8.32945 30.4974L0.00195312 39.7309Z" fill="#1F57A4"/>
</svg>
