<svg width="19" height="20" viewBox="0 0 19 20" fill="none" xmlns="http://www.w3.org/2000/svg">
<path d="M17.47 4.43L9.5 0L1.53 4.43L6.6 7.24C7.33 6.48 8.36 6 9.5 6C10.64 6 11.67 6.48 12.4 7.24L17.47 4.43ZM7.5 10C7.5 8.9 8.4 8 9.5 8C10.6 8 11.5 8.9 11.5 10C11.5 11.1 10.6 12 9.5 12C8.4 12 7.5 11.1 7.5 10ZM8.5 19.44L0.5 15V6.14L5.63 8.99C5.54 9.31 5.5 9.65 5.5 10C5.5 11.86 6.77 13.43 8.5 13.87V19.44ZM10.5 19.44V13.87C12.23 13.43 13.5 11.86 13.5 10C13.5 9.65 13.46 9.31 13.37 8.99L18.5 6.14V15L10.5 19.44Z" fill=""/>
</svg>
