<svg width="189" height="126" viewBox="0 0 189 126" fill="none" xmlns="http://www.w3.org/2000/svg">
<g style="mix-blend-mode:lighten">
<ellipse cx="94.5" cy="66.5" rx="94" ry="56.5" fill="url(#paint0_radial_2944_16948)"/>
</g>
<path d="M158.698 20.1878V8.01995L148.136 1.93604L137.575 8.01995V20.1878L148.136 26.2717L158.698 20.1878Z" fill="#5CFFF3"/>
<path d="M148.136 14.1039L137.575 8.01995L148.136 1.93604L158.698 8.01995L148.136 14.1039Z" fill="#5CFFF3"/>
<path d="M158.697 20.1878L148.136 26.2718V14.1039L158.697 8.02002V20.1878Z" fill="#A3FFF8"/>
<path d="M148.136 26.2718L137.575 20.1878V8.02002L148.136 14.1039V26.2718Z" fill="#51CFC6"/>
<path d="M47.9076 19.3007V12.1918L41.7379 8.64331L35.5742 12.1918V19.3007L41.7379 22.8491L47.9076 19.3007Z" fill="#5CFFF3"/>
<path d="M41.7379 15.7462L35.5742 12.1918L41.7379 8.64331L47.9016 12.1918L41.7379 15.7462Z" fill="#5CFFF3"/>
<path d="M47.9075 19.3007L41.7378 22.8491V15.7462L47.9075 12.1918V19.3007Z" fill="#A3FFF8"/>
<path d="M41.7379 22.8491L35.5742 19.3007V12.1918L41.7379 15.7462V22.8491Z" fill="#51CFC6"/>
<path d="M34.1443 17.6584V13.8342L30.8221 11.9221L27.5 13.8342V17.6584L30.8221 19.5705L34.1443 17.6584Z" fill="#5CFFF3"/>
<path d="M30.8221 15.7463L27.5 13.8342L30.8221 11.9221L34.1443 13.8342L30.8221 15.7463Z" fill="#5CFFF3"/>
<path d="M34.1444 17.6583L30.8223 19.5704V15.7462L34.1444 13.8341V17.6583Z" fill="#A3FFF8"/>
<path d="M30.8221 19.5704L27.5 17.6583V13.8341L30.8221 15.7462V19.5704Z" fill="#51CFC6"/>
<path d="M98.5865 29.035L73.3911 14.5175L98.5865 0L123.788 14.5175L98.5865 29.035Z" fill="#312A91"/>
<path d="M98.5865 29.035L73.3911 14.5175L98.5865 0L123.788 14.5175L98.5865 29.035Z" fill="url(#paint1_linear_2944_16948)"/>
<path d="M98.5866 76.4955C98.5279 76.4958 98.4701 76.4814 98.4184 76.4535L73.217 61.936C73.1663 61.9054 73.1242 61.8624 73.0947 61.811C73.0653 61.7596 73.0495 61.7015 73.0488 61.6423C73.049 61.5822 73.0646 61.5232 73.094 61.4707C73.1234 61.4183 73.1658 61.3742 73.217 61.3426L98.4485 46.8311C98.5007 46.8017 98.5597 46.7863 98.6197 46.7863C98.6797 46.7863 98.7386 46.8017 98.7909 46.8311L123.992 61.3486C124.046 61.378 124.091 61.4214 124.122 61.4741C124.154 61.5268 124.17 61.587 124.17 61.6483C124.17 61.7096 124.154 61.7698 124.122 61.8225C124.091 61.8752 124.046 61.9186 123.992 61.948L98.7909 76.4655C98.7273 76.4955 98.6562 76.5059 98.5866 76.4955ZM74.0701 61.6423L98.5866 75.7642L123.109 61.6423L98.5866 47.5204L74.0701 61.6423Z" fill="#FCCC6B"/>
<path opacity="0.3" d="M98.5865 70.9989L82.3423 61.6423L98.5865 52.2797L114.837 61.6423L98.5865 70.9989Z" fill="#0B0244"/>
<g style="mix-blend-mode:overlay" opacity="0.8">
<path d="M74.4064 14.5175L99.0971 0.293706L98.5865 0L73.3911 14.5175L98.5865 29.035L99.0971 28.7413L74.4064 14.5175Z" fill="url(#paint2_linear_2944_16948)" style="mix-blend-mode:lighten"/>
</g>
<path d="M98.5865 25.2768L79.9092 14.5175L98.5865 3.7583L117.27 14.5175L98.5865 25.2768Z" fill="#5CFFF3"/>
<path d="M98.5865 6.21584L115.131 15.7463L117.27 14.5175L98.5865 3.7583L79.9092 14.5175L82.0478 15.7463L98.5865 6.21584Z" fill="#5CFFF3"/>
<path d="M98.5865 58.0639L73.3911 43.5464V14.5175L98.5865 29.0349V58.0639Z" fill="url(#paint3_linear_2944_16948)"/>
<path d="M123.788 43.5464L98.5864 58.0639V29.0349L123.788 14.5175V43.5464Z" fill="url(#paint4_linear_2944_16948)"/>
<path d="M75.812 18.7013V42.1558L96.1714 53.8801V30.4256L75.812 18.7013ZM94.2129 50.4995L77.7705 41.029V22.0819L94.2129 31.5524V50.4995Z" fill="#5CFFF3"/>
<path d="M76.7612 41.7183V19.2467L75.812 18.7013V42.1558L96.1714 53.8801V52.8971L76.7612 41.7183Z" fill="#5CFFF3"/>
<path d="M95.1622 50.062V31.1209L78.7197 21.6504V22.6334L94.213 31.5525V49.5165L95.1622 50.062Z" fill="#C1FBF6"/>
<path d="M78.7198 21.6504L77.7646 22.082L79.6089 23.1429L78.7198 21.6504Z" fill="#5CFFF3"/>
<path d="M94.2129 50.4995L95.1621 50.0619L94.2129 48.7552V50.4995Z" fill="#E0AA4B"/>
<path d="M101.008 30.4256V53.8801L121.367 42.1558V18.7013L101.008 30.4256ZM102.966 31.5524L119.415 22.0819V41.029L102.972 50.4995L102.966 31.5524Z" fill="#5CFFF3"/>
<path d="M120.418 41.7183V19.2467L121.367 18.7013V42.1558L101.008 53.8801V52.8971L120.418 41.7183Z" fill="#5CFFF3"/>
<g style="mix-blend-mode:overlay">
<path d="M102.017 50.062V31.1209L118.459 21.6504V22.6334L102.966 31.5525V49.5165L102.017 50.062Z" fill="#C1FBF6"/>
</g>
<path d="M102.966 50.4995L102.017 50.0619L102.966 48.7552V50.4995Z" fill="#E0AA4B"/>
<path d="M118.459 21.6504L119.409 22.082L117.57 23.1429L118.459 21.6504Z" fill="#5CFFF3"/>
<path d="M58.5227 52.1778L33.3213 37.6603L58.5227 23.1428L83.7241 37.6603L58.5227 52.1778Z" fill="#312A91"/>
<path d="M58.5227 52.1778L33.3213 37.6603L58.5227 23.1428L83.7241 37.6603L58.5227 52.1778Z" fill="url(#paint5_linear_2944_16948)"/>
<g style="mix-blend-mode:overlay">
<path d="M58.5226 99.5724C58.4742 99.5727 58.4266 99.5603 58.3845 99.5365L33.1891 85.019C33.1465 84.9967 33.1111 84.963 33.0867 84.9217C33.0622 84.8804 33.0499 84.8332 33.0509 84.7852C33.0494 84.7364 33.0616 84.6882 33.086 84.6458C33.1104 84.6035 33.1461 84.5688 33.1891 84.5455L58.3845 70.028C58.4267 70.0044 58.4742 69.9919 58.5226 69.9919C58.571 69.9919 58.6186 70.0044 58.6608 70.028L83.8622 84.5455C83.9048 84.5687 83.9404 84.6029 83.9652 84.6446C83.99 84.6862 84.003 84.7338 84.003 84.7822C84.003 84.8307 83.99 84.8782 83.9652 84.9199C83.9404 84.9616 83.9048 84.9958 83.8622 85.019L58.6608 99.5365C58.6187 99.5603 58.5711 99.5727 58.5226 99.5724ZM33.8919 84.7852L58.5226 98.985L83.1533 84.7852L58.5226 70.5854L33.8919 84.7852Z" fill="#73FFF5"/>
</g>
<g style="mix-blend-mode:overlay" opacity="0.26" filter="url(#filter0_f_2944_16948)">
<path d="M58.5226 94.1419L42.2783 84.7852L58.5226 75.4226L74.7728 84.7852L58.5226 94.1419Z" fill="#0F0E17"/>
</g>
<g style="mix-blend-mode:overlay" opacity="0.8">
<path d="M34.3366 37.6603L59.0273 23.4365L58.5227 23.1428L33.3213 37.6603L58.5227 52.1778L59.0333 51.8841L34.3366 37.6603Z" fill="url(#paint6_linear_2944_16948)" style="mix-blend-mode:lighten"/>
</g>
<path d="M58.5225 48.4196L39.8452 37.6604L58.5225 26.9011L77.1998 37.6604L58.5225 48.4196Z" fill="#5CFFF3"/>
<path d="M58.5225 29.3587L75.0671 38.8891L77.1998 37.6604L58.5225 26.9011L39.8452 37.6604L41.9779 38.8891L58.5225 29.3587Z" fill="#5CFFF3"/>
<path d="M58.5227 81.2068L33.3213 66.6894V37.6604L58.5227 52.1779V81.2068Z" fill="url(#paint7_linear_2944_16948)"/>
<path d="M83.7239 66.6894L58.5225 81.2068V52.1779L83.7239 37.6604V66.6894Z" fill="url(#paint8_linear_2944_16948)"/>
<path d="M35.7422 41.8441V65.2987L56.1016 77.0229V53.5684L35.7422 41.8441ZM54.1431 73.6423L37.7126 64.1718V45.2247L54.1551 54.6953L54.1431 73.6423Z" fill="#5CFFF3"/>
<path d="M36.6974 64.8611V42.3896L35.7422 41.8441V65.2987L56.1016 77.0229V76.0399L36.6974 64.8611Z" fill="#D2FFFC"/>
<path d="M55.0982 73.2108V54.2637L38.6558 44.7932V45.7762L54.1431 54.6953V72.6593L55.0982 73.2108Z" fill="#5CFFF3"/>
<path d="M38.6559 44.7932L37.7007 45.2248L39.545 46.2857L38.6559 44.7932Z" fill="#5CFFF3"/>
<path d="M54.1431 73.6423L55.0983 73.2108L54.1431 71.8981V73.6423Z" fill="#5CFFF3"/>
<path d="M60.9438 53.5684V77.0229L81.3032 65.2987V41.8441L60.9438 53.5684ZM62.9023 54.6953L79.3448 45.2247V64.1718L62.9023 73.6423V54.6953Z" fill="#5CFFF3"/>
<path d="M80.348 64.8611V42.3896L81.3032 41.8441V65.2987L60.9438 77.0229V76.0399L80.348 64.8611Z" fill="#5CFFF3"/>
<g style="mix-blend-mode:overlay">
<path d="M61.9468 73.2108V54.2637L78.3953 44.7932V45.7762L62.902 54.6953V72.6593L61.9468 73.2108Z" fill="#C5FFFB"/>
</g>
<path d="M62.902 73.6423L61.9468 73.2108L62.902 71.8981V73.6423Z" fill="#5CFFF3"/>
<path d="M78.3955 44.7932L79.3446 45.2248L77.5063 46.2857L78.3955 44.7932Z" fill="#5CFFF3"/>
<path d="M138.716 52.4476L113.521 37.9301L138.716 23.4126L163.918 37.9301L138.716 52.4476Z" fill="url(#paint9_linear_2944_16948)"/>
<g style="mix-blend-mode:overlay">
<path d="M138.716 99.8422C138.67 99.8415 138.625 99.8291 138.584 99.8062L113.407 85.2888C113.364 85.2656 113.329 85.2313 113.304 85.1897C113.279 85.148 113.266 85.1005 113.266 85.052C113.266 85.0036 113.279 84.956 113.304 84.9143C113.329 84.8727 113.364 84.8384 113.407 84.8152L138.602 70.2978C138.645 70.2741 138.692 70.2617 138.741 70.2617C138.789 70.2617 138.836 70.2741 138.879 70.2978L164.08 84.8152C164.123 84.8384 164.158 84.8727 164.183 84.9143C164.208 84.956 164.221 85.0036 164.221 85.052C164.221 85.1005 164.208 85.148 164.183 85.1897C164.158 85.2313 164.123 85.2656 164.08 85.2888L138.879 99.8062C138.83 99.8346 138.773 99.8471 138.716 99.8422ZM114.086 85.055L138.716 99.2548L163.347 85.055L138.716 70.8552L114.086 85.055Z" fill="#73FFF5"/>
</g>
<g style="mix-blend-mode:overlay" opacity="0.26" filter="url(#filter1_f_2944_16948)">
<path d="M138.716 94.4115L122.472 85.0549L138.716 75.6923L154.967 85.0549L138.716 94.4115Z" fill="#0F0E17"/>
</g>
<g style="mix-blend-mode:overlay" opacity="0.8">
<path d="M114.536 37.9301L139.227 23.7063L138.716 23.4126L113.521 37.9301L138.716 52.4476L139.227 52.1539L114.536 37.9301Z" fill="url(#paint10_linear_2944_16948)" style="mix-blend-mode:lighten"/>
</g>
<path d="M138.716 48.6893L120.039 37.93L138.716 27.1708L157.4 37.93L138.716 48.6893Z" fill="#5CFFF3"/>
<path d="M138.716 29.6283L155.261 39.1588L157.4 37.93L138.716 27.1708L120.039 37.93L122.172 39.1588L138.716 29.6283Z" fill="#5CFFF3"/>
<path d="M138.716 81.4765L113.521 66.959V37.9301L138.716 52.4475V81.4765Z" fill="url(#paint11_linear_2944_16948)"/>
<path d="M163.918 66.959L138.717 81.4765V52.4475L163.918 37.9301V66.959Z" fill="url(#paint12_linear_2944_16948)"/>
<path opacity="0.5" d="M98.6526 75.5904L73.4512 61.0729V90.1019L98.6526 104.619L123.854 90.1019V61.0729L98.6526 75.5904Z" fill="url(#paint13_linear_2944_16948)"/>
<path opacity="0.5" d="M98.6526 75.5904L73.4512 61.0729V90.1019L98.6526 104.619L123.854 90.1019V61.0729L98.6526 75.5904Z" fill="url(#paint14_linear_2944_16948)"/>
<path d="M115.942 42.1139V65.5684L136.296 77.3227V53.8382L115.942 42.1139ZM134.343 73.9121L117.895 64.4416V45.4945L134.343 54.965V73.9121Z" fill="#5CFFF3"/>
<path d="M116.892 65.1309V42.6593L115.942 42.1139V65.5684L136.296 77.2927V76.3097L116.892 65.1309Z" fill="#5CFFF3"/>
<g style="mix-blend-mode:overlay">
<path d="M135.292 73.4746V54.5335L118.85 45.063V46.046L134.337 54.9651V72.9291L135.292 73.4746Z" fill="#DDFFFD"/>
</g>
<path d="M118.85 45.063L117.895 45.4946L119.739 46.5555L118.85 45.063Z" fill="#5CFFF3"/>
<path d="M134.337 73.9121L135.292 73.4745L134.337 72.1678V73.9121Z" fill="#5CFFF3"/>
<path d="M141.138 53.8382V77.3227L161.497 65.5984V42.1139L141.138 53.8382ZM143.096 54.965L159.539 45.4945V64.4416L143.096 73.9121V54.965Z" fill="#5CFFF3"/>
<path d="M160.548 65.1309V42.6593L161.497 42.1139V65.5684L141.138 77.2927V76.3097L160.548 65.1309Z" fill="#5CFFF3"/>
<g style="mix-blend-mode:overlay">
<path d="M142.147 73.4746V54.5335L158.589 45.063V46.046L143.096 54.9651V72.9291L142.147 73.4746Z" fill="#DDFFFD"/>
</g>
<path d="M143.096 73.9121L142.147 73.4745L143.096 72.1678V73.9121Z" fill="#5CFFF3"/>
<path d="M158.589 45.063L159.538 45.4946L157.7 46.5555L158.589 45.063Z" fill="#5CFFF3"/>
<path d="M98.6526 75.5904L73.4512 61.0729L98.6526 46.5554L123.854 61.0729L98.6526 75.5904Z" fill="#312A91"/>
<path d="M98.6526 75.5904L73.4512 61.0729L98.6526 46.5554L123.854 61.0729L98.6526 75.5904Z" fill="url(#paint15_linear_2944_16948)"/>
<g style="mix-blend-mode:overlay">
<path d="M98.6528 122.985C98.6043 122.985 98.5567 122.973 98.5146 122.949L73.3132 108.432C73.2706 108.408 73.235 108.374 73.2102 108.332C73.1854 108.291 73.1724 108.243 73.1724 108.195C73.1724 108.146 73.1854 108.099 73.2102 108.057C73.235 108.016 73.2706 107.981 73.3132 107.958L98.5146 93.4406C98.5568 93.4169 98.6044 93.4045 98.6528 93.4045C98.7012 93.4045 98.7487 93.4169 98.7909 93.4406L124.022 107.958C124.065 107.981 124.101 108.016 124.125 108.057C124.15 108.099 124.163 108.146 124.163 108.195C124.163 108.243 124.15 108.291 124.125 108.332C124.101 108.374 124.065 108.408 124.022 108.432L98.821 122.949C98.7702 122.979 98.7112 122.991 98.6528 122.985ZM74.0221 108.198L98.6528 122.398L123.283 108.198L98.6528 93.998L74.0221 108.198Z" fill="#73FFF5"/>
</g>
<g style="mix-blend-mode:overlay" opacity="0.26" filter="url(#filter2_f_2944_16948)">
<path d="M98.6524 117.554L82.4082 108.198L98.6524 98.8352L114.903 108.198L98.6524 117.554Z" fill="#0F0E17"/>
</g>
<g style="mix-blend-mode:overlay" opacity="0.8">
<path d="M74.4664 61.0729L99.1572 46.8491L98.6526 46.5554L73.4512 61.0729L98.6526 75.5904L99.1632 75.2967L74.4664 61.0729Z" fill="url(#paint16_linear_2944_16948)" style="mix-blend-mode:lighten"/>
</g>
<path d="M98.6529 71.8322L79.9756 61.073L98.6529 50.3137L117.33 61.073L98.6529 71.8322Z" fill="#5CFFF3"/>
<path d="M98.6529 52.7713L115.197 62.3017L117.33 61.073L98.6529 50.3137L79.9756 61.073L82.1082 62.3017L98.6529 52.7713Z" fill="#5CFFF3"/>
<path d="M98.6526 104.619L73.4512 90.1019V61.0729L98.6526 75.5904V104.619Z" fill="url(#paint17_linear_2944_16948)"/>
<path d="M123.854 90.1019L98.6528 104.619V75.5904L123.854 61.0729V90.1019Z" fill="url(#paint18_linear_2944_16948)"/>
<path d="M75.8721 65.2567V88.7113L96.2314 100.436V76.981L75.8721 65.2567ZM94.273 97.0249L77.8305 87.5544V68.6373L94.273 78.1079V97.0249Z" fill="#5CFFF3"/>
<path d="M76.8273 88.2737V65.8022L75.8721 65.2567V88.7113L96.2314 100.436V99.4525L76.8273 88.2737Z" fill="#D4F7F4"/>
<path d="M95.2286 96.6174V77.6763L78.7861 68.2058V69.1888L94.2734 78.1079V96.0719L95.2286 96.6174Z" fill="#5CFFF3"/>
<path d="M78.7858 68.2058L77.8306 68.6374L79.6689 69.6983L78.7858 68.2058Z" fill="#5CFFF3"/>
<path d="M94.2734 97.0549L95.2286 96.6174L94.2734 95.3107V97.0549Z" fill="#5CFFF3"/>
<path d="M101.074 76.981V100.436L121.433 88.7113V65.2567L101.074 76.981ZM103.032 78.1079L119.475 68.6373V87.5844L103.032 97.0549V78.1079Z" fill="#5CFFF3"/>
<path d="M120.478 88.2737V65.8022L121.433 65.2567V88.7113L101.074 100.436V99.4525L120.478 88.2737Z" fill="#5CFFF3"/>
<g style="mix-blend-mode:overlay">
<path d="M102.077 96.6174V77.6763L118.52 68.2058V69.1888L103.032 78.1079V96.0719L102.077 96.6174Z" fill="#D9FFFC"/>
</g>
<path d="M103.032 97.0549L102.077 96.6174L103.032 95.3107V97.0549Z" fill="#5CFFF3"/>
<path d="M118.519 68.2058L119.475 68.6374L117.636 69.6983L118.519 68.2058Z" fill="#5CFFF3"/>
<path d="M166.543 119.335V105.998L154.967 99.3267L143.391 105.998V119.335L154.967 126L166.543 119.335Z" fill="#5CFFF3"/>
<path d="M154.967 112.663L143.391 105.998L154.967 99.3267L166.543 105.998L154.967 112.663Z" fill="#5CFFF3"/>
<path d="M166.543 119.335L154.967 126V112.663L166.543 105.998V119.335Z" fill="#A3FFF8"/>
<path d="M154.967 126L143.391 119.335V105.998L154.967 112.663V126Z" fill="#51CFC6"/>
<path d="M55.1223 114.18V107.077L48.9586 103.528L42.7949 107.077V114.18L48.9586 117.734L55.1223 114.18Z" fill="#5CFFF3"/>
<path d="M48.9586 110.631L42.7949 107.077L48.9586 103.528L55.1223 107.077L48.9586 110.631Z" fill="#5CFFF3"/>
<path d="M55.1222 114.18L48.9585 117.734V110.631L55.1222 107.077V114.18Z" fill="#A3FFF8"/>
<path d="M48.9586 117.734L42.7949 114.18V107.077L48.9586 110.631V117.734Z" fill="#51CFC6"/>
<defs>
<filter id="filter0_f_2944_16948" x="38.2783" y="71.4226" width="40.4946" height="26.7192" filterUnits="userSpaceOnUse" color-interpolation-filters="sRGB">
<feFlood flood-opacity="0" result="BackgroundImageFix"/>
<feBlend mode="normal" in="SourceGraphic" in2="BackgroundImageFix" result="shape"/>
<feGaussianBlur stdDeviation="2" result="effect1_foregroundBlur_2944_16948"/>
</filter>
<filter id="filter1_f_2944_16948" x="118.472" y="71.6923" width="40.4946" height="26.7192" filterUnits="userSpaceOnUse" color-interpolation-filters="sRGB">
<feFlood flood-opacity="0" result="BackgroundImageFix"/>
<feBlend mode="normal" in="SourceGraphic" in2="BackgroundImageFix" result="shape"/>
<feGaussianBlur stdDeviation="2" result="effect1_foregroundBlur_2944_16948"/>
</filter>
<filter id="filter2_f_2944_16948" x="78.4082" y="94.8352" width="40.4946" height="26.7192" filterUnits="userSpaceOnUse" color-interpolation-filters="sRGB">
<feFlood flood-opacity="0" result="BackgroundImageFix"/>
<feBlend mode="normal" in="SourceGraphic" in2="BackgroundImageFix" result="shape"/>
<feGaussianBlur stdDeviation="2" result="effect1_foregroundBlur_2944_16948"/>
</filter>
<radialGradient id="paint0_radial_2944_16948" cx="0" cy="0" r="1" gradientUnits="userSpaceOnUse" gradientTransform="translate(94.5 66.5) rotate(-0.32683) scale(87.6542 68.3942)">
<stop stop-color="#5CFFF3" stop-opacity="0.53"/>
<stop offset="1" stop-color="#2A3143" stop-opacity="0"/>
</radialGradient>
<linearGradient id="paint1_linear_2944_16948" x1="81.3273" y1="26.3543" x2="105.902" y2="-7.48928" gradientUnits="userSpaceOnUse">
<stop stop-color="#1A2030"/>
<stop offset="1" stop-color="#535C74"/>
</linearGradient>
<linearGradient id="paint2_linear_2944_16948" x1="2205.96" y1="503.176" x2="3953.9" y2="804.608" gradientUnits="userSpaceOnUse">
<stop stop-color="#42E8E0"/>
<stop offset="0.1" stop-color="#3CCACE"/>
<stop offset="0.34" stop-color="#2F87A5"/>
<stop offset="0.56" stop-color="#255385"/>
<stop offset="0.75" stop-color="#1E2D6E"/>
<stop offset="0.91" stop-color="#1A1660"/>
<stop offset="1" stop-color="#180D5B"/>
</linearGradient>
<linearGradient id="paint3_linear_2944_16948" x1="69.8701" y1="16.0874" x2="66.4719" y2="57.0666" gradientUnits="userSpaceOnUse">
<stop stop-color="#2E3852"/>
<stop offset="1" stop-color="#535C74"/>
</linearGradient>
<linearGradient id="paint4_linear_2944_16948" x1="102.555" y1="54.0434" x2="131.953" y2="40.545" gradientUnits="userSpaceOnUse">
<stop stop-color="#2E3852"/>
<stop offset="1" stop-color="#535C74"/>
</linearGradient>
<linearGradient id="paint5_linear_2944_16948" x1="41.2584" y1="49.4971" x2="65.8325" y2="15.6508" gradientUnits="userSpaceOnUse">
<stop stop-color="#1A2030"/>
<stop offset="1" stop-color="#535C74"/>
</linearGradient>
<linearGradient id="paint6_linear_2944_16948" x1="451.656" y1="1647.36" x2="2199.98" y2="1948.93" gradientUnits="userSpaceOnUse">
<stop stop-color="#42E8E0"/>
<stop offset="0.1" stop-color="#3CCACE"/>
<stop offset="0.34" stop-color="#2F87A5"/>
<stop offset="0.56" stop-color="#255385"/>
<stop offset="0.75" stop-color="#1E2D6E"/>
<stop offset="0.91" stop-color="#1A1660"/>
<stop offset="1" stop-color="#180D5B"/>
</linearGradient>
<linearGradient id="paint7_linear_2944_16948" x1="29.7995" y1="39.2303" x2="26.4021" y2="80.2097" gradientUnits="userSpaceOnUse">
<stop stop-color="#2E3852"/>
<stop offset="1" stop-color="#535C74"/>
</linearGradient>
<linearGradient id="paint8_linear_2944_16948" x1="62.491" y1="77.1864" x2="91.8886" y2="63.6879" gradientUnits="userSpaceOnUse">
<stop stop-color="#2E3852"/>
<stop offset="1" stop-color="#535C74"/>
</linearGradient>
<linearGradient id="paint9_linear_2944_16948" x1="121.457" y1="49.7669" x2="146.032" y2="15.9233" gradientUnits="userSpaceOnUse">
<stop stop-color="#1A2030"/>
<stop offset="1" stop-color="#535C74"/>
</linearGradient>
<linearGradient id="paint10_linear_2944_16948" x1="3963.26" y1="1660.69" x2="5711.2" y2="1962.13" gradientUnits="userSpaceOnUse">
<stop stop-color="#42E8E0"/>
<stop offset="0.1" stop-color="#3CCACE"/>
<stop offset="0.34" stop-color="#2F87A5"/>
<stop offset="0.56" stop-color="#255385"/>
<stop offset="0.75" stop-color="#1E2D6E"/>
<stop offset="0.91" stop-color="#1A1660"/>
<stop offset="1" stop-color="#180D5B"/>
</linearGradient>
<linearGradient id="paint11_linear_2944_16948" x1="110" y1="39.5" x2="106.602" y2="80.4792" gradientUnits="userSpaceOnUse">
<stop stop-color="#2E3852"/>
<stop offset="1" stop-color="#535C74"/>
</linearGradient>
<linearGradient id="paint12_linear_2944_16948" x1="142.685" y1="77.456" x2="172.083" y2="63.9576" gradientUnits="userSpaceOnUse">
<stop stop-color="#2E3852"/>
<stop offset="1" stop-color="#535C74"/>
</linearGradient>
<linearGradient id="paint13_linear_2944_16948" x1="70.4099" y1="82.8404" x2="105.956" y2="82.8404" gradientUnits="userSpaceOnUse">
<stop stop-color="#01C8EF"/>
<stop offset="0.13" stop-color="#04B1DD"/>
<stop offset="0.55" stop-color="#0E6BA7"/>
<stop offset="0.85" stop-color="#154085"/>
<stop offset="1" stop-color="#172F78"/>
</linearGradient>
<linearGradient id="paint14_linear_2944_16948" x1="70.4099" y1="82.8404" x2="105.956" y2="82.8404" gradientUnits="userSpaceOnUse">
<stop stop-color="#01C8EF"/>
<stop offset="0.13" stop-color="#04B1DD"/>
<stop offset="0.55" stop-color="#0E6BA7"/>
<stop offset="0.85" stop-color="#154085"/>
<stop offset="1" stop-color="#172F78"/>
</linearGradient>
<linearGradient id="paint15_linear_2944_16948" x1="81.3883" y1="72.9097" x2="105.962" y2="39.0634" gradientUnits="userSpaceOnUse">
<stop stop-color="#1A2030"/>
<stop offset="1" stop-color="#535C74"/>
</linearGradient>
<linearGradient id="paint16_linear_2944_16948" x1="2209.35" y1="2804.88" x2="3957.67" y2="3106.45" gradientUnits="userSpaceOnUse">
<stop stop-color="#42E8E0"/>
<stop offset="0.1" stop-color="#3CCACE"/>
<stop offset="0.34" stop-color="#2F87A5"/>
<stop offset="0.56" stop-color="#255385"/>
<stop offset="0.75" stop-color="#1E2D6E"/>
<stop offset="0.91" stop-color="#1A1660"/>
<stop offset="1" stop-color="#180D5B"/>
</linearGradient>
<linearGradient id="paint17_linear_2944_16948" x1="69.9293" y1="62.6428" x2="66.5319" y2="103.622" gradientUnits="userSpaceOnUse">
<stop stop-color="#2E3852"/>
<stop offset="1" stop-color="#535C74"/>
</linearGradient>
<linearGradient id="paint18_linear_2944_16948" x1="102.621" y1="100.599" x2="132.019" y2="87.1004" gradientUnits="userSpaceOnUse">
<stop stop-color="#2E3852"/>
<stop offset="1" stop-color="#535C74"/>
</linearGradient>
</defs>
</svg>
