<svg width="149" height="126" viewBox="0 0 149 126" fill="none" xmlns="http://www.w3.org/2000/svg">
<g clip-path="url(#clip0_2941_15829)">
<path style="mix-blend-mode:lighten" opacity="0.6" d="M74.3139 125.986C115.356 125.986 148.628 97.7831 148.628 62.993C148.628 28.2029 115.356 0 74.3139 0C33.2714 0 0 28.2029 0 62.993C0 97.7831 33.2714 125.986 74.3139 125.986Z" fill="url(#paint0_radial_2941_15829)"/>
<g opacity="0.3">
<path d="M112 83V122H144V83.6691L112 83Z" fill="url(#paint1_linear_2941_15829)" style="mix-blend-mode:lighten"/>
</g>
<g opacity="0.3">
<path d="M63 70V112H95V70.7206L63 70Z" fill="url(#paint2_linear_2941_15829)" style="mix-blend-mode:lighten"/>
</g>
<g opacity="0.3">
<path d="M12 83V126H45V83.7377L12 83Z" fill="url(#paint3_linear_2941_15829)" style="mix-blend-mode:lighten"/>
</g>
<path opacity="0.7" d="M78.8396 84.8134C77.999 84.8219 77.1703 84.6144 76.4327 84.2106L60.1859 74.819C59.88 74.7103 59.6152 74.5094 59.428 74.2439C59.2407 73.9783 59.1401 73.6612 59.1401 73.336C59.1401 73.0109 59.2407 72.6938 59.428 72.4282C59.6152 72.1627 59.88 71.9618 60.1859 71.8531L76.3364 62.4494C77.0826 62.0712 77.9071 61.8741 78.7433 61.8741C79.5796 61.8741 80.4041 62.0712 81.1502 62.4494L97.397 71.8351C97.7022 71.9452 97.9661 72.147 98.1527 72.4129C98.3392 72.6789 98.4393 72.996 98.4393 73.321C98.4393 73.646 98.3392 73.9631 98.1527 74.229C97.9661 74.495 97.7022 74.6968 97.397 74.8069L81.2465 84.2106C80.5088 84.6144 79.6801 84.8219 78.8396 84.8134ZM78.7553 62.1902C77.9673 62.1743 77.1883 62.3611 76.4928 62.7327L60.3424 72.1425C60.0853 72.2265 59.8613 72.3898 59.7025 72.6091C59.5437 72.8283 59.4581 73.0923 59.4581 73.3632C59.4581 73.6341 59.5437 73.898 59.7025 74.1173C59.8613 74.3365 60.0853 74.4998 60.3424 74.5838L76.5891 83.9755C77.2911 84.3291 78.0659 84.5133 78.8516 84.5133C79.6373 84.5133 80.4122 84.3291 81.1141 83.9755L97.2646 74.5658C97.5217 74.4818 97.7457 74.3185 97.9045 74.0992C98.0633 73.88 98.1488 73.616 98.1488 73.3451C98.1488 73.0742 98.0633 72.8102 97.9045 72.591C97.7457 72.3717 97.5217 72.2084 97.2646 72.1244L81.0179 62.7327C80.3221 62.3618 79.5433 62.1751 78.7553 62.1902Z" fill="#E96F8C"/>
<path d="M98.378 68.2123V60.418L88.5457 61.7321L81.1805 57.4703C80.455 57.1017 79.6531 56.9097 78.8397 56.9097C78.0263 56.9097 77.2244 57.1017 76.499 57.4703L75.3557 58.1997L59.3857 60.3336V68.2726C59.4212 68.5549 59.5283 68.8234 59.6968 69.0524C59.8654 69.2814 60.0898 69.4633 60.3485 69.5806L76.5953 78.9723C77.3196 79.3408 78.1206 79.5329 78.933 79.5329C79.7454 79.5329 80.5464 79.3408 81.2707 78.9723L97.4212 69.5626C97.678 69.4449 97.9007 69.2636 98.0681 69.0358C98.2355 68.8079 98.3421 68.5411 98.378 68.2605V68.2123Z" fill="url(#paint4_linear_2941_15829)"/>
<path d="M97.5884 59.2547L81.3416 49.869C80.6162 49.5004 79.8143 49.3083 79.0009 49.3083C78.1875 49.3083 77.3856 49.5004 76.6602 49.869L60.5157 59.2727C59.222 60.0202 59.222 61.2318 60.5157 61.9793L76.7625 71.371C77.4868 71.7395 78.2878 71.9316 79.1002 71.9316C79.9126 71.9316 80.7136 71.7395 81.4379 71.371L97.5884 61.9612C98.8821 61.2138 98.8821 60.0021 97.5884 59.2547Z" fill="url(#paint5_radial_2941_15829)"/>
<g style="mix-blend-mode:overlay">
<path d="M97.4093 61.2378L81.2589 70.6416C80.5345 71.0101 79.7335 71.2022 78.9211 71.2022C78.1087 71.2022 77.3078 71.0101 76.5834 70.6416L60.3366 61.2559C60.1144 61.1469 59.917 60.9932 59.7565 60.8045C59.5961 60.6157 59.4761 60.396 59.404 60.1588C59.2836 60.7194 59.5965 61.3102 60.3487 61.7442L76.5954 71.1359C77.3198 71.5044 78.1207 71.6965 78.9332 71.6965C79.7456 71.6965 80.5465 71.5044 81.2709 71.1359L97.4214 61.7261C98.1675 61.2921 98.4804 60.7014 98.3601 60.1407C98.2859 60.3795 98.1632 60.6003 97.9995 60.7891C97.8359 60.978 97.6349 61.1308 97.4093 61.2378Z" fill="white"/>
</g>
<path d="M83.4431 73.1975L82.6729 73.6436V72.7514L83.4431 72.3114V73.1975Z" fill="white"/>
<path d="M85.0495 72.2691L84.2793 72.7092V71.823L85.0495 71.377V72.2691Z" fill="white"/>
<path d="M86.6564 71.3348L85.8862 71.7809V70.8948L86.6564 70.4487V71.3348Z" fill="white"/>
<path d="M85.3444 73.8967L84.5742 74.3428V73.4567L85.3444 73.0106V73.8967Z" fill="white"/>
<path d="M86.7585 73.0829L85.9883 73.523V72.6369L86.7585 72.1908V73.0829Z" fill="white"/>
<path d="M91.8132 68.357L91.043 68.797V67.9109L91.8132 67.4648V68.357Z" fill="white"/>
<path d="M96.2419 65.795L95.4717 66.2411V65.3489L96.2419 64.9028V65.795Z" fill="white"/>
<path d="M88.2627 70.4065L87.4985 70.8526V69.9604L88.2627 69.5204V70.4065Z" fill="white"/>
<g style="mix-blend-mode:overlay" opacity="0.21">
<path d="M77.9553 67.1514L67.0339 60.834C66.5946 60.5748 66.6487 60.1287 67.1602 59.8334L77.8349 53.6606C78.0974 53.5118 78.3914 53.4276 78.6927 53.415C78.9941 53.4024 79.294 53.4618 79.5679 53.5883L90.4894 59.9057C90.9286 60.1589 90.8745 60.611 90.363 60.9063L79.6883 67.079C79.4247 67.2247 79.131 67.3071 78.8303 67.3196C78.5296 67.3322 78.23 67.2746 77.9553 67.1514Z" fill="#06033E"/>
</g>
<g style="mix-blend-mode:overlay">
<path d="M73.6588 73.9871L64.6328 68.7729C64.5138 68.689 64.4163 68.5781 64.3483 68.4493C64.2803 68.3204 64.2438 68.1772 64.2417 68.0314V67.3563C64.2417 67.073 64.4162 66.9403 64.6328 67.0609L73.6588 72.2752C73.778 72.3603 73.8755 72.4723 73.9434 72.6021C74.0114 72.732 74.0478 72.876 74.0499 73.0226V73.6917C74.0499 73.9811 73.8754 74.1137 73.6588 73.9871Z" fill="white"/>
</g>
<path d="M98.378 47.4397V39.6635L88.5457 40.9776L81.1805 36.7158C80.455 36.3472 79.6531 36.1552 78.8397 36.1552C78.0263 36.1552 77.2244 36.3472 76.499 36.7158L75.3557 37.4452L59.3857 39.5791V47.5C59.4212 47.7823 59.5283 48.0508 59.6968 48.2798C59.8654 48.5088 60.0898 48.6907 60.3485 48.808L76.5953 58.1997C77.3196 58.5682 78.1206 58.7603 78.933 58.7603C79.7454 58.7603 80.5464 58.5682 81.2707 58.1997L97.4212 48.79C97.678 48.6723 97.9007 48.491 98.0681 48.2632C98.2355 48.0354 98.3421 47.7685 98.378 47.4879V47.4397Z" fill="url(#paint6_linear_2941_15829)"/>
<path d="M97.4033 38.2288L81.1566 28.8431C80.4312 28.4745 79.6292 28.2825 78.8158 28.2825C78.0025 28.2825 77.2005 28.4745 76.4751 28.8431L60.3306 38.2469C59.0369 38.9943 59.0369 40.206 60.3306 40.9534L76.5774 50.3451C77.3018 50.7136 78.1027 50.9057 78.9151 50.9057C79.7275 50.9057 80.5285 50.7136 81.2529 50.3451L97.4033 40.9354C98.697 40.1879 98.697 38.9762 97.4033 38.2288Z" fill="url(#paint7_radial_2941_15829)"/>
<g style="mix-blend-mode:soft-light" opacity="0.6">
<path d="M89.6709 38.8015L80.2116 33.328C79.7901 33.1141 79.3242 33.0026 78.8517 33.0026C78.3792 33.0026 77.9133 33.1141 77.4918 33.328L68.0807 38.8075C67.3286 39.2476 67.3286 39.9528 68.0807 40.3869L77.5399 45.8543C77.9622 46.0692 78.4292 46.1813 78.9029 46.1813C79.3765 46.1813 79.8435 46.0692 80.2658 45.8543L89.6709 40.3748C90.429 39.9408 90.429 39.2355 89.6709 38.8015Z" fill="url(#paint8_linear_2941_15829)"/>
</g>
<g style="mix-blend-mode:overlay">
<path d="M97.4092 40.4653L81.2587 49.869C80.5343 50.2375 79.7334 50.4296 78.921 50.4296C78.1085 50.4296 77.3076 50.2375 76.5832 49.869L60.3365 40.4834C60.1095 40.373 59.9082 40.2162 59.7455 40.0231C59.5828 39.8299 59.4623 39.6048 59.3918 39.3622C59.2714 39.9288 59.5843 40.5195 60.3365 40.9536L76.5832 50.3452C77.3076 50.7138 78.1085 50.9058 78.921 50.9058C79.7334 50.9058 80.5343 50.7138 81.2587 50.3452L97.4092 40.9355C98.1553 40.5015 98.4682 39.9107 98.3479 39.3501C98.2773 39.5911 98.1574 39.8147 97.9957 40.0067C97.8341 40.1987 97.6344 40.3549 97.4092 40.4653Z" fill="white"/>
</g>
<path d="M83.4431 52.4249L82.6729 52.8709V51.9788L83.4431 51.5327V52.4249Z" fill="white"/>
<path d="M85.0495 51.4965L84.2793 51.9366V51.0505L85.0495 50.6044V51.4965Z" fill="white"/>
<path d="M86.6564 50.5622L85.8862 51.0082V50.1221L86.6564 49.676V50.5622Z" fill="white"/>
<path d="M85.3444 53.1242L84.5742 53.5702V52.6841L85.3444 52.238V53.1242Z" fill="white"/>
<path d="M86.7585 52.3043L85.9883 52.7504V51.8643L86.7585 51.4182V52.3043Z" fill="white"/>
<path d="M91.8132 47.5843L91.043 48.0243V47.1382L91.8132 46.6921V47.5843Z" fill="white"/>
<path d="M96.2419 45.0224L95.4717 45.4624V44.5763L96.2419 44.1302V45.0224Z" fill="white"/>
<path d="M88.2627 49.6339L87.4985 50.08V49.1878L88.2627 48.7478V49.6339Z" fill="white"/>
<path d="M98.378 27.7219V19.9277L88.5457 21.2418L81.1805 16.98C80.455 16.6114 79.6531 16.4193 78.8397 16.4193C78.0263 16.4193 77.2244 16.6114 76.499 16.98L75.3557 17.7154L59.3857 19.8493V27.7882C59.4213 28.0713 59.5284 28.3405 59.6969 28.5705C59.8654 28.8004 60.0897 28.9835 60.3485 29.1023L76.5592 38.4579C77.2835 38.8264 78.0845 39.0185 78.8969 39.0185C79.7093 39.0185 80.5103 38.8264 81.2346 38.4579L97.3851 29.0541C97.6427 28.9359 97.8659 28.7537 98.0333 28.5248C98.2008 28.2958 98.307 28.0277 98.3419 27.746L98.378 27.7219Z" fill="url(#paint9_linear_2941_15829)"/>
<path d="M97.4033 18.5171L81.1566 9.12546C80.4312 8.75689 79.6292 8.56482 78.8159 8.56482C78.0025 8.56482 77.2005 8.75689 76.4751 9.12546L60.3487 18.5654C59.055 19.3128 59.055 20.5245 60.3487 21.272L76.5594 30.6214C77.2837 30.99 78.0847 31.182 78.8971 31.182C79.7095 31.182 80.5105 30.99 81.2348 30.6214L97.3853 21.2177C98.6971 20.4763 98.6971 19.2646 97.4033 18.5171Z" fill="url(#paint10_radial_2941_15829)"/>
<path d="M97.4033 18.5171L81.1566 9.12546C80.4312 8.75689 79.6292 8.56482 78.8159 8.56482C78.0025 8.56482 77.2005 8.75689 76.4751 9.12546L60.3487 18.5654C59.055 19.3128 59.055 20.5245 60.3487 21.272L76.5594 30.6214C77.2837 30.99 78.0847 31.182 78.8971 31.182C79.7095 31.182 80.5105 30.99 81.2348 30.6214L97.3853 21.2177C98.6971 20.4763 98.6971 19.2646 97.4033 18.5171Z" fill="url(#paint11_radial_2941_15829)"/>
<g style="mix-blend-mode:overlay">
<path d="M78.906 27.6074C78.3296 27.6175 77.7602 27.4806 77.2512 27.2096L66.4922 20.9766C66.2781 20.8811 66.094 20.7292 65.9594 20.537C65.8248 20.3448 65.7448 20.1197 65.728 19.8855C65.744 19.655 65.8217 19.4332 65.9531 19.2433C66.0844 19.0534 66.2644 18.9025 66.4742 18.8065L77.173 12.5735C77.6854 12.3081 78.2539 12.1697 78.8307 12.1697C79.4076 12.1697 79.9761 12.3081 80.4885 12.5735L91.2415 18.7944C91.4612 18.8764 91.6506 19.0236 91.7844 19.2165C91.9181 19.4094 91.9898 19.6386 91.9898 19.8735C91.9898 20.1083 91.9181 20.3375 91.7844 20.5304C91.6506 20.7233 91.4612 20.8705 91.2415 20.9525L80.5607 27.1855C80.0539 27.4649 79.4844 27.6101 78.906 27.6074ZM78.8458 12.6157C78.3433 12.6076 77.8468 12.7257 77.4016 12.9593L66.7028 19.1682C66.547 19.2116 66.4097 19.3049 66.3119 19.4339C66.214 19.5629 66.1611 19.7205 66.1611 19.8825C66.1611 20.0445 66.214 20.2021 66.3119 20.331C66.4097 20.46 66.547 20.5534 66.7028 20.5968L77.4618 26.8178C77.909 27.0464 78.4039 27.1656 78.906 27.1656C79.408 27.1656 79.9029 27.0464 80.3501 26.8178L91.0489 20.5848C91.1922 20.5231 91.317 20.4251 91.4109 20.3003C91.5048 20.1756 91.5647 20.0284 91.5844 19.8735C91.5645 19.7178 91.5047 19.5699 91.4109 19.4442C91.317 19.3185 91.1923 19.2193 91.0489 19.1561L80.2899 12.9352C79.8455 12.6997 79.3485 12.5814 78.8458 12.5916V12.6157Z" fill="#D3D3D3"/>
</g>
<g style="mix-blend-mode:overlay">
<path d="M97.4092 20.7476L81.2587 30.1573C80.5343 30.5258 79.7334 30.7179 78.921 30.7179C78.1085 30.7179 77.3076 30.5258 76.5832 30.1573L60.3365 20.7656C60.1102 20.6559 59.9092 20.5 59.7465 20.308C59.5839 20.116 59.463 19.892 59.3918 19.6505C59.2714 20.2171 59.5843 20.8078 60.3365 21.2419L76.5592 30.6215C77.2835 30.99 78.0845 31.1821 78.8969 31.1821C79.7093 31.1821 80.5103 30.99 81.2346 30.6215L97.3851 21.2177C98.1312 20.7837 98.4441 20.193 98.3238 19.6263C98.2567 19.8663 98.1408 20.0897 97.9834 20.2827C97.826 20.4756 97.6305 20.6339 97.4092 20.7476Z" fill="white"/>
</g>
<path d="M83.4431 32.7072L82.6729 33.1532V32.2671L83.4431 31.821V32.7072Z" fill="white"/>
<path d="M85.0495 31.7788L84.2793 32.2249V31.3327L85.0495 30.8927V31.7788Z" fill="white"/>
<path d="M86.6564 30.8505L85.8862 31.2966V30.4045L86.6564 29.9584V30.8505Z" fill="white"/>
<path d="M85.3444 33.4124L84.5742 33.8585V32.9663L85.3444 32.5203V33.4124Z" fill="white"/>
<path d="M86.7585 32.5926L85.9883 33.0387V32.1465L86.7585 31.7004V32.5926Z" fill="white"/>
<path d="M91.8132 27.8666L91.043 28.3127V27.4205L91.8132 26.9805V27.8666Z" fill="white"/>
<path d="M96.2419 25.3047L95.4717 25.7508V24.8586L96.2419 24.4186V25.3047Z" fill="white"/>
<path d="M88.2627 29.9222L87.4985 30.3622V29.4761L88.2627 29.03V29.9222Z" fill="white"/>
<path opacity="0.7" d="M128.23 98.4428C127.389 98.4503 126.561 98.2428 125.823 97.84L109.576 88.4544C109.271 88.3442 109.007 88.1424 108.82 87.8765C108.634 87.6106 108.534 87.2935 108.534 86.9685C108.534 86.6434 108.634 86.3263 108.82 86.0604C109.007 85.7945 109.271 85.5927 109.576 85.4826L125.72 76.0788C126.467 75.7015 127.291 75.505 128.127 75.505C128.963 75.505 129.788 75.7015 130.534 76.0788L146.781 85.4705C147.087 85.5791 147.352 85.78 147.539 86.0456C147.726 86.3111 147.827 86.6283 147.827 86.9534C147.827 87.2785 147.726 87.5957 147.539 87.8612C147.352 88.1268 147.087 88.3277 146.781 88.4363L130.637 97.84C129.899 98.243 129.07 98.4505 128.23 98.4428ZM128.139 75.8317C127.352 75.8173 126.574 76.0018 125.877 76.3682L109.732 85.7779C109.483 85.8657 109.267 86.0288 109.115 86.2448C108.962 86.4608 108.88 86.7189 108.88 86.9835C108.88 87.2482 108.962 87.5063 109.115 87.7223C109.267 87.9382 109.483 88.1014 109.732 88.1891L125.979 97.5808C126.682 97.9359 127.458 98.1208 128.245 98.1208C129.032 98.1208 129.808 97.9359 130.51 97.5808L146.655 88.1711C146.904 88.0833 147.12 87.9201 147.273 87.7042C147.425 87.4882 147.507 87.2301 147.507 86.9655C147.507 86.7008 147.425 86.4427 147.273 86.2267C147.12 86.0108 146.904 85.8476 146.655 85.7598L130.408 76.3682C129.709 75.9996 128.929 75.815 128.139 75.8317Z" fill="#E96F8C"/>
<path d="M147.762 81.8598V74.0234L137.936 75.3616L130.57 71.0998C129.846 70.7312 129.045 70.5392 128.233 70.5392C127.42 70.5392 126.619 70.7312 125.895 71.0998L124.746 71.8292L108.782 73.9631V81.902C108.816 82.1846 108.922 82.4537 109.09 82.6837C109.257 82.9137 109.48 83.0969 109.738 83.2161L125.985 92.6018C126.711 92.9704 127.513 93.1624 128.326 93.1624C129.139 93.1624 129.941 92.9704 130.667 92.6018L146.811 83.198C147.069 83.0797 147.293 82.8976 147.461 82.6687C147.63 82.4399 147.737 82.1719 147.774 81.89L147.762 81.8598Z" fill="url(#paint12_linear_2941_15829)"/>
<path d="M146.793 72.6368L130.547 63.2451C129.822 62.8766 129.021 62.6846 128.209 62.6846C127.396 62.6846 126.595 62.8766 125.871 63.2451L109.721 72.6549C108.433 73.4024 108.433 74.614 109.721 75.3555L125.967 84.7471C126.693 85.1157 127.495 85.3078 128.308 85.3078C129.122 85.3078 129.923 85.1157 130.649 84.7471L146.793 75.3434C148.087 74.6261 148.087 73.3843 146.793 72.6368Z" fill="url(#paint13_radial_2941_15829)"/>
<g style="mix-blend-mode:overlay">
<path d="M146.793 74.8672L130.649 84.2709C129.923 84.6395 129.121 84.8316 128.308 84.8316C127.495 84.8316 126.693 84.6395 125.967 84.2709L109.721 74.8792C109.495 74.7689 109.296 74.6127 109.134 74.4207C108.972 74.2287 108.852 74.0051 108.782 73.7641C108.662 74.3307 108.974 74.9154 109.721 75.3494L125.967 84.7411C126.693 85.1097 127.495 85.3018 128.308 85.3018C129.121 85.3018 129.923 85.1097 130.649 84.7411L146.793 75.3374C147.545 74.9034 147.852 74.3126 147.732 73.746C147.662 73.9881 147.543 74.2129 147.381 74.406C147.219 74.599 147.019 74.7561 146.793 74.8672Z" fill="white"/>
</g>
<path d="M132.827 86.8269L132.063 87.273V86.3808L132.827 85.9408V86.8269Z" fill="white"/>
<path d="M134.434 85.8986L133.669 86.3447V85.4525L134.434 85.0125V85.8986Z" fill="white"/>
<path d="M136.047 84.9703L135.276 85.4163V84.5242L136.047 84.0781V84.9703Z" fill="white"/>
<path d="M134.729 87.5322L133.958 87.9722V87.0861L134.729 86.64V87.5322Z" fill="white"/>
<path d="M136.143 86.7123L135.378 87.1584V86.2663L136.143 85.8202V86.7123Z" fill="white"/>
<path d="M141.203 81.9863L140.433 82.4324V81.5403L141.203 81.1002V81.9863Z" fill="white"/>
<path d="M145.632 79.4244L144.862 79.8705V78.9784L145.632 78.5383V79.4244Z" fill="white"/>
<path d="M137.653 84.0419L136.883 84.482V83.5959L137.653 83.1498V84.0419Z" fill="white"/>
<g style="mix-blend-mode:overlay" opacity="0.21">
<path d="M127.345 80.7808L116.424 74.4634C115.979 74.2102 116.033 73.7581 116.55 73.4628L127.219 67.29C127.482 67.143 127.776 67.0599 128.077 67.0473C128.378 67.0348 128.678 67.0931 128.952 67.2177L139.874 73.5351C140.319 73.7943 140.265 74.2404 139.753 74.5357L129.078 80.7084C128.815 80.8555 128.522 80.9386 128.221 80.9512C127.92 80.9637 127.62 80.9054 127.345 80.7808Z" fill="#06033E"/>
</g>
<g style="mix-blend-mode:overlay">
<path d="M123.049 87.6166L114.023 82.4084C113.904 82.3233 113.806 82.2112 113.738 82.0814C113.67 81.9515 113.634 81.8075 113.632 81.6609V80.9918C113.632 80.7024 113.806 80.5698 114.023 80.6964L123.049 85.9046C123.168 85.9898 123.266 86.1018 123.334 86.2316C123.401 86.3615 123.438 86.5055 123.44 86.6521V87.3212C123.44 87.6106 123.266 87.7432 123.049 87.6166Z" fill="white"/>
</g>
<path d="M147.762 67.2176V59.4173L137.936 60.7616L130.57 56.5058C129.846 56.1373 129.045 55.9452 128.233 55.9452C127.42 55.9452 126.619 56.1373 125.895 56.5058L124.746 57.2352L108.782 59.3691V67.308C108.815 67.5901 108.921 67.8586 109.089 68.0878C109.256 68.3169 109.48 68.4989 109.738 68.6161L125.985 78.0078C126.711 78.3764 127.513 78.5684 128.326 78.5684C129.139 78.5684 129.941 78.3764 130.667 78.0078L146.793 68.598C147.051 68.4797 147.275 68.2976 147.443 68.0687C147.612 67.8399 147.719 67.5719 147.756 67.2899L147.762 67.2176Z" fill="url(#paint14_linear_2941_15829)"/>
<path d="M146.793 58.0068L130.547 48.6211C129.822 48.2526 129.021 48.0605 128.209 48.0605C127.396 48.0605 126.595 48.2526 125.871 48.6211L109.721 58.0249C108.433 58.7724 108.433 59.984 109.721 60.7315L125.967 70.1171C126.693 70.4857 127.495 70.6778 128.308 70.6778C129.122 70.6778 129.923 70.4857 130.649 70.1171L146.793 60.7134C148.087 59.9659 148.087 58.7543 146.793 58.0068Z" fill="url(#paint15_radial_2941_15829)"/>
<g style="mix-blend-mode:overlay" opacity="0.21">
<path d="M139.061 58.5735L129.602 53.106C129.179 52.8911 128.712 52.7791 128.239 52.7791C127.765 52.7791 127.298 52.8911 126.876 53.106L117.477 58.5855C116.725 59.0195 116.725 59.7248 117.477 60.1649L126.936 65.6323C127.358 65.8473 127.825 65.9593 128.299 65.9593C128.773 65.9593 129.239 65.8473 129.662 65.6323L139.061 60.1588C139.813 59.7188 139.813 59.0135 139.061 58.5735Z" fill="#06033E"/>
</g>
<g style="mix-blend-mode:overlay">
<path d="M146.793 60.2432L130.649 69.6469C129.923 70.0155 129.121 70.2075 128.308 70.2075C127.495 70.2075 126.693 70.0155 125.967 69.6469L109.721 60.2552C109.495 60.1448 109.296 59.9887 109.134 59.7967C108.972 59.6047 108.852 59.381 108.782 59.14C108.662 59.7067 108.974 60.2974 109.721 60.7314L125.967 70.1171C126.693 70.4857 127.495 70.6777 128.308 70.6777C129.121 70.6777 129.923 70.4857 130.649 70.1171L146.793 60.7133C147.545 60.2793 147.852 59.6886 147.732 59.1219C147.662 59.364 147.543 59.5888 147.381 59.7819C147.219 59.975 147.019 60.1321 146.793 60.2432Z" fill="white"/>
</g>
<path d="M132.827 72.2028L132.063 72.6429V71.7567L132.827 71.3107V72.2028Z" fill="white"/>
<path d="M134.434 71.2684L133.669 71.7145V70.8284L134.434 70.3823V71.2684Z" fill="white"/>
<path d="M136.047 70.3402L135.276 70.7863V69.8941L136.047 69.4541V70.3402Z" fill="white"/>
<path d="M134.729 72.9021L133.958 73.3482V72.456L134.729 72.016V72.9021Z" fill="white"/>
<path d="M136.143 72.0823L135.378 72.5284V71.6362L136.143 71.1962V72.0823Z" fill="white"/>
<path d="M141.203 67.3563L140.433 67.8024V66.9163L141.203 66.4702V67.3563Z" fill="white"/>
<path d="M145.632 64.7943L144.862 65.2404V64.3543L145.632 63.9082V64.7943Z" fill="white"/>
<path d="M137.653 69.4118L136.883 69.8579V68.9657L137.653 68.5197V69.4118Z" fill="white"/>
<g style="mix-blend-mode:lighten" opacity="0.75">
<path d="M28.8599 98.4429C28.0195 98.4504 27.191 98.2429 26.453 97.8401L10.2122 88.4906C9.907 88.3805 9.6431 88.1787 9.45656 87.9128C9.27002 87.6469 9.16992 87.3298 9.16992 87.0047C9.16992 86.6797 9.27002 86.3626 9.45656 86.0967C9.6431 85.8307 9.907 85.629 10.2122 85.5188L26.3567 76.1151C27.1032 75.7378 27.9276 75.5413 28.7636 75.5413C29.5997 75.5413 30.4241 75.7378 31.1706 76.1151L47.4173 85.5068C47.7232 85.6154 47.988 85.8163 48.1753 86.0818C48.3625 86.3474 48.4631 86.6645 48.4631 86.9897C48.4631 87.3148 48.3625 87.6319 48.1753 87.8975C47.988 88.163 47.7232 88.3639 47.4173 88.4726L31.2729 97.8763C30.5298 98.2678 29.6992 98.4628 28.8599 98.4429ZM28.7696 75.8318C27.9825 75.8174 27.2044 76.0019 26.5071 76.3683L10.3687 85.772C10.1195 85.8598 9.90358 86.0229 9.75086 86.2389C9.59815 86.4548 9.51612 86.7129 9.51612 86.9776C9.51612 87.2423 9.59815 87.5004 9.75086 87.7163C9.90358 87.9323 10.1195 88.0954 10.3687 88.1832L26.6154 97.5749C27.3181 97.9299 28.094 98.1149 28.881 98.1149C29.6679 98.1149 30.4439 97.9299 31.1465 97.5749L47.2909 88.1651C47.5402 88.0774 47.7561 87.9142 47.9088 87.6983C48.0615 87.4823 48.1435 87.2242 48.1435 86.9595C48.1435 86.6949 48.0615 86.4367 47.9088 86.2208C47.7561 86.0048 47.5402 85.8417 47.2909 85.7539L31.0442 76.3622C30.3433 75.9948 29.5605 75.8122 28.7696 75.8318Z" fill="#E96F8C"/>
</g>
<path d="M48.3921 81.8598V74.0234L38.5538 75.3375L31.1886 71.0998C30.4642 70.7312 29.6633 70.5392 28.8509 70.5392C28.0385 70.5392 27.2375 70.7312 26.5131 71.0998L25.3638 71.8292L9.3999 73.9631V81.902C9.43549 82.1858 9.54328 82.4558 9.71292 82.6859C9.88256 82.916 10.1084 83.0986 10.3687 83.2161L26.6154 92.6018C27.3398 92.9703 28.1408 93.1624 28.9532 93.1624C29.7656 93.1624 30.5665 92.9703 31.2909 92.6018L47.4414 83.198C47.6994 83.0797 47.9232 82.8976 48.0916 82.6687C48.2601 82.4399 48.3676 82.1719 48.4041 81.89L48.3921 81.8598Z" fill="url(#paint16_linear_2941_15829)"/>
<path d="M47.4234 72.6368L31.1766 63.2451C30.4522 62.8766 29.6513 62.6846 28.8389 62.6846C28.0265 62.6846 27.2255 62.8766 26.5012 63.2451L10.3687 72.6549C9.07501 73.4205 9.07501 74.6261 10.3687 75.3555L26.6155 84.7471C27.3398 85.1157 28.1408 85.3077 28.9532 85.3077C29.7656 85.3077 30.5666 85.1157 31.2909 84.7471L47.4414 75.3434C48.7171 74.6261 48.7171 73.3843 47.4234 72.6368Z" fill="url(#paint17_radial_2941_15829)"/>
<path d="M47.4234 72.6368L31.1766 63.2451C30.4522 62.8766 29.6513 62.6846 28.8389 62.6846C28.0265 62.6846 27.2255 62.8766 26.5012 63.2451L10.3687 72.6549C9.07501 73.4205 9.07501 74.6261 10.3687 75.3555L26.6155 84.7471C27.3398 85.1157 28.1408 85.3077 28.9532 85.3077C29.7656 85.3077 30.5666 85.1157 31.2909 84.7471L47.4414 75.3434C48.7171 74.6261 48.7171 73.3843 47.4234 72.6368Z" fill="url(#paint18_radial_2941_15829)"/>
<g style="mix-blend-mode:overlay">
<path d="M47.4232 74.8673L31.2727 84.271C30.5507 84.6365 29.753 84.827 28.944 84.827C28.135 84.827 27.3373 84.6365 26.6153 84.271L10.3686 74.8853C10.1434 74.7749 9.9436 74.6188 9.78198 74.4268C9.62037 74.2348 9.50044 74.0112 9.42986 73.7702C9.30951 74.3368 9.62241 74.9215 10.3686 75.3555L26.6153 84.7472C27.3397 85.1157 28.1406 85.3078 28.953 85.3078C29.7655 85.3078 30.5664 85.1157 31.2908 84.7472L47.4412 75.3435C48.1934 74.9095 48.5003 74.3187 48.3799 73.7521C48.3073 73.9947 48.1846 74.2194 48.0198 74.4115C47.855 74.6036 47.6517 74.7589 47.4232 74.8673Z" fill="white"/>
</g>
<path d="M33.4572 86.8269L32.687 87.273V86.3808L33.4572 85.9408V86.8269Z" fill="white"/>
<path d="M35.064 85.8986L34.2998 86.3447V85.4525L35.064 85.0125V85.8986Z" fill="white"/>
<path d="M36.6765 84.9703L35.9062 85.4163V84.5242L36.6765 84.0781V84.9703Z" fill="white"/>
<path d="M35.3586 87.5322L34.5884 87.9722V87.0861L35.3586 86.64V87.5322Z" fill="white"/>
<path d="M36.7725 86.7123L36.0083 87.1584V86.2663L36.7725 85.8202V86.7123Z" fill="white"/>
<path d="M41.8332 81.9863L41.063 82.4324V81.5403L41.8332 81.1002V81.9863Z" fill="white"/>
<path d="M46.2619 79.4244L45.4917 79.8705V78.9784L46.2619 78.5383V79.4244Z" fill="white"/>
<path d="M38.2829 84.0419L37.5127 84.482V83.5959L38.2829 83.1498V84.0419Z" fill="white"/>
<g style="mix-blend-mode:overlay" opacity="0.21">
<path d="M27.9754 80.7808L17.054 74.4634C16.6087 74.2102 16.6628 73.7581 17.1803 73.4628L27.849 67.29C28.1121 67.143 28.4059 67.0599 28.7069 67.0473C29.0079 67.0348 29.3076 67.0931 29.582 67.2177L40.5034 73.5351C40.9487 73.7943 40.8946 74.2404 40.3831 74.5357L29.7084 80.7084C29.4453 80.8555 29.1515 80.9386 28.8505 80.9512C28.5495 80.9637 28.2498 80.9054 27.9754 80.7808Z" fill="#06033E"/>
</g>
<g style="mix-blend-mode:overlay">
<path d="M23.6788 87.6166L14.6528 82.4084C14.5337 82.3233 14.4362 82.2112 14.3682 82.0814C14.3003 81.9515 14.2638 81.8075 14.2617 81.6609V80.9918C14.2617 80.7024 14.4362 80.5698 14.6528 80.6964L23.6788 85.9046C23.798 85.9898 23.8955 86.1018 23.9634 86.2316C24.0314 86.3615 24.0679 86.5055 24.0699 86.6521V87.3212C24.0699 87.6106 23.8954 87.7432 23.6788 87.6166Z" fill="white"/>
</g>
<path d="M48.3921 66.6028V58.8086L38.5538 60.1227L31.1886 55.8609C30.4642 55.4924 29.6633 55.3003 28.8509 55.3003C28.0385 55.3003 27.2375 55.4924 26.5131 55.8609L25.3638 56.5963L9.3999 58.7302V66.6631C9.43255 66.9502 9.53897 67.2238 9.70878 67.4573C9.87859 67.6908 10.106 67.8762 10.3687 67.9953L26.6154 77.381C27.3398 77.7495 28.1408 77.9416 28.9532 77.9416C29.7656 77.9416 30.5665 77.7495 31.2909 77.381L47.4414 67.9772C47.6994 67.8589 47.9232 67.6768 48.0916 67.4479C48.2601 67.2191 48.3676 66.9511 48.4041 66.6691L48.3921 66.6028Z" fill="url(#paint19_linear_2941_15829)"/>
<path d="M47.4232 57.3979L31.1765 48.0063C30.4521 47.6377 29.6512 47.4457 28.8388 47.4457C28.0263 47.4457 27.2254 47.6377 26.501 48.0063L10.3686 57.416C9.08091 58.1635 9.08091 59.3751 10.3686 60.1226L26.6154 69.5083C27.3397 69.8768 28.1407 70.0688 28.9531 70.0688C29.7655 70.0688 30.5665 69.8768 31.2908 69.5083L47.4413 60.1045C48.717 59.357 48.717 58.1454 47.4232 57.3979Z" fill="url(#paint20_radial_2941_15829)"/>
<path d="M47.4232 57.3979L31.1765 48.0063C30.4521 47.6377 29.6512 47.4457 28.8388 47.4457C28.0263 47.4457 27.2254 47.6377 26.501 48.0063L10.3686 57.416C9.08091 58.1635 9.08091 59.3751 10.3686 60.1226L26.6154 69.5083C27.3397 69.8768 28.1407 70.0688 28.9531 70.0688C29.7655 70.0688 30.5665 69.8768 31.2908 69.5083L47.4413 60.1045C48.717 59.357 48.717 58.1454 47.4232 57.3979Z" fill="url(#paint21_radial_2941_15829)"/>
<g style="mix-blend-mode:soft-light" opacity="0.6">
<path d="M41.1711 57.8561L30.4182 51.6352C29.9368 51.3915 29.4051 51.2645 28.8657 51.2645C28.3264 51.2645 27.7946 51.3915 27.3133 51.6352L16.6145 57.8682C15.76 58.3625 15.76 59.1642 16.6145 59.6766L27.3734 65.8975C27.8537 66.1412 28.3845 66.2681 28.9229 66.2681C29.4613 66.2681 29.9921 66.1412 30.4724 65.8975L41.1711 59.6645C42.0256 59.1521 42.0256 58.3504 41.1711 57.8561Z" fill="url(#paint22_linear_2941_15829)"/>
</g>
<g style="mix-blend-mode:overlay">
<path d="M47.4234 59.6284L31.2729 69.0381C30.5485 69.4066 29.7476 69.5987 28.9351 69.5987C28.1227 69.5987 27.3218 69.4066 26.5974 69.0381L10.3687 59.6464C10.1424 59.5367 9.94147 59.3808 9.77879 59.1888C9.61611 58.9968 9.49526 58.7728 9.424 58.5313C9.30365 59.0979 9.61655 59.6886 10.3627 60.1227L26.6095 69.5083C27.3338 69.8768 28.1348 70.0689 28.9472 70.0689C29.7596 70.0689 30.5605 69.8768 31.2849 69.5083L47.4354 60.1046C48.1875 59.6706 48.4944 59.0798 48.3741 58.5132C48.3021 58.7553 48.1804 58.9796 48.0166 59.1717C47.8529 59.3637 47.6508 59.5193 47.4234 59.6284Z" fill="white"/>
</g>
<path d="M33.4572 71.588L32.687 72.0341V71.148L33.4572 70.7019V71.588Z" fill="white"/>
<path d="M35.064 70.6597L34.2998 71.1058V70.2136L35.064 69.7736V70.6597Z" fill="white"/>
<path d="M36.6765 69.7314L35.9062 70.1775V69.2853L36.6765 68.8392V69.7314Z" fill="white"/>
<path d="M35.3586 72.2933L34.5884 72.7393V71.8472L35.3586 71.4011V72.2933Z" fill="white"/>
<path d="M36.7725 71.4735L36.0083 71.9195V71.0274L36.7725 70.5813V71.4735Z" fill="white"/>
<path d="M41.8332 66.7474L41.063 67.1935V66.3014L41.8332 65.8613V66.7474Z" fill="white"/>
<path d="M46.2619 64.1856L45.4917 64.6316V63.7395L46.2619 63.2994V64.1856Z" fill="white"/>
<path d="M38.2829 68.803L37.5127 69.2431V68.357L38.2829 67.9109V68.803Z" fill="white"/>
<path opacity="0.4" d="M34.3223 36.1396H35.5317V34.928H34.3223V36.1396Z" fill="#E96F8C"/>
<path d="M31.7471 36.1396H32.9565V34.928H31.7471V36.1396Z" fill="#E96F8C"/>
<path d="M22.9678 23.3783H24.1772V22.1667H22.9678V23.3783Z" fill="#E96F8C"/>
<path d="M22.9678 20.8707H24.1772V19.6591H22.9678V20.8707Z" fill="#E96F8C"/>
<path d="M22.9678 18.3751H24.1772V17.1635H22.9678V18.3751Z" fill="#E96F8C"/>
<path d="M23.5752 36.1396H24.7847V34.928H23.5752V36.1396Z" fill="#E96F8C"/>
<path opacity="0.8" d="M31.7471 27.5135H32.9565V26.3019H31.7471V27.5135Z" fill="#E96F8C"/>
<path d="M32.9566 20.9069H31.7471V22.1185H32.9566V20.9069Z" fill="#E96F8C"/>
<path opacity="0.4" d="M32.9566 18.4535H31.7471V19.6651H32.9566V18.4535Z" fill="#E96F8C"/>
<path d="M32.9566 16H31.7471V17.2116H32.9566V16Z" fill="#E96F8C"/>
<path opacity="0.4" d="M21 36.1396H22.2095V34.928H21V36.1396Z" fill="#E96F8C"/>
<path opacity="0.8" d="M121.209 20H120V21.2116H121.209V20Z" fill="#E96F8C"/>
<path d="M123.779 20H122.569V21.2116H123.779V20Z" fill="#E96F8C"/>
<path opacity="0.4" d="M126.348 20H125.139V21.2116H126.348V20Z" fill="#E96F8C"/>
<path d="M128.918 20H127.708V21.2116H128.918V20Z" fill="#E96F8C"/>
<path d="M137.095 20H135.886V21.2116H137.095V20Z" fill="#E96F8C"/>
<path opacity="0.8" d="M128.918 28.6201H127.708V29.8318H128.918V28.6201Z" fill="#E96F8C"/>
<path d="M127.708 35.2268H128.917V34.0152H127.708V35.2268Z" fill="#E96F8C"/>
<path opacity="0.4" d="M127.708 37.6863H128.917V36.4746H127.708V37.6863Z" fill="#E96F8C"/>
<path d="M127.708 40.1337H128.917V38.922H127.708V40.1337Z" fill="#E96F8C"/>
<path opacity="0.8" d="M133.593 36.7821H134.803V35.5705H133.593V36.7821Z" fill="#E96F8C"/>
<path d="M135.633 34.9254H136.843V33.7138H135.633V34.9254Z" fill="#E96F8C"/>
<path opacity="0.4" d="M139.665 20H138.455V21.2116H139.665V20Z" fill="#E96F8C"/>
</g>
<defs>
<radialGradient id="paint0_radial_2941_15829" cx="0" cy="0" r="1" gradientUnits="userSpaceOnUse" gradientTransform="translate(74.3139 62.8374) scale(74.3139 62.6743)">
<stop stop-color="#E96F8C"/>
<stop offset="1" stop-color="#2A3143" stop-opacity="0"/>
</radialGradient>
<linearGradient id="paint1_linear_2941_15829" x1="127.906" y1="107.931" x2="128.004" y2="83" gradientUnits="userSpaceOnUse">
<stop stop-color="#2A3143"/>
<stop offset="1" stop-color="#E96F8C"/>
</linearGradient>
<linearGradient id="paint2_linear_2941_15829" x1="78.9057" y1="96.8488" x2="79.0202" y2="70.0001" gradientUnits="userSpaceOnUse">
<stop stop-color="#2A3143"/>
<stop offset="1" stop-color="#E96F8C"/>
</linearGradient>
<linearGradient id="paint3_linear_2941_15829" x1="28.4028" y1="110.488" x2="28.5191" y2="83.0001" gradientUnits="userSpaceOnUse">
<stop stop-color="#2A3143"/>
<stop offset="1" stop-color="#E96F8C"/>
</linearGradient>
<linearGradient id="paint4_linear_2941_15829" x1="57.033" y1="68.2183" x2="84.5321" y2="68.2183" gradientUnits="userSpaceOnUse">
<stop stop-color="#01C8EF"/>
<stop offset="0.13" stop-color="#04B1DD"/>
<stop offset="0.55" stop-color="#0E6BA7"/>
<stop offset="0.85" stop-color="#154085"/>
<stop offset="1" stop-color="#172F78"/>
</linearGradient>
<radialGradient id="paint5_radial_2941_15829" cx="0" cy="0" r="1" gradientUnits="userSpaceOnUse" gradientTransform="translate(52.3442 47.8195) scale(61.4127 61.5222)">
<stop stop-color="#01C8EF"/>
<stop offset="0.14" stop-color="#03BAE4"/>
<stop offset="0.4" stop-color="#0895C8"/>
<stop offset="0.76" stop-color="#115A9A"/>
<stop offset="1" stop-color="#172F78"/>
</radialGradient>
<linearGradient id="paint6_linear_2941_15829" x1="57.033" y1="47.4548" x2="84.5321" y2="47.4548" gradientUnits="userSpaceOnUse">
<stop stop-color="#01C8EF"/>
<stop offset="0.13" stop-color="#04B1DD"/>
<stop offset="0.55" stop-color="#0E6BA7"/>
<stop offset="0.85" stop-color="#154085"/>
<stop offset="1" stop-color="#172F78"/>
</linearGradient>
<radialGradient id="paint7_radial_2941_15829" cx="0" cy="0" r="1" gradientUnits="userSpaceOnUse" gradientTransform="translate(52.1591 26.7936) scale(61.4127 61.5222)">
<stop stop-color="#E96F8C"/>
<stop offset="1" stop-color="#96122A"/>
</radialGradient>
<linearGradient id="paint8_linear_2941_15829" x1="78.878" y1="33.0026" x2="78.878" y2="46.1813" gradientUnits="userSpaceOnUse">
<stop stop-color="#FFE6E6"/>
<stop offset="1" stop-color="#FA4545" stop-opacity="0.63"/>
</linearGradient>
<linearGradient id="paint9_linear_2941_15829" x1="57.033" y1="27.7159" x2="84.5321" y2="27.7159" gradientUnits="userSpaceOnUse">
<stop stop-color="#01C8EF"/>
<stop offset="0.13" stop-color="#04B1DD"/>
<stop offset="0.55" stop-color="#0E6BA7"/>
<stop offset="0.85" stop-color="#154085"/>
<stop offset="1" stop-color="#172F78"/>
</linearGradient>
<radialGradient id="paint10_radial_2941_15829" cx="0" cy="0" r="1" gradientUnits="userSpaceOnUse" gradientTransform="translate(2845.43 2087.99) scale(3979.62 2308.31)">
<stop stop-color="#01C8EF"/>
<stop offset="0.14" stop-color="#03BAE4"/>
<stop offset="0.4" stop-color="#0895C8"/>
<stop offset="0.76" stop-color="#115A9A"/>
<stop offset="1" stop-color="#172F78"/>
</radialGradient>
<radialGradient id="paint11_radial_2941_15829" cx="0" cy="0" r="1" gradientUnits="userSpaceOnUse" gradientTransform="translate(52.1809 7.07633) scale(61.3808 61.5058)">
<stop stop-color="#E96F8C"/>
<stop offset="1" stop-color="#96122A"/>
</radialGradient>
<linearGradient id="paint12_linear_2941_15829" x1="106.429" y1="81.8478" x2="133.928" y2="81.8478" gradientUnits="userSpaceOnUse">
<stop stop-color="#01C8EF"/>
<stop offset="0.13" stop-color="#04B1DD"/>
<stop offset="0.55" stop-color="#0E6BA7"/>
<stop offset="0.85" stop-color="#154085"/>
<stop offset="1" stop-color="#172F78"/>
</linearGradient>
<radialGradient id="paint13_radial_2941_15829" cx="0" cy="0" r="1" gradientUnits="userSpaceOnUse" gradientTransform="translate(101.554 61.1957) scale(61.4056 61.5221)">
<stop stop-color="#01C8EF"/>
<stop offset="0.14" stop-color="#03BAE4"/>
<stop offset="0.4" stop-color="#0895C8"/>
<stop offset="0.76" stop-color="#115A9A"/>
<stop offset="1" stop-color="#172F78"/>
</radialGradient>
<linearGradient id="paint14_linear_2941_15829" x1="106.43" y1="67.2538" x2="133.92" y2="67.2538" gradientUnits="userSpaceOnUse">
<stop stop-color="#01C8EF"/>
<stop offset="0.13" stop-color="#04B1DD"/>
<stop offset="0.55" stop-color="#0E6BA7"/>
<stop offset="0.85" stop-color="#154085"/>
<stop offset="1" stop-color="#172F78"/>
</linearGradient>
<radialGradient id="paint15_radial_2941_15829" cx="0" cy="0" r="1" gradientUnits="userSpaceOnUse" gradientTransform="translate(101.554 46.5721) scale(61.4056 61.5058)">
<stop stop-color="#01C8EF"/>
<stop offset="0.14" stop-color="#03BAE4"/>
<stop offset="0.4" stop-color="#0895C8"/>
<stop offset="0.76" stop-color="#115A9A"/>
<stop offset="1" stop-color="#172F78"/>
</radialGradient>
<linearGradient id="paint16_linear_2941_15829" x1="7.04641" y1="81.8478" x2="34.554" y2="81.8478" gradientUnits="userSpaceOnUse">
<stop stop-color="#01C8EF"/>
<stop offset="0.13" stop-color="#04B1DD"/>
<stop offset="0.55" stop-color="#0E6BA7"/>
<stop offset="0.85" stop-color="#154085"/>
<stop offset="1" stop-color="#172F78"/>
</linearGradient>
<radialGradient id="paint17_radial_2941_15829" cx="0" cy="0" r="1" gradientUnits="userSpaceOnUse" gradientTransform="translate(-443.753 4173.77) scale(3980.08 2308.92)">
<stop stop-color="#01C8EF"/>
<stop offset="0.14" stop-color="#03BAE4"/>
<stop offset="0.4" stop-color="#0895C8"/>
<stop offset="0.76" stop-color="#115A9A"/>
<stop offset="1" stop-color="#172F78"/>
</radialGradient>
<radialGradient id="paint18_radial_2941_15829" cx="0" cy="0" r="1" gradientUnits="userSpaceOnUse" gradientTransform="translate(2.20013 61.1957) scale(61.3879 61.5219)">
<stop stop-color="#01C8EF"/>
<stop offset="0.14" stop-color="#03BAE4"/>
<stop offset="0.4" stop-color="#0895C8"/>
<stop offset="0.76" stop-color="#115A9A"/>
<stop offset="1" stop-color="#172F78"/>
</radialGradient>
<linearGradient id="paint19_linear_2941_15829" x1="7.04641" y1="66.6179" x2="34.554" y2="66.6179" gradientUnits="userSpaceOnUse">
<stop stop-color="#01C8EF"/>
<stop offset="0.13" stop-color="#04B1DD"/>
<stop offset="0.55" stop-color="#0E6BA7"/>
<stop offset="0.85" stop-color="#154085"/>
<stop offset="1" stop-color="#172F78"/>
</linearGradient>
<radialGradient id="paint20_radial_2941_15829" cx="0" cy="0" r="1" gradientUnits="userSpaceOnUse" gradientTransform="translate(-443.696 3586.61) scale(3979.62 2308.92)">
<stop stop-color="#01C8EF"/>
<stop offset="0.14" stop-color="#03BAE4"/>
<stop offset="0.4" stop-color="#0895C8"/>
<stop offset="0.76" stop-color="#115A9A"/>
<stop offset="1" stop-color="#172F78"/>
</radialGradient>
<radialGradient id="paint21_radial_2941_15829" cx="0" cy="0" r="1" gradientUnits="userSpaceOnUse" gradientTransform="translate(2.20535 45.9568) scale(61.3808 61.5219)">
<stop stop-color="#E96F8C"/>
<stop offset="1" stop-color="#96122A"/>
</radialGradient>
<linearGradient id="paint22_linear_2941_15829" x1="28.8928" y1="51.2645" x2="28.8928" y2="66.2681" gradientUnits="userSpaceOnUse">
<stop stop-color="#FFE6E6"/>
<stop offset="1" stop-color="#FA4545" stop-opacity="0.63"/>
</linearGradient>
<clipPath id="clip0_2941_15829">
<rect width="149" height="126" fill="white"/>
</clipPath>
</defs>
</svg>
