<svg width="311" height="122" viewBox="0 0 311 122" fill="none" xmlns="http://www.w3.org/2000/svg">
<g clip-path="url(#clip0_2944_16922)">
<g style="mix-blend-mode:lighten">
<ellipse cx="155.5" cy="57.5" rx="155.5" ry="56.5" fill="url(#paint0_radial_2944_16922)"/>
</g>
<path d="M190.683 1.29609C190.246 1.00365 189.664 0.930538 188.936 1.14987L152.905 11.1659L121.97 38.3627L116.802 42.8954C115.055 44.4307 113.817 47.0627 114.036 49.1098L118.258 96.5579C118.985 104.527 122.188 110.376 127.138 113.373L135.29 118.125L135.145 115.639L138.129 116.005L152.833 117.687L172.34 92.9024C180.857 82.0822 186.461 68.5569 187.48 56.4938L191.484 7.58351L198.18 5.60955L190.683 1.29609Z" fill="#E96F8C"/>
<path d="M121.459 38.5031L116.291 43.0358C114.544 44.5711 113.307 47.2031 113.525 49.2502L117.747 96.6983C118.475 104.667 121.677 110.516 126.627 113.513L134.78 118.266L134.634 115.78L137.618 116.145C138.273 108.469 140.821 101.45 142.932 93.9201C147.809 72.7183 132.377 56.3418 121.459 38.5031Z" fill="url(#paint1_linear_2944_16922)"/>
<path d="M190.683 1.29609C190.246 1.00365 189.664 0.930538 188.936 1.14987L152.905 11.1659L121.97 38.3627C132.888 56.2014 148.247 72.5048 143.443 93.7797C141.332 101.237 138.784 108.329 138.129 116.005L152.833 117.687L172.34 92.9024C180.856 82.0822 186.461 68.5569 187.48 56.4938L191.484 7.58351L198.18 5.60955L190.683 1.29609Z" fill="url(#paint2_linear_2944_16922)"/>
<path d="M114.836 45.6004L122.988 50.645L160.329 15.5523L152.832 11.1658L116.801 42.9684C116.001 43.6264 115.345 44.5769 114.836 45.6004Z" fill="url(#paint3_linear_2944_16922)"/>
<g style="mix-blend-mode:overlay">
<path d="M127.575 113.666C122.77 110.668 119.713 104.892 119.058 97.1428L114.836 49.6946C114.691 47.6476 115.855 45.0156 117.602 43.4803L122.77 38.9475L153.633 11.7507L189.737 1.58851C190.392 1.36918 190.974 1.44229 191.484 1.73473L198.108 5.60954H198.18L190.756 1.22297C190.319 0.930527 189.737 0.857417 189.009 1.07675L152.905 11.1659L121.97 38.3626L116.802 42.8954C115.055 44.4307 113.817 47.0627 114.036 49.1098L118.258 96.5579C118.985 104.527 122.188 110.376 127.138 113.373L127.575 113.666Z" fill="white"/>
</g>
<path d="M160.402 15.5525L124.299 47.2821C122.552 48.8174 121.314 51.4493 121.533 53.4964L125.755 100.944C126.701 111.838 132.306 118.856 140.895 119.807L160.402 122L179.91 97.2159C188.426 86.3957 194.031 72.8704 195.05 60.8073L199.272 8.38776C199.418 6.19447 198.253 4.87849 196.506 5.39026L160.402 15.5525Z" fill="url(#paint4_linear_2944_16922)"/>
<g style="mix-blend-mode:overlay">
<path d="M125.755 101.018L121.533 53.5694C121.388 51.5223 122.552 48.8904 124.299 47.3551L160.403 15.6255L196.506 5.53637C197.161 5.39015 197.671 5.39015 198.108 5.60948C197.598 4.95149 196.798 4.65905 195.851 4.95149L159.675 14.9675L123.644 46.6971C121.897 48.2324 120.66 50.8643 120.878 52.9114L125.1 100.36C125.755 107.305 128.23 112.642 132.16 115.859C128.594 112.642 126.337 107.524 125.755 101.018Z" fill="white"/>
</g>
<path d="M137.328 47.8668L133.252 51.4492C131.869 52.6921 130.923 54.7391 131.068 56.3475L134.417 93.7065C134.999 99.994 137.474 104.6 141.405 106.939L147.81 110.668L147.664 108.694L150.067 108.986C150.576 102.991 152.541 97.4351 154.216 91.5133C158.001 74.7712 145.918 61.9039 137.328 47.8668Z" fill="#851C35"/>
<path d="M191.411 18.6229C191.047 18.4036 190.61 18.3305 190.028 18.4767L161.64 26.3725L137.328 47.8668C145.917 61.9038 158.073 74.7711 154.215 91.5132C152.541 97.4351 150.503 102.991 150.066 108.986L161.64 110.302L176.998 90.7821C183.695 82.2283 188.135 71.6274 188.863 62.1231L191.993 23.5944L197.234 22.0591L191.411 18.6229Z" fill="#FFDDE5"/>
<path d="M131.723 53.5693L138.129 57.5173L167.536 29.8818L161.64 26.4457L133.252 51.4492C132.597 52.034 132.087 52.7651 131.723 53.5693Z" fill="#E96F8C"/>
<path d="M167.536 29.8818L139.148 54.8853C137.765 56.1281 136.819 58.1752 136.964 59.7836L140.313 97.1426C141.113 105.696 145.481 111.253 152.177 111.984L167.536 113.738L182.895 94.2182C189.591 85.6644 194.031 75.0635 194.759 65.5593L198.108 24.3255C198.253 22.5708 197.307 21.5473 195.924 21.986L167.536 29.8818Z" fill="url(#paint5_linear_2944_16922)"/>
<path d="M167.536 29.8818L139.148 54.8853C137.765 56.1281 136.819 58.1752 136.964 59.7836L140.313 97.1426C141.113 105.696 145.481 111.253 152.177 111.984L167.536 113.738L182.895 94.2182C189.591 85.6644 194.031 75.0635 194.759 65.5593L198.108 24.3255C198.253 22.5708 197.307 21.5473 195.924 21.986L167.536 29.8818Z" fill="url(#paint6_radial_2944_16922)"/>
<g opacity="0.3">
<path opacity="0.35" d="M173.577 35.8039L145.189 60.8074C143.806 62.0503 142.86 64.0973 143.005 65.7057L146.354 103.065C147.154 111.619 151.522 117.175 158.219 117.906L173.577 119.661L188.936 100.14C195.632 91.5865 200.073 80.9856 200.8 71.4814L204.149 30.2476C204.294 28.493 203.348 27.4694 201.965 27.9081L173.577 35.8039Z" fill="#1B0301"/>
</g>
<path d="M173.796 120.099L158.219 118.345C151.304 117.54 146.718 111.838 145.917 103.065L142.569 65.7056C142.423 63.951 143.37 61.7577 144.898 60.4417L173.359 35.3651L201.892 27.3962C202.62 27.1768 203.348 27.3231 203.858 27.7617C204.44 28.2735 204.731 29.1508 204.658 30.2475L201.31 71.4813C200.509 80.9855 196.069 91.8057 189.3 100.36L173.796 120.099ZM173.796 36.1693L145.48 61.0997C144.17 62.2695 143.297 64.1703 143.442 65.6325L146.791 102.991C147.519 111.326 151.813 116.736 158.291 117.467L173.432 119.149L188.645 99.7747C195.269 91.3671 199.709 80.6931 200.437 71.335L203.785 30.1012C203.858 29.297 203.639 28.7122 203.275 28.3466C202.911 28.0542 202.475 28.1273 202.184 28.2004L173.796 36.1693Z" fill="url(#paint7_linear_2944_16922)"/>
<mask id="mask0_2944_16922" style="mask-type:alpha" maskUnits="userSpaceOnUse" x="172" y="72" width="65" height="38">
<path d="M235.449 109.791C235.303 109.791 235.231 109.791 235.085 109.718L172.631 73.4553C172.268 73.236 172.195 72.7973 172.34 72.4318C172.559 72.0662 172.995 71.9931 173.359 72.1393L235.813 108.329C236.177 108.548 236.25 108.987 236.104 109.352C235.958 109.645 235.667 109.791 235.449 109.791Z" fill="url(#paint8_linear_2944_16922)"/>
</mask>
<g mask="url(#mask0_2944_16922)">
</g>
</g>
<defs>
<radialGradient id="paint0_radial_2944_16922" cx="0" cy="0" r="1" gradientUnits="userSpaceOnUse" gradientTransform="translate(155.5 57.5) rotate(-0.197571) scale(145.001 68.3949)">
<stop stop-color="#F47D9A" stop-opacity="0.64"/>
<stop offset="1" stop-color="#2A3143" stop-opacity="0"/>
</radialGradient>
<linearGradient id="paint1_linear_2944_16922" x1="128.679" y1="38.5031" x2="128.679" y2="118.266" gradientUnits="userSpaceOnUse">
<stop stop-color="#2A3143"/>
<stop offset="1" stop-color="#576485"/>
</linearGradient>
<linearGradient id="paint2_linear_2944_16922" x1="152.5" y1="14.5" x2="202" y2="1" gradientUnits="userSpaceOnUse">
<stop stop-color="#535C74"/>
<stop offset="1" stop-color="#AEB9D5"/>
</linearGradient>
<linearGradient id="paint3_linear_2944_16922" x1="122" y1="47" x2="157" y2="15" gradientUnits="userSpaceOnUse">
<stop stop-color="#2E3852"/>
<stop offset="1" stop-color="#535C74"/>
</linearGradient>
<linearGradient id="paint4_linear_2944_16922" x1="116.815" y1="63.6247" x2="171.666" y2="63.6247" gradientUnits="userSpaceOnUse">
<stop stop-color="#7984A2"/>
<stop offset="1" stop-color="#40475B"/>
</linearGradient>
<linearGradient id="paint5_linear_2944_16922" x1="133.259" y1="67.7995" x2="176.4" y2="67.7995" gradientUnits="userSpaceOnUse">
<stop stop-color="#01C8EF"/>
<stop offset="0.13" stop-color="#04B1DD"/>
<stop offset="0.55" stop-color="#0E6BA7"/>
<stop offset="0.85" stop-color="#154085"/>
<stop offset="1" stop-color="#172F78"/>
</linearGradient>
<radialGradient id="paint6_radial_2944_16922" cx="0" cy="0" r="1" gradientUnits="userSpaceOnUse" gradientTransform="translate(125.658 15.8395) scale(96.2951 249.789)">
<stop stop-color="#E96F8C"/>
<stop offset="1" stop-color="#96122A"/>
</radialGradient>
<linearGradient id="paint7_linear_2944_16922" x1="142.551" y1="73.7213" x2="204.644" y2="73.7213" gradientUnits="userSpaceOnUse">
<stop stop-color="white"/>
<stop offset="1" stop-color="#E96F8C"/>
</linearGradient>
<linearGradient id="paint8_linear_2944_16922" x1="236.164" y1="90.9215" x2="172.238" y2="90.9215" gradientUnits="userSpaceOnUse">
<stop/>
<stop offset="1" stop-color="white"/>
</linearGradient>
<clipPath id="clip0_2944_16922">
<rect width="311" height="122" fill="white"/>
</clipPath>
</defs>
</svg>
